/* XPM */
static char * barcode_xpm[] = {
"48 48 2 1",
" 	c #FFFFFFFFFFFF",
".	c #000000000000",
"                                                ",
"                                                ",
"  ............................................  ",
"  .                                          .  ",
"  .                                          .  ",
"  .                                          .  ",
"  .                                          .  ",
"  .                                          .  ",
"  .   ..  .  ... . .  ..  .  ..  .  ..  ..   .  ",
"  .   ..  .  ... . .  ..  .  ..  .  ..  ..   .  ",
"  .   ..  .  ... . .  ..  .  ..  .  ..  ..   .  ",
"  .   ..  .  ... . .  ..  .  ..  .  ..  ..   .  ",
"  .   ..  .  ... . .  ..  .  ..  .  ..  ..   .  ",
"  .   ..  .  ... . .  ..  .  ..  .  ..  ..   .  ",
"  .   ..  .  ... . .  ..  .  ..  .  ..  ..   .  ",
"  .   ..  .  ... . .  ..  .  ..  .  ..  ..   .  ",
"  .   ..  .  ... . .  ..  .  ..  .  ..  ..   .  ",
"  .   ..  .  ... . .  ..  .  ..  .  ..  ..   .  ",
"  .   ..  .  ... . .  ..  .  ..  .  ..  ..   .  ",
"  .   ..  .  ... . .  ..  .  ..  .  ..  ..   .  ",
"  .   ..  .  ... . .  ..  .  ..  .  ..  ..   .  ",
"  .   ..  .  ... . .  ..  .  ..  .  ..  ..   .  ",
"  .   ..  .  ... . .  ..  .  ..  .  ..  ..   .  ",
"  .   ..  .  ... . .  ..  .  ..  .  ..  ..   .  ",
"  .                                          .  ",
"  .                                          .  ",
"  .                                          .  ",
"  .                                          .  ",
"  .                                          .  ",
"  .                                          .  ",
"  .  ....................................... .  ",
"  .  .                                     . .  ",
"  .  .  .  ..  ..    . ...  .. ...  .   .  . .  ",
"  .  . ..    .   .  .. .   .     . . . . . . .  ",
"  .  .  .   .   .  . .  .. ..   .   .   .. . .  ",
"  .  .  .  .     . ....  . . . .   . .   . . .  ",
"  .  . ... ... ..    . ..   .  .    .  ..  . .  ",
"  .  .                                     . .  ",
"  .  .                                     . .  ",
"  .  ....................................... .  ",
"  .                                          .  ",
"  .                                          .  ",
"  .                                          .  ",
"  .                                          .  ",
"  .                                          .  ",
"  ............................................  ",
"                                                ",
"                                                "};
