/* XPM */
static char * cni_ril_sfondo_small_xpm[] = {
/* width height num_colors chars_per_pixel */
"108 93 22 1",
/* colors */
" 	s None	c None",
".	c #cfcfcf",
"X	c #c0c0c0",
"o	c #c9c9c9",
"O	c #c5c5c5",
"+	c #8e8e8e",
"@	c #bcbcbc",
"#	c #939393",
"$	c #888888",
"%	c #a4a4a4",
"&	c #949494",
"*	c #9d9d9d",
"=	c #afafaf",
"-	c #b4b4b4",
";	c #878787",
":	c #9b9b9b",
">	c #aaaaaa",
",	c #b3b3b3",
"<	c #bababa",
"1	c #808080",
"2	c #a3a3a3",
"3	c #d0d0d0",
/* pixels */
"                                                                                                            ",
"                                                                                                            ",
"                                                                                                            ",
"                                                                                                            ",
"                                                                                                            ",
"                                                                                                            ",
"                                                                                                            ",
"                                                              .                X                            ",
"                                                              o               XO                            ",
"                                                                              +@                            ",
"                                                                             #$                             ",
"                                                                            #$  %@o                         ",
"                                                        oo                 #$  %&oo                         ",
"                                                       oooo   *           #$  %&o=&                         ",
"                                                      oo  oo  -          #$  %&o=&                          ",
"                                                     oo    oo  &        #;  %&o=&  &=o                      ",
"                                                    oo      oo :&      #;  >&o=&  &=o @                     ",
"                                                   oo        oo@:&    #&  >&o,&  &=o<&o.                    ",
"                                                  oo          oo@:&* &&  1&o,&  &=o<&o:+                    ",
"                                                 oo            oo@:&$&  1&o,&  &=o@&o:+                     ",
"                                                oo              oo  &. >&o,&  &>o@&o*+  &-                  ",
"                                               oo                oo   #&o-&  &>o@&o*$  &-                   ",
"                                               o                  oo  &o-&  &>o@&o*$  &-                    ",
"                                               o                   oo  *&  &>o@&o*$  &-                     ",
"                                               &                   =#o    &1oX&o2$  &-                      ",
"                                               =&                 =&oX   &1oX&o2$  &-                       ",
"                                                =&               =&o<&     =&o2$  &-                        ",
"                                                 =&             =&o<&  #   &o2$  &,                         ",
"                                                  =&           =&o<&  &%oo  &$  &,                          ",
"                                                   ,&         =&o@&  &%oO#o    &,                           ",
"                                                    ,&       =&o@&  &% O&o,   &,                            ",
"                                                     ,&     =&o@&  &%  &o%&     >                     O     ",
"                                                      ,&   ,&o@&  &%  &o>&  +   ;#                    <     ",
"                                    X                  ,& ,&oX&  &%  &o1&  &,oo  ;#                  &,     ",
"                                  ooooo X               ,&&oX&  &%  &o>&  &,oo.o  $#                &>      ",
"                                 oooOoooooo X            ,@X&  &%  &o>&  &=oo  .o  $#              &%       ",
"                                oo     oXoooooo           <&  &2  &o=&  &=oo    .o  $#            &%        ",
"                               oo          .Xooooo3          &2  &o=&  &=oo      .o  $#          &%         ",
"                              oo               3.ooooo      -2o &o=&  &=oo        .o  $#        &%          ",
"                             oo                    33<oo  X   >&o=&  &=oo          .o  $+      &%           ",
"                            oo                     -& O#      -X=&  &=oo            oo  $+    &%            ",
"                           oo                     -&  &3 &%  Xo.&  &=oo              oo  $+< &%             ",
"                          oo                     -&  &  &2  &o,=  &=oo                oo  +&&%              ",
"                          o                     -&  &  &2  &o,&  &>oo                  ooX  2               ",
"                         o                     -&  &.o&*  &o-&  &>oo                    oo                  ",
"                         >                    -&  & o&*  &o-&  &>oo                      +                  ",
"                          &                  -&  &  &*  &o-&  &>oo                      &2                  ",
"                       oo 2&                -&  &  &*  &o-&  &1oo                      &2                   ",
"                     oo..o@2&              <&  &  <*X=&@<&  &1oo                      &2                    ",
"                    oo.  .o@2&            <&  &  &*  , =&  &>oo                      &2                     ",
"                   oo     .o@2&          <&  &  &*  <     >> 2&:-                   &2                      ",
"                  oo       .o@%&        <&  &  &*  &         =*&&&+%               &*                       ",
"                 oo         .o@%&      <&  &  &:  & @&           %+&&&:-          &*                        ",
"                oo           oo@%&    <&  &  &:  &  &  -            <:&&&&2      &*                         ",
"                o             oo@%&  <&  &  &:  & @&  &%oo              %#&&&&> &*                          ",
"               o               oo@%& &  &  &:  & @&  &%oooo                --+&&*                           ",
"              oo                ooX%&  &  &:  & X&  &%oo  oo                   ,                            ",
"              o                  oo   &  &:  & X&  &%oo    oo                                               ",
"             o                 ,:&$  %  &:  & X&  &%oo      oo                                              ",
"             o                &&&-<    &:  & X&  &2oo        oo                                             ",
"            Oo               &+        ,@ & O&  &2oo          oo                                            ",
"            o               &%          <& O&  &2oo            oo                                           ",
"            o              -%             2&3 &2oo              oo                                          ",
"            o              &              > o&2oo                oo                                         ",
"           XO              ,                &2oo                  oo                                        ",
"                                            -@o                    o                                        ",
"                          +                  <&                                                             ",
"                         &                  oO=&                   &                                        ",
"                        &                   ooO=&                 &&                                        ",
"                       &  $                o XoO=&               &&                                         ",
"                      &  &Xo               o  XoO=&             &&                                          ",
"            >        &  &                 oo   Xoo=&           &&                                           ",
"            #       &  & o##             OoX    Xoo=&         &&                                            ",
"            1      &  &  ##  X          OoX      Xoo=&       &&                                             ",
"            1-    &  &  &#  &   O      ooX        Xoo=&     &#                                              ",
"             :   &  &@ &+  &  &    oooooX           oo,&   ;#                                               ",
"             &  &  &  &+  &  &  & ooooO              oo,&&&#                                                ",
"             =-&  & o&+  &  &  &:oo                   oo-&#                                                 ",
"              #  &  :+  &  &  &:oo                                                                          ",
"                & o:+  &  &  &:oo                     %-                                                    ",
"               &  :+  &  &  &:oo                      &                                                     ",
"                o:+  &  &  &:oo                      $                                                      ",
"                :+  &  &O &:oo                      $+                                                      ",
"                  O&  & o&&oo                      $+                                                       ",
"                  #@ &O ;&oo                      $+                                                        ",
"                   ,&Xo$&oo                     -++                                                         ",
"                      ;&oo                     %&+                                                          ",
"                      & o                     &&                                                            ",
"                        &&&                *&&&                                                             ",
"                        <2&&+$,        ,&&&&&-                                                              ",
"                           =&$&&&&&$&&&&&$-                                                                 ",
"                               12%&&=2>                                                                     ",
"                                                                                                            "};
