/* XPM */
static char *cni-ril-4-small[] = {
/* width height num_colors chars_per_pixel */
"    68    36        7            1",
/* colors */
". c #606060",
"# c #686868",
"a c #707070",
"b c #808480",
"c c #888c88",
"d c #b8bcb8",
"e c #c0c4c0",
/* pixels */
"eeeeeeeeeeeeeeeeeeeeeeeeeeeeeeeeeeeeeeeeeeeeeeeeeeeeeeeeeeeeeeeeeeee",
"eeeeeeeeeeeeee#######eee#########ceeeeeeeeee##########ceee######ceee",
"eeeeeeeeeee###########e.##########ceeeeeeeee##########cee########cee",
"eeeeeeeeee############e.##########ceeeeeeeee##########ce##########ce",
"eeeeeeee##############e.###########ceeeeeeee##########ce##########ce",
"eeeeeee###############e.############ceeeeeee##########cd##########ce",
"eeeeee################e.############ceeeeeee##########cd##########ce",
"eeeee#################e.#############ceeeeee##########ce##########ce",
"eeee##################e.#############ceeeeee##########ce##########ce",
"eeee##################e.##############ceeeee##########cee########cee",
"eee###################e.###############ceeee##########ceeeeeeeeeeeee",
"eee#############eeeee#e.###############ceeee##########ce##########ce",
"eee############eeeeeeee.################ceee##########ce##########ce",
"eeeeeeeeeeeeeeeeeeeeeeeeeeeeeeeeeeeeeeeeeeeeeeeeeeeeeeeeeeeeeeeeeeee",
"ee############eeeeeeeee.#################eee##########ce##########ce",
"ee###########eeeeeeeeee.#################eee##########ce##########ce",
"eeeeeeeeeeeeeeeeeeeeeeeeeeeeeeeeeeeeeeeeeeeeeeeeeeeeeeeeeeeeeeeeeeee",
"ee###########eeeeeeeeee.#########beeeeeeeee###########ce##########ce",
"ee###########eeeeeeeeee.#########beeeeeeeee###########ce##########ce",
"eeeeeeeeeeeeeeeeeeeeeeeeeeeeeeeeeeeeeeeeeeeeeeeeeeeeeeeeeeeeeeeeeeee",
"ee###########eeeeeeeeee.#########ce.##################ce##########ce",
"ee############eeeeeeeee.#########cee.#################ce##########ce",
"eeeeeeeeeeeeeeeeeeeeeeeeeeeeeeeeeeeeeeeeeeeeeeeeeeeeeeeeeeeeeeeeeeee",
"eee############eeeeee#e.#########ceee.################ce##########ce",
"eee#############deeea#e.#########ceeee.###############ce##########ce",
"eee###################e.#########ceeee.###############ce##########ce",
"eeee##################e.#########ceeeee.##############ce##########ce",
"eeeee#################e.#########ceeeee.##############ce##########ce",
"eeeee#################e.#########ceeeeee.#############ce##########ce",
"eeeeee################e.#########ceeeeee.#############ce##########ce",
"eeeeeee###############e.#########ceeeeeee.############ce##########ce",
"eeeeeeee##############e.#########ceeeeeeee.###########ce##########ce",
"eeeeeeeeee############e.#########ceeeeeeee.###########ce##########ce",
"eeeeeeeeeeed##########ee#########ceeeeeeeee.##########ce##########ce",
"eeeeeeeeeeeeeeecccccceeeeccccccccceeeeeeeeeeccccccccccceccccccccccce",
"eeeeeeeeeeeeeeeeeeeeeeeeeeeeeeeeeeeeeeeeeeeeeeeeeeeeeeeeeeeeeeeeeeee"
};
SIMPLE  =                    T                                                  BITPIX  =                    8                                                  NAXIS   =                    2                                                  NAXIS1  =                   68                                                  NAXIS2  =                   36                                                  HISTORY Written by XV 3.10a                                                     END                                                                                                                                                                                                                                                                                                                                                                                                                                                                                                                                                                                                                                                                                                                                                                                                                                                                                                                                                                                                                                                                                                                                                                                                                                                                                                                                                                                                                                                                                                                                                                                                                                                                                                                                                                                                                                                                                                                                                                                                                                                                                                                                                                                                                                                                                                                                                                                                                                                                                             ºhhhhhhhhhhhhhhhhhhh`hhhhhhhhhhhhhhhhhhhhhhhhhhhhhhhh`hhhhhhhhh`hhhhhhhhhhhhhhhhhhhhhhhhhhhhhhhhhhh`hhhhhhhhh`hhhhhhhhhhhhhhhhhhhhhhhhhhhhhhhhhhhh`hhhhhhhhh`hhhhhhhhhhhhhhhhhhhhhhhhhhhhhhhhhhhhhh`hhhhhhhhh`hhhhhhhhhhhhhhhhhhhhhhhhhhhhhhhhhhhhhhhh`hhhhhhhhh`hhhhhhhhhhhhhhhhhhhhhhhhhhhhhhhhhhhhhhhh`hhhhhhhhh`hhhhhhhhhhhhhhhhhhhhhhhhhhhhhhhhhhhhhhhhhh`hhhhhhhhh`hhhhhhhhhhhhhhhhhhhhhhhhhhhhhhhhhhhhhhhhhhh`hhhhhhhhh`hhhhhhhhhhhhhhhhhhhhhhhhhhhhhhhhhhhhhhph`hhhhhhhhh`hhhhhhhhhhhhhhhhhhhhhhhhhhhhhhhhhhhhhh`hhhhhhhhh`hhhhhhhhhhhhhhhhhhhhhhhhhhhhhhhhhhhhhh`hhhhhhhhh`hhhhhhhhhhhhhhhhhhhhhhhhhhhhhhhhhhhhhh`hhhhhhhhh`hhhhhhhhhhhhhhhhhhhhhhhhhhhhhhhhhhhhhhh`hhhhhhhhhhhhhhhhhhhhhhhhhhhhhhhhhhhhhhhhh`hhhhhhhhhhhhhhhhhhhhhhhhhhhhhhhhhhhhhhhhh`hhhhhhhhhhhhhhhhhhhhhhhhhhhhhhhhhhhhhhhhhhhhhhhhh`hhhhhhhhhhhhhhhhhhhhhhhhhhhhhhhhhhhhhhhhhhhhhhhhh`hhhhhhhhhhhhhhhhhhhhhhhhhhhhhhhhhhhhhhhhhhhhhhhhhh`hhhhhhhhhhhhhhhhhhhhhhhhhhhhhhhhhhhhhhhhhhhhhhhhhhhhhh`hhhhhhhhhhhhhhhhhhhhhhhhhhhhhhhhhhhhhhhhhhh`hhhhhhhhhhhhhhhhhhhhhhhhhhhhhhhhhhhhhhhhhhhhhhhhhh`hhhhhhhhhhhhhhhhhhhhhhhhhhhhhhhhhhhhhhhhhhhhhhhhhh`hhhhhhhhhhhhhhhhhhhhhhhhhhhhhhhhhhhhhhhhhhhhhhhhh`hhhhhhhhhhhhhhhhhhhhhhhhhhhhhhhhhhhhhhhhhhhhhhh`hhhhhhhhhhhhhhhhhhhhhhhhhhhhhhhhhhhhhhhhhhhhhh`hhhhhhhhhhhhhhhhhhhhhhhhhhhhhhhhhhhhhhhhhhh`hhhhhhhhhhhhhhhhhhhhhhhhhhhhhhhhhhhhhhhhh`hhhhhhhhhhhhhhhhhhhhhhhhhhhhhhhhhhhhhhhhhhhhhhhhhhhhhhhhhhhh                                                                                                                                                                                                                                                                                                                                                                                                                                                