/* XPM */
static char * cni_ril_xpm[] = {
/* width height num_colors chars_per_pixel */
"68 36 54 1",
/* colors */
" 	s None	c None",
".	c #c7c7c7",
"X	c #cbcbcb",
"o	c #bfbfbf",
"O	c #cfcfcf",
"+	c #dbdbdb",
"@	c #e7e7e7",
"#	c #efefef",
"$	c #dfdfdf",
"%	c #d3d3d3",
"&	c #c3c3c3",
"*	c white",
"=	c #ebebeb",
"-	c #bbbbbb",
";	c #f7f7f7",
":	c #e3e3e3",
">	c #b6b6b6",
",	c #7f7f7f",
"<	c #d7d7d7",
"1	c #afafaf",
"2	c #7b7b7b",
"3	c #a7a7a7",
"4	c #f3f3f3",
"5	c #b3b3b3",
"6	c #5a5a5a",
"7	c #8b8b8b",
"8	c #979797",
"9	c #5f5f5f",
"0	c #9e9e9e",
"q	c #fbfbfb",
"w	c #9b9b9b",
"e	c #929292",
"r	c #737373",
"t	c #a3a3a3",
"y	c #aaaaaa",
"u	c #575757",
"i	c #4b4b4b",
"p	c #8f8f8f",
"a	c #333333",
"s	c #3b3b3b",
"d	c #434343",
"f	c #4f4f4f",
"g	c #767676",
"h	c #838383",
"j	c #636363",
"k	c #868686",
"l	c #6f6f6f",
"z	c #6b6b6b",
"x	c #676767",
"c	c #535353",
"v	c #2b2b2b",
"b	c #3f3f3f",
"n	c #373737",
"m	c #474747",
/* pixels */
"                                                          .XXXo     ",
"            XO+@##@$%.oX$$$$$$$$$&         .$$$$$$$$$+o o%****@.o   ",
"          X=**@o----O*&*+o------o&        &;:o------->, @*<---oOo   ",
"        &@*;&--------12*.---------3>      o4Oo-------56O*X------51  ",
"       %**.----------12*.---------13      o4Oo-------56=+o------>7> ",
"      <*#&-----------12*.----------85     o4Oo-------59*X------->71 ",
"     <*+o------------12*.---------->0>    o4Oo-------59q.--------0w ",
"    O*+o-------------12*.-----------01    o4Oo-------564.--------8e ",
"   &*@&--------------12*.-----------50>   o4Oo-------56<Xo------>rw ",
"  o:*.---------------12*.------------ty   o4Oo-------5uoO->>>>>>3iy ",
"  .*O----------------12*.------------58>  o4Oo-------5u5&wpppppprr> ",
" o:;&---------->y331-12*.-------------33  o4Oo-------5u-:@@@@@@@@Oo ",
" &*X>>>>>>>>>>yrasdf8tg*o>>>>>>>>>>>>>5p5 o#X>>>>>>>>y6<#->>>>>>503 ",
" &4phhhhhhhhh,9j5   >7g:phhhhhhhhhhhhhh2t o+8hhhhhhhh,u.3khhhhhhhre ",
" %***********;3       .*****************O &q**********y@*********q5 ",
" &0rllllllllzu1        &2lllllllllllllll2y-o,lllllllllz>klllllllll0 ",
" %ow888888882r>       &4t88888888p777777h6>:188888888puX>w8888888,e ",
" $**********4         &**********=--------.***********.$*********q  ",
" .8grrrrrrrrxt        o$hrrrrrrrr93.%%%%%<@<,rrrrrrrrru&egrrrrrrrxe ",
" +q#########<3        .*4#######=5544################@k$q########%t ",
"  erllllllllrp>        &2lllllllll1>7rllllllllllllllllz>klllllllll0 ",
" .%w888888888p5      &&438888888ez3o%0888888888888888puX-w8888888,e ",
" &*************.o   X*.**********4o O*****************.=**********o ",
" o$Xo---------oXOOO$*$2*.------->23 o$.o-------------56 +o-------we ",
"  X<o------------**#oyg*.------->23  &+o-------------56 +o-------we ",
"  o:&----------------yg*.------->23  o%Xo------------56 +o-------we ",
"   .Xo---------------yg*.------->23   &+o------------56 +o-------we ",
"   o.&---------------yg*.------->23    .Oo-----------56 +o-------we ",
"     ----------------yg*.------->23    o@&-----------56 +o-------we ",
"     ----------------yg*.------->23     XOo----------56 +o-------we ",
"     ----------------yg*.------->23     o+&----------56 +o-------we ",
"       >w1-----------yg*.------->23      o%o---------56 +o-------we ",
"         5wy---------3rq.-------5r3      oX.---------16 +o-------we ",
"           7kwyyyyyythlX-1yyyyyy0f3       &<1yyyyyyyywcOO5111111y7e ",
"              ravvvvbe  7avvvvvvnw         1mvvvvvvvvnw5rbssssssss3 ",
"                                                                    "};
