/* XPM */
static char * emi_little_xpm[] = {
/* width height num_colors chars_per_pixel */
"56 32 8 1",
/* colors */
" 	c None",
".	c white",
"X	c #e82020",
"o	c #f00818",
"O	c #f00010",
"+	c #f01018",
"@	c #f00810",
"#	c #e80800",
/* pixels */
"                                                       .",
"                                                       .",
"   XXXXXXXXXXXXXXXXXXXXXXXXXXXXXXXXXXXXXXXXXXXXXXXXXX  .",
"   XXXXXXXXXXXXXXXXXXXXXXXXXXXXXXXXXXXXXXXXXXXXXXXXXX  .",
"   XX                                              XX  .",
"   XX                                              XX  .",
"   XX  XXXXXXXXXXXXXXXXXXXXXXXXXXXXXXXXXXXXXXXXXX  XX  .",
"   XX  XXXXXXXXXXXXXXXXXXXXXXXXXXXXXXXXXXXXXXXXXX  XX  .",
"   XX  XXXXXXXXXXXXXXXXXXXXXXXXXXXXXXXXXXXXXXXXXX  XX  .",
"   XX  XXXX         XXX    XoXXXXX   XXX     XXXX  XX  .",
"   XX  XXXX         XXX     XXXX     XXX     XXXX  XX  .",
"   XX  XXXX         XXX      OXX     XXX     XXXX  XX  .",
"   XX  XXXX    XXXXXXXX      +XX     XXX     XXXX  XX  .",
"   XX  XXXX    XXXXXXXX      XXX     XXX     XXXX  XX  .",
"   XX  XXXX         XXX       X      XXX     XXXX  XX  .",
"   XX  XXXX         XXX       X      XXX     XXXX  XX  .",
"   XX  XXXX         XXX    X         XXX     XXXX  XX  .",
"   XX  XXXX    XXX@XXXX    X     X   XXX     XXXX  XX  .",
"   XX  XXXX    XXXXXXXX    X    XX   XXX     XXXX  XX  .",
"   XX  XXXX         XXX    #X   XX   XXX     XXXX  XX  .",
"   XX  XXXX         XXX    XX   XX   XXX     XXXX  XX  .",
"   XX  XXXX         XXX    XX   XX   XXX     XXXX  XX  .",
"   XX  XXXXXXXXXXXXXXXXXXXXXXXXXXXXXXXXXXXXXXXXXX  XX  .",
"   XX  XXXXXXXXXXXXXXXXXXXXXXXXXXXXXXXXXXXXXXXXXX  XX  .",
"   XX  XXXXXXXXXXXXXXXXXXXXXXXXXXXXXXXXXXXXXXXXXX  XX  .",
"   XX  XXXXXXXXXXXXXXXXXXXXXXXXXXXXXXXXXXXXXXXXXX  XX  .",
"   XX                                              XX  .",
"   XX                                              XX  .",
"   XXXXXXXXXXXXXXXXXXXXXXXXXXXXXXXXXXXXXXXXXXXXXXXXXX  .",
"   XXXXXXXXXXXXXXXXXXXXXXXXXXXXXXXXXXXXXXXXXXXXXXXXXX  .",
"                                                       .",
"                                                       ."};
