/* XPM */
static char *magick[] = {
/* columns rows colors chars-per-pixel */
"48 48 251 2",
"   c Gray0",
".  c Gray2",
"X  c #080807",
"o  c #0a0a09",
"O  c #0d0d0b",
"+  c #0e0e0d",
"@  c #11110e",
"#  c #131311",
"$  c Gray7",
"%  c #151512",
"&  c #161614",
"*  c #1c1c17",
"=  c Gray11",
"-  c #201d13",
";  c #21211e",
":  c #242119",
">  c #272727",
",  c #2a2a27",
"<  c #2f2f29",
"1  c #2c2c2a",
"2  c Gray17",
"3  c #32322f",
"4  c #33332d",
"5  c #3a3625",
"6  c #333332",
"7  c #353535",
"8  c #393732",
"9  c #3b3b36",
"0  c Gray23",
"q  c #3e3e3e",
"w  c #423f36",
"e  c #434032",
"r  c #43433d",
"t  c #46443a",
"y  c #42423a",
"u  c #4e493a",
"i  c #434343",
"p  c #474742",
"a  c #464646",
"s  c #4b4b44",
"d  c #4e4d46",
"f  c Gray29",
"g  c #4f4f4e",
"h  c #56564f",
"j  c #525249",
"k  c #5f5c4f",
"l  c #5a594c",
"z  c #585851",
"x  c #5e5d5a",
"c  c #595958",
"v  c #535353",
"b  c #6d664d",
"n  c #646159",
"m  c #716d5b",
"M  c #797157",
"N  c #626262",
"B  c #646464",
"V  c #6b6b64",
"C  c #6a6a69",
"Z  c #6f6f6f",
"A  c #6d6d6d",
"S  c #736f61",
"D  c #72726d",
"F  c #79766c",
"G  c #7f7a64",
"H  c Gray45",
"J  c #757571",
"K  c #7b7b7b",
"L  c #7f7f7b",
"P  c Gray49",
"I  c #81795c",
"U  c #8f8255",
"Y  c #958857",
"T  c #9b8c5a",
"R  c #928963",
"E  c #9d9164",
"W  c #aa9a5a",
"Q  c #b3a05e",
"!  c #aca276",
"~  c #baa964",
"^  c #b7aa7c",
"/  c #c1ae67",
"(  c #c5b36a",
")  c #c9b76d",
"_  c #ccb96e",
"`  c #c2b272",
"'  c #c6b677",
"]  c #ccba71",
"[  c #d1be72",
"{  c #d1c076",
"}  c #d9c677",
"|  c #dbc77c",
" . c #d9c679",
".. c #dbc97d",
"X. c #dbc878",
"o. c #e2cd7f",
"O. c #e5d17e",
"+. c Gray51",
"@. c #868686",
"#. c #898782",
"$. c #8d8d86",
"%. c #94948e",
"&. c #9a9585",
"*. c #9c9c99",
"=. c #939393",
"-. c #a29c84",
";. c #b2b29b",
":. c #b8b095",
">. c Gray65",
",. c Gray63",
"<. c #a9a9a4",
"1. c #aeaea9",
"2. c #bab6a9",
"3. c #b3b3b1",
"4. c #b5b5b4",
"5. c #b9b9b1",
"6. c #bbbbbb",
"7. c Gray75",
"8. c #bcbcb9",
"9. c #c1b999",
"0. c #c2beaf",
"q. c #d7c480",
"w. c #d8c78e",
"e. c #dfcb80",
"r. c #dccb84",
"t. c #d7c896",
"y. c #cbcbbc",
"u. c #c8c8b9",
"i. c #c4c4b5",
"p. c #dfd2a9",
"a. c #e0ce8a",
"s. c #e6d283",
"d. c #e6d58d",
"f. c #efd782",
"g. c #e9d68c",
"h. c #efd881",
"j. c #efd986",
"k. c #eedb8b",
"l. c #efda8e",
"z. c #efdc8b",
"x. c #efdd8f",
"c. c #efdd93",
"v. c #ebda92",
"b. c #ebdb99",
"n. c #f2dd87",
"m. c #f4de87",
"M. c #f3df8d",
"N. c #f2dc8a",
"B. c #f0dd92",
"V. c #f0dd9c",
"C. c #f1dfa1",
"Z. c #f6e38f",
"A. c #f7e58f",
"S. c #f1e08e",
"D. c #f3e192",
"F. c #f2e196",
"G. c #f5e293",
"H. c #f5e291",
"J. c #f6e592",
"K. c #f7e696",
"L. c #f4e395",
"P. c #f1e19b",
"I. c #f6e499",
"U. c #f6e59d",
"Y. c #f4e298",
"T. c #f8e691",
"R. c #f8e796",
"E. c #f9e99b",
"W. c #f9e89e",
"Q. c #ede7ba",
"!. c #f2e3a6",
"~. c #f3e5a2",
"^. c #f5e6a1",
"/. c #f7e7a6",
"(. c #f2e6ad",
"). c #f7e8a7",
"_. c #f7eaaf",
"`. c #faeaa7",
"'. c #f8eaaf",
"]. c #f9eaac",
"[. c #f5e7b2",
"{. c #f4e7bb",
"}. c #f7ebb1",
"|. c #f5eabd",
" X c #f9ebb1",
".X c #faedb7",
"XX c #f8edba",
"oX c Gray76",
"OX c #c7c7c5",
"+X c #cacaca",
"@X c #cfcfc8",
"#X c #cececd",
"$X c #cacac4",
"%X c #d9d8cc",
"&X c #d6d6d2",
"*X c #d5d5d5",
"=X c #dadad9",
"-X c #dededd",
";X c #e0e0d7",
":X c #e5e5dd",
">X c #f7eec3",
",X c #f4e9c2",
"<X c #f4eaca",
"1X c #f9efcb",
"2X c #f8efcf",
"3X c #f7efd0",
"4X c #f7efd9",
"5X c #f9f0c7",
"6X c #faf2d2",
"7X c #f9f2db",
"8X c #f9f3dc",
"9X c #e7e7e1",
"0X c #e4e4e4",
"qX c #ebebe6",
"wX c #e9e9e2",
"eX c Gray93",
"rX c #ecece8",
"tX c #f1f1ec",
"yX c #f2f2ee",
"uX c #f9f4e2",
"iX c #faf4e1",
"pX c #f9f5e5",
"aX c #faf5e5",
"sX c #faf5e7",
"dX c #faf5e6",
"fX c #faf3e5",
"gX c #faf6e9",
"hX c #fbf7ed",
"jX c #fbf8ee",
"kX c Gray94",
"lX c #f4f4f1",
"zX c #f6f6f3",
"xX c #f6f6f4",
"cX c #f6f6f6",
"vX c #f9f9f7",
"bX c #fafaf6",
"nX c #fefcf2",
"mX c #fefdf5",
"MX c #fefdf7",
"NX c #f9f9f9",
"BX c #fafaf8",
"VX c #fbfbfa",
"CX c #fcfcfb",
"ZX c #fefdf9",
"AX c #fefdfa",
"SX c #fefefb",
"DX c #fcfcf9",
"FX c #fdfdfc",
"GX c #fefefd",
"HX c Gray100",
"JX c None",
/* pixels */
"JXJXJXJXJXJXJXJXJXJXJXJXJXJXJXJXJXJXJXHXHXHXHXHXHXHXHXHXHXHXHXHXHXHXHXHXHXHXHXHXJXJXJXJXJXJXJXJX",
"JXJXJXJXJXJXJXJXJXJXJXJXJXJXJXJXJXHXHXHXHXHXHXHXHXHXHXHXHXHXHXHXHXmXHXHXHXHXHXHXHXHXJXJXJXJXJXJX",
"JXJXJXJXJXJXJXJXJXJXJXJXJXJXJXJXHXHXHXHXHXHXHXnXZXHXHXHXHXHXHXHXZXnXZXHXHXHXHXHXHXHXHXJXJXJXJXJX",
"JXJXJXJXJXJXJXJXJXJXJXJXJXJXJXHXHXHXHXHXHXHXZXmXZXHXHXHXHXHXHXHXmXmXmXHXHXHXHXHXHXHXHXHXJXJXJXJX",
"JXJXJXJXJXJXJXJXJXJXJXJXJXHXHXHXHXHXHXHXHXHXZXmXZXHXHXHXHXHXHXZXZXZXZXHXHXHXHXHXHXHXHXHXHXHXJXJX",
"JXJXJXJXJXJXJXJXJXJXJXJXJXHXHXHXHXHXHXHXHXHXmXZXZXZXHXHXHXHXHXHXHXZXZXHXHXHXHXHXHXmXHXHXHXHXJXJX",
"JXJXJXJXJXJXJXJXJXJXJXJXHXHXHXHXHXHXHXHXHXHXZXHXHXHXHXHXHXHXHXHXHXHXZXHXHXHXHXZXmXmXHXHXHXHXHXJX",
"JXJXJXJXJXJXJXJXJXJXJXHXHXHXHXHXHXHXHXHXHXHXHXHXHXHXHXHXHXHXHXHXHXHXHXHXHXHXZXZXmXZXHXHXHXHXHXHX",
"JXJXJXJXJXJXJXJXJXJXHXHXHXmXnXZXHXHXHXHXHXHXHXHXHXHXHXHXHXHXHXHXHXHXHXHXHXZXZXHXZXZXHXHXHXHXHXHX",
"JXJXJXJXJXJXJXJXJXJXHXHXHXmXmXmXmXZXHXHXHXHXHXHXHXHXHXHXHXHXHXHXHXHXHXHXHXHXHXHXZXHXHXHXHXHXHXHX",
"JXJXJXJXJXJXJXJXJXHXHXHXHXHXZXmXZXHXHXZXHXHXHXHXHXHXkX+X+X+XeXHXHXHXHXHXHXHXHXHXHXHXHXHXHXHXHXHX",
"JXJXJXJXJXJXJXJXJXHXHXHXHXHXHXZXHXHXHXHXHXHXHXeX*.f $ 1 8 w : > N oXBXHXHXHXHXHXHXHXHXHXHXHXHXHX",
"JXJXJXJXJXJXJXJXHXHXHXHXHXHXHXHXZXHXHXHXHXHXoX1 S a.x.Y.D.D.g.w.^ T k 4.HXHXHXHXHXHXHXHXHXHXHXHX",
"JXJXJXJXJXJXJXJXHXHXHXHXHXHXHXHXHXHXHXHXHX,.= 0.B.D./.'.`.R.R.U.b.o.q.; +.vXHXHXHXHXHXHXHXHXHXHX",
"JXJXJXJXJXJXJXJXHXHXHXHXHXHXHXHXHXHXHXHXoX= %Xj.l.'.5X8X6X`.W.T.J.c.s.p.c =.HXHXHXHXHXHXZXZXmXnX",
"JXJXJXJXJXJXJXHXHXHXmXnXmXZXZXHXHXHXHXBXa 2.^.m.[.uXdXjXjXjX7XE.T.Z.c.r.t.6 +XHXHXHXHXHXHXZXmXHX",
"JXJXJXJXJXJXJXHXHXHXnXmXmXZXZXHXHXHXHX4.v V.M.U.2XdXuXdXdXgXdX.XE.T.D.g.[ -.v HXHXHXHXHXZXZXHXHX",
"JXJXJXJXJXJXJXHXHXHXHXZXmXZXHXHXHXHXHX+.&.f.D.).uXdXuXdXuXdXdX>X^.J.A.S.X.' , =XHXHXHXHXHXHXHXHX",
"JXJXJXJXJXJXJXHXHXHXHXHXHXHXZXHXHXHXHXB 9.h.I.XXdXdXdXdX7XuX7X|.^.T.T.D.O./ n ,.HXHXHXHXHXHXHXHX",
"JXJXJXJXJXJXJXHXHXHXHXHXHXHXHXHXHXHXHXB 9.h.I.XXdXgXgXdXuX8X3X,X^.K.K.F.O.( F K HXHXHXHXHXHXHXHX",
"JXJXJXJXJXJXJXHXHXHXHXHXHXHXHXHXHXHXHXN :.f.D.XXdXjXgXdXgXuX<X}.^.K.I.D.s._ M =.HXHXHXHXHXHXHXHX",
"JXJXJXJXJXJXJXHXHXHXHXHXHXHXHXHXHXHXHX+.#.c.K._.dXhXdXgXhXXXXX<X~.J.K.D.O.( b >.HXHXHXHXHXHXHXHX",
"JXJXJXJXJXJXJXHXHXHXHXHXHXHXHXHXHXHXHX7.a v.N.).7XjX7XdX1X'.[.Q.P.J.D.z.} W - *XHXHXHXHXHXHXHXHX",
"JXJXJXJXJXJXJXHXHXHXHXHXHXHXvXZXHXBXHXBXZ &.n.U.6XgXdXfXXX/.(.!.L.J.v.O._ I g BXHXHXHXHXHXHXHXHX",
"JXJXJXJXJXJXJXHXHXHXHXHXHXZXBXZXCXCXCXHX-Xq l.).6XgXdX4X(.U.~.P.B.d...} ~ u >.HXHXHXHXHXHXHXHXHX",
"JXJXJXJXJXJXJXHXHXHXHXZXmXZXBXBXCXBXHXZXHX> F. X7X8X4X,X~.F.F.b.d...} ( Y 7 cXHXHXHXHXHXZXZXHXHX",
"JXJXJXJXJXJXJXJXHXHXHXZXmXZXvXBXCXCXHXHX0Xe n. X7X,X,X(.P.x.k.r.{ [ ) E r ,.HXHXHXHXHXZXZXZXZXHX",
"JXJXJXJXJXJXJXJXHXHXHXmXZXZXvXZXBXCXBXHXoXu h.{.{.C.!.F.x.s.} ] ` ! G o P BXHXHXHXHXHXZXZXmXmXHX",
"JXJXJXJXJXJXJXJXHXHXHXHXHXHXBXBXZXHXHXCXV $ 5 x l ! d.s.| ..~ U 5 O f 6.HXHXHXHXHXHXHXHXHXHXHXHX",
"JXJXJXJXJXJXJXJXJXHXHXHXHXHXBXBXCXCXCXHX4 *.4.eX=XV * R ` Q W t N =XcXHXHXHXHXHXHXHXHXHXHXHXHXHX",
"JXJXJXJXJXJXJXJXJXHXHXHXHXHXvXBXBXCXCXBX. & h $.&XcX$Xz d I m > =XHXZXHXHXHXHXHXHXHXHXHXHXHXHXHX",
"JXJXJXJXJXJXJXJXJXJXHXHXHXHXvXvXBXBXCXc ; OX<.9 $ $.oXK x O 0 6.ZXHXZXHXHXHXHXHXHXHXHXHXHXHXHXHX",
"JXJXJXJXJXJXJXJXJXJXHXHXHXHXcXvXvXkXBX* j &XHXcX@X1 p D J O eXHXBXHXCXHXHXHXHXHXHXHXHXHXHXHXHXHX",
"JXJXJXJXJXJXJXJXJXJXJXHXHXHXlXcXcXeXkX  X 1 %.-XBX3.D g y i HXHXHXBXBXHXHXZXHXHXHXHXHXHXHXHXHXHX",
"JXJXJXJXJXJXJXJXJXJXJXJXHXHXyXlXcXqX*   8.1.s O %.=.Z C # @.HXHXHXZXBXHXHXZXHXHXHXHXHXHXHXHXHXJX",
"JXJXJXJXJXJXJXJXJXJXJXJXHXHXrXyXlXcX  F oXkXkX5.j a L Z . cXBXHXBXZXBXZXZXZXZXHXHXHXHXHXHXHXHXJX",
"JXJXJXJXJXJXJXJXJXJXJXJXJXHX:XrXyXlX    t 6 3.eX#XC i h > BXBXBXBXBXBXHXZXmXZXHXHXHXHXHXHXHXJXJX",
"JXJXJXJXJXJXJXJXJXJXJXJXJXJXy.:XqXyXO   # @ 1 1 *.Z C   7 BXBXBXBXBXBXHXHXZXZXHXHXHXHXHXHXJXJXJX",
"JXJXJXJXJXJXJXJXJXJXJXJXJXJX;.y.;XqX#X    @ ; ; 9 C H   vXvXvXvXBXvXvXHXHXHXHXHXHXHXHXHXJXJXJXJX",
"JXJXJXJXJXJXJXJXJXJXJXJXJXJX;.;.;.%X9X# o # $ o 4 3 3 + cXcXcXcXcXlXlXHXHXHXHXHXHXHXJXJXJXJXJXJX",
"JXJXJXJXJXJXJXJXJXJXJXJXJXJX;.;.;.;.y.d   # * O @   =X-XlXlXlXlXlXyXyXHXHXHXHXHXHXJXJXJXJXJXJXJX",
"JXJXJXJXJXJXJXJXJXJXJXJXJXJX;.;.;.;.;.;.        O qXrXtXtXyXyXyXrXqXqXHXHXHXHXJXJXJXJXJXJXJXJXJX",
"JXJXJXJXJXJXJXJXJXJXJXJXJXJX;.;.;.;.;.;.;.;.i.y.%X;X;XwXwXwXwXwX;X;X%XHXHXJXJXJXJXJXJXJXJXJXJXJX",
"JXJXJXJXJXJXJXJXJXJXJXJXJXJX;.;.;.;.;.;.;.;.;.;.;.;.;.y.y.y.y.y.;.;.;.JXJXJXJXJXJXJXJXJXJXJXJXJX",
"JXJXJXJXJXJXJXJXJXJXJXJXJXJX;.;.;.;.;.;.;.;.;.;.;.;.;.;.;.;.;.;.;.;.;.JXJXJXJXJXJXJXJXJXJXJXJXJX",
"JXJXJXJXJXJXJXJXJXJXJXJXJXJX;.;.;.;.;.;.;.;.;.;.;.;.;.;.;.;.;.;.;.;.;.JXJXJXJXJXJXJXJXJXJXJXJXJX",
"JXJXJXJXJXJXJXJXJXJXJXJXJXJXJXJXJXJXJXJXJXJXJXJXJXJXJXJXJXJXJXJXJXJXJXJXJXJXJXJXJXJXJXJXJXJXJXJX",
"JXJXJXJXJXJXJXJXJXJXJXJXJXJXJXJXJXJXJXJXJXJXJXJXJXJXJXJXJXJXJXJXJXJXJXJXJXJXJXJXJXJXJXJXJXJXJXJX"
};
