/* XPM */
static char *magick[] = {
/* columns rows colors chars-per-pixel */
"48 48 247 2",
"   c Gray0",
".  c #020202",
"X  c #020102",
"o  c #030404",
"O  c #040303",
"+  c #070707",
"@  c #040404",
"#  c #090909",
"$  c #0b0c0c",
"%  c Gray6",
"&  c #0d0c0c",
"*  c #0e100f",
"=  c #0f1010",
"-  c #111212",
";  c #131414",
":  c #151615",
">  c #161817",
",  c #171918",
"<  c #181817",
"1  c #181919",
"2  c #1b1d1c",
"3  c #1f1f1c",
"4  c #1d201f",
"5  c #1f2120",
"6  c #221c13",
"7  c #262118",
"8  c #222122",
"9  c #222423",
"0  c #232524",
"q  c #252826",
"w  c #272a28",
"e  c #282a29",
"r  c #2a2d2b",
"t  c #2c302f",
"y  c #2f3131",
"u  c #312328",
"i  c #332e22",
"p  c #3f392d",
"a  c #323433",
"s  c #333533",
"d  c #353937",
"f  c #3c3830",
"g  c #393c3b",
"h  c #3b3f3f",
"j  c #3f3f3f",
"k  c #3d413f",
"l  c #433622",
"z  c #453e40",
"x  c #54452b",
"c  c #55462d",
"v  c #56482f",
"b  c #5c4b2f",
"n  c #574a30",
"m  c #614f31",
"M  c #655133",
"N  c #6a5533",
"B  c #685434",
"V  c #735d34",
"C  c #705a38",
"Z  c #404543",
"A  c #454947",
"S  c #474b49",
"D  c #464c4a",
"F  c #484e4b",
"G  c #4a4f4d",
"H  c #4b504e",
"J  c #4d514f",
"K  c #4c524f",
"L  c #4e5351",
"P  c #52464b",
"I  c #564b4f",
"U  c #505653",
"Y  c #515755",
"T  c #575254",
"R  c #535855",
"E  c #555a58",
"W  c #5b5055",
"Q  c #5c5156",
"!  c #59625f",
"~  c #5c615f",
"^  c #5d6361",
"/  c #655840",
"(  c #645b5e",
")  c #6e644e",
"_  c #706144",
"`  c #796741",
"'  c #7b6b4b",
"]  c #776f59",
"[  c #626765",
"{  c #626662",
"}  c #666d6a",
"|  c #686566",
" . c #686e6c",
".. c #69706e",
"X. c #727a76",
"o. c #767d7a",
"O. c #777f7c",
"+. c #7a7175",
"@. c #78807d",
"#. c #7c8381",
"$. c #7c8581",
"%. c #7d8682",
"&. c #7f8784",
"*. c #7e8884",
"=. c #89703e",
"-. c #886e44",
";. c #897042",
":. c #817350",
">. c #977944",
",. c #81797c",
"<. c #ad883f",
"1. c #9e8050",
"2. c #a3834b",
"3. c #a38453",
"4. c #b69142",
"5. c #bf984a",
"6. c #ba975e",
"7. c #b1a57f",
"8. c #c39c4f",
"9. c #cba358",
"0. c #dfb151",
"q. c #c0a16c",
"w. c #ceb263",
"e. c #cebd72",
"r. c #d4aa61",
"t. c #dcb676",
"y. c #f2bf58",
"u. c #d4c376",
"i. c #fbc75c",
"p. c #fac75e",
"a. c #f6c761",
"s. c #f2c36d",
"d. c #f4c776",
"f. c #f4c77f",
"g. c #f7cc72",
"h. c #f6cc77",
"j. c #fad16c",
"k. c #f7d37d",
"l. c #fad372",
"z. c #fad676",
"x. c #fad979",
"c. c #818a86",
"v. c #838b88",
"b. c #858e89",
"n. c #8a938f",
"m. c #8d9693",
"M. c #919b97",
"N. c #909895",
"B. c #939c98",
"V. c #959f9b",
"C. c #959f9c",
"Z. c #97a19d",
"A. c #99a39e",
"S. c #9ba4a1",
"D. c #9da7a2",
"F. c #9da8a3",
"G. c #9ea9a5",
"H. c #a1aba7",
"J. c #a2aba7",
"K. c #a2aca7",
"L. c #a3aea9",
"P. c #a4afaa",
"I. c #ada7aa",
"U. c #a6b1ac",
"Y. c #a6b2ad",
"T. c #a8b3ae",
"R. c #a9b4af",
"E. c #aab6b1",
"W. c #acb7b3",
"Q. c #acb7b1",
"!. c #aebab5",
"~. c #b3adb0",
"^. c #b0bbb7",
"/. c #b1bcb7",
"(. c #b0bbb8",
"). c #b2beb9",
"_. c #b4bfbb",
"`. c #b6c2bd",
"'. c #b9c3bf",
"]. c #b8c4be",
"[. c #b9c5c1",
"{. c #bac6c2",
"}. c #bdc8c3",
"|. c #bdc9c4",
" X c #f1dc85",
".X c #fae285",
"XX c #f9e58a",
"oX c #fae78d",
"OX c #f9e389",
"+X c #c1cdc8",
"@X c #c2cfc9",
"#X c #c1cec8",
"$X c #c9c5c7",
"%X c #cfcccd",
"&X c #ccc9ca",
"*X c #c3d1cb",
"=X c #c4d1cb",
"-X c #c5d2cd",
";X c #c7d4cf",
":X c #c8d5cf",
">X c #c8d5d0",
",X c #c9d7d2",
"<X c #cddad4",
"1X c #cddad5",
"2X c #cedcd7",
"3X c #d7d5d6",
"4X c #d1ded9",
"5X c #dcdadb",
"6X c #dddbdc",
"7X c #d2e0da",
"8X c #d3e1dc",
"9X c #d5e2dd",
"0X c #d7e5df",
"qX c #d8e7e1",
"wX c #d9e6e1",
"eX c #dbe9e3",
"rX c #dbeae4",
"tX c #dcebe5",
"yX c #deede7",
"uX c #e1dedf",
"iX c #e0eee8",
"pX c #e8e6e7",
"aX c #ebe9ea",
"sX c #eceaeb",
"dX c #eeeced",
"fX c #e2f1eb",
"gX c #e1f0ea",
"hX c #e3f2ec",
"jX c #e4f2ed",
"kX c #e6f5ef",
"lX c #e5f4ee",
"zX c #e7f6f0",
"xX c #e8f7f1",
"cX c #eaf8f2",
"vX c #ebfaf4",
"bX c #ebf8f4",
"nX c #ecfbf5",
"mX c #edfbf6",
"MX c #edfcf6",
"NX c #eefdf7",
"BX c #f1eff0",
"VX c #f4f3f3",
"CX c #f1f0f0",
"ZX c #f9f9f9",
"AX c Gray100",
"SX c #fdfdfd",
"DX c None",
/* pixels */
"DXDXDXDXDXDXDXDXDXDXDXDXDXDXDXDXDXDXDXDXDXDXDXDXDXDXDXDXDXDXDXDXDXDXDXDXDXDXDXDXDXDXDXDXDXDXDXDX",
"DXDXDXDXDXDXDXDXDXDXDXDXDXDXDXDXDXDXDXDXDXDXDXDXDXDXDXDXDXDXDXDXDXDXDXDXDXDXDXDXDXDXDXDXDXDXDXDX",
"DXDXDXDXDXDXDXDXDXDXDXDXDXDXDXDXDXDXDXDXDXDXDXDXDXDXDXDXDXDXDXDXDXDXDXDXDXDXDXDXDXDXDXDXDXDXDXDX",
"DXDXDXDXDXDXDXDXDXDXDXDXDXDXDXDXDXDXDXDXDXDXDXDXDXDXDXDXDXDXDXDXDXDXDXDXDXDXDXDXDXDXDXDXDXDXDXDX",
"DXDXDXDXDXDXDXDXDXDXDXDXDXDXDXDXDXDXDXDXDXDXDXDXDXDXDXDXDXDXDXDXDXDXDXDXDXDXDXDXDXDXDXDXDXDXDXDX",
"DXDXDXDXDXDXDXDXDXDXDXDXDXDXDXDXDXDXDXDXDXDXDXDXDXDXDXDXDXDXDXDXDXDXDXDXDXDXDXDXDXDXDXDXDXDXDXDX",
"DXDXDXDXDXDXDXDXDXDXDXDXDXDXDXDXDXDXDXDXDXDXDXDXDXDXDXDXDXDXDXDXDXDXDXDXDXDXDXDXDXDXDXDXDXDXDXDX",
"DXDXDXDXDXDXDXDXDXDXDXDXDXDXDXDXDXDXDXDXDXDXDXDXDXDXDX      DXDXDXDXDXDXDXDXDXDXDXDXDXDXDXDXDXDX",
"DXDXDXDXDXDXDXDXDXDXDXDXDXDXDXDXDXDXDXDXDXDXDXDXDX            DXDXDXDXDXDXDXDXDXDXDXDXDXDXDXDXDX",
"DXDXDXDXDXDXDXDXDXDXDXDXDXDXDXDXDXDXDXDXDXDXDX      X.yXqX2     DXDXDXDXDXDXDXDXDXDXDXDXDXDXDXDX",
"DXDXDXDXDXDXDXDXDXDXDXDXDXDXDXDXDXDXDXDXDXDX      '.NXyXyX-X      DXDXDXDXDXDXDXDXDXDXDXDXDXDXDX",
"DXDXDXDXDXDXDXDXDXDXDXDXDXDXDXDXDXDXDXDXDX      cXNXNXtXyX2XS   @ DXDXDXDXDXDXDXDXDXDXDXDXDXDXDX",
"DXDXDXDXDXDXDXDXDXDXDXDXDXDXDXDXDXDXDXDXDX    NXNXNXNXtXyX<XZ.    AXDXDXDXDXDXDXDXDXDXDXDXDXDXDX",
"DXDXDXDXDXDXDXDXDXDXDXDXDXDXDXDXDXDXDXDX    a NXNXNXNXjXtX4XW.    j             DXDXDXDXDXDXDXDX",
"DXDXDXDXDXDXDXDXDXDX              DXDXDX    nXNXNXNXNXvXgX9XU.      @ ; > ;           DXDXDXDXDX",
"DXDXDXDXDXDXDXDXDX    5 : h 1 -             NXiXA.} E N.tXlXG w $.`.NXNXgXyX2X4X>X:     DXDXDXDX",
"DXDXDXDXDXDXDXDXDX    gXlX0X7X4XU.$.t q      .6 p q.t._ - A qXNXvXxXNXNXcXeXeX>X7X2X  @ DXDXDXDX",
"DXDXDXDXDXDXDXDXDX    NXNXNXnXxXgXjXtXrX*X4 ;.l..XOXXXg.d.] 1 :X4X-X0XtXyX<X7X2X`.P.  # AXDXDXDX",
"DXDXDXDXDXDXDXDXDX    S.rXzXNXNXNXNXNXvXa ' z.oXoXoXoXx.i.9.) k }.>X@X).E.`.E.U.Z.9   u AXDXDXDX",
"DXDXDXDXDXDXDXDXDXDX    k 9XjXNXNXNXNX^ / k.oXoXoXoX.Xi.i.r.3.3 '._.}.`.T.E.G.b.,     W AXDXDXDX",
"DXDXDXDXDXDXDXDXDXDXDX      @.xXNXNXNXs f.XXoXoXoXoXj.i.s.6.-.n c.Z.v.S.&.b.[       z 6XAXDXDXDX",
"DXDXDXDXDXDXDXDXDXDXDXDXDX%   # c.lXNX{ h.oXoXoXoXz.i.y.8.1.M l } b.$.M.O.:       8 pXAXAXDXDXDX",
"DXDXDXDXDXDXDXDXDXDXDXDXDXDXAX@   8 _.L 7. XoXoXXXa.0.5.2.B c 7 ! A J 1         | AXAXAXDXDXDXDX",
"DXDXDXDXDXDXDXDXDXDXDXDXDX    0 $.NXNXG.@ :.e.u.w.4.<.>.C l x H @           # aXAXAXAXDXDXDXDXDX",
"DXDXDXDXDXDXDXDXDXDXDX    2 ;XNXNXNXNXNXC.@ i ` =.V N m b x s &.@.@.S       # AXAXAXDXDXDXDXDXDX",
"DXDXDXDXDXDXDXDXDX      A.NXNXNXNXNXNXNXNXjXU.F 2 : x v f U O.@.@.O.$.v.D o       DXDXDXDXDXDXDX",
"DXDXDXDXDXDXDXDX    r iXNXNXNXNXNXNXNXnXgXzXNXxXiXtX<XR.G.N.D.$.#.c.m.n.m.U.U       DXDXDXDXDXDX",
"DXDXDXDXDXDXDX    ~ NXNXNXNXnXNXnXgX>X@X7X..cXNXnXxXhXiX@X(.G.J.E.W.U.).R.A.K.X.      DXDXDXDXDX",
"DXDXDXDXDXDXDX  1 nXxXlXcXNXtXtXeX@X).@XZ   T.NXNXnXtXtXG V.|.|.|.{.{.{.|.).*XW.V.      DXDXDXDX",
"DXDXDXDXDXDXDX  U vXzXlX0X;X-X^.{.`.E.<     <XNXvXgX4X<X    y :X7X>X>X4X^.W.-X{.G.e   @ DXDXDXDX",
"DXDXDXDXDXDXDX  = iXyXqX=X{.T.U.b.;         xXvXeXiX9XU.0       g !.8X<X{.U.-X|.P.$.    AXDXDXDX",
"DXDXDXDXDXDXDXDX    * d a y %         O I   NXlXlXqX4X/.F     AXO   - F.qX;X<X].!.5     AXDXDXDX",
"DXDXDXDXDXDXDXDXDX                % +.sXAX  vXqXiXyX@XU.O.    AXAXAX#     0 $.R $     T AXAXDXDX",
"DXDXDXDXDXDXDXDXDXDXAXAXBX$X&X%XCXAXAXAXAX  NXyX7XgX2XA.E     AXAXDXDXAXdX        @ P uXAXDXDXDX",
"DXDXDXDXDXDXDXDXDXDXDXDXAXAXAXAXAXAXDXDXDX  lXxX0X<X9XB.J     AXAXDXDXDXDXAXAX5X,.I.VXAXAXDXDXDX",
"DXDXDXDXDXDXDXDXDXDXDXDXDXDXDXDXDXDXDXDXDX  R lXqX4X@XJ.e   @ AXAXDXDXDXDXDXDXDXAXAXAXDXDXDXDXDX",
"DXDXDXDXDXDXDXDXDXDXDXDXDXDXDXDXDXDXDXDXDX    iXtX@XJ.L.@   1 AXAXDXDXDXDXDXDXDXDXDXDXDXDXDXDXDX",
"DXDXDXDXDXDXDXDXDXDXDXDXDXDXDXDXDXDXDXDXDXDX  - 4X=XS.L     3XAXDXDXDXDXDXDXDXDXDXDXDXDXDXDXDXDX",
"DXDXDXDXDXDXDXDXDXDXDXDXDXDXDXDXDXDXDXDXDXDXDX    : @     Q ZXAXDXDXDXDXDXDXDXDXDXDXDXDXDXDXDXDX",
"DXDXDXDXDXDXDXDXDXDXDXDXDXDXDXDXDXDXDXDXDXDXDXDX@ o   @ ( ~.AXAXDXDXDXDXDXDXDXDXDXDXDXDXDXDXDXDX",
"DXDXDXDXDXDXDXDXDXDXDXDXDXDXDXDXDXDXDXDXDXDXDXDXDXAXAXaXZXAXAXDXDXDXDXDXDXDXDXDXDXDXDXDXDXDXDXDX",
"DXDXDXDXDXDXDXDXDXDXDXDXDXDXDXDXDXDXDXDXDXDXDXDXDXDXDXAXAXDXDXDXDXDXDXDXDXDXDXDXDXDXDXDXDXDXDXDX",
"DXDXDXDXDXDXDXDXDXDXDXDXDXDXDXDXDXDXDXDXDXDXDXDXDXDXDXDXDXDXDXDXDXDXDXDXDXDXDXDXDXDXDXDXDXDXDXDX",
"DXDXDXDXDXDXDXDXDXDXDXDXDXDXDXDXDXDXDXDXDXDXDXDXDXDXDXDXDXDXDXDXDXDXDXDXDXDXDXDXDXDXDXDXDXDXDXDX",
"DXDXDXDXDXDXDXDXDXDXDXDXDXDXDXDXDXDXDXDXDXDXDXDXDXDXDXDXDXDXDXDXDXDXDXDXDXDXDXDXDXDXDXDXDXDXDXDX",
"DXDXDXDXDXDXDXDXDXDXDXDXDXDXDXDXDXDXDXDXDXDXDXDXDXDXDXDXDXDXDXDXDXDXDXDXDXDXDXDXDXDXDXDXDXDXDXDX",
"DXDXDXDXDXDXDXDXDXDXDXDXDXDXDXDXDXDXDXDXDXDXDXDXDXDXDXDXDXDXDXDXDXDXDXDXDXDXDXDXDXDXDXDXDXDXDXDX",
"DXDXDXDXDXDXDXDXDXDXDXDXDXDXDXDXDXDXDXDXDXDXDXDXDXDXDXDXDXDXDXDXDXDXDXDXDXDXDXDXDXDXDXDXDXDXDXDX"
};
