/* XPM */
static char *magick[] = {
/* columns rows colors chars-per-pixel */
"48 48 227 2",
"   c Gray0",
".  c #020100",
"X  c #020202",
"o  c #020200",
"O  c #040300",
"+  c #050400",
"@  c #070400",
"#  c #040404",
"$  c #060606",
"%  c #090701",
"&  c #0e0302",
"*  c #0d0403",
"=  c #0b0900",
"-  c #0e0b00",
";  c #090909",
":  c #0b0b0b",
">  c Gray6",
",  c #170402",
"<  c #100d01",
"1  c #130f01",
"2  c #1c0705",
"3  c #151001",
"4  c #191300",
"5  c #1d1602",
"6  c #1e1702",
"7  c #161616",
"8  c #111111",
"9  c #210705",
"0  c #230705",
"q  c #260806",
"w  c #2b0a07",
"e  c #2c0805",
"r  c #2e0805",
"t  c #2e0906",
"y  c #2e0a08",
"u  c #251d03",
"i  c #271e02",
"p  c #3b0b07",
"a  c #3b0c09",
"s  c #3d0c09",
"d  c #3e0c08",
"f  c #292003",
"g  c #2c2303",
"h  c #312605",
"j  c #332704",
"k  c #382c05",
"l  c #3c2e05",
"z  c Gray17",
"x  c #410c07",
"c  c #420c07",
"v  c #420d08",
"b  c #440e09",
"n  c #470e09",
"m  c #450e0a",
"M  c #490d07",
"N  c #4d0d07",
"B  c #490e09",
"V  c #490e0a",
"C  c #4d100c",
"Z  c #520e07",
"A  c #571109",
"S  c #5a120d",
"D  c #5d110b",
"F  c #5e110a",
"G  c #5c120d",
"H  c #5e120c",
"J  c #403105",
"K  c #413206",
"L  c #423305",
"P  c #453506",
"I  c #4b3a07",
"U  c #4e3d06",
"Y  c #513f07",
"T  c #60120b",
"R  c #631109",
"E  c #61130e",
"W  c #641209",
"Q  c #6a130b",
"!  c #6e130a",
"~  c #6f140b",
"^  c #6d160e",
"/  c #6e150c",
"(  c #71150d",
")  c #73150c",
"_  c #73160e",
"`  c #77150c",
"'  c #78150b",
"]  c #78150c",
"[  c #731711",
"{  c #7a1710",
"}  c #7b1912",
"|  c #781812",
" . c #524007",
".. c #675009",
"X. c #69520a",
"o. c #71570a",
"O. c #745a0c",
"+. c #7a6109",
"@. c #7c610c",
"#. c #85170c",
"$. c #86180d",
"%. c #8a190f",
"&. c #8a180c",
"*. c #801a13",
"=. c #801810",
"-. c #861910",
";. c #871b13",
":. c #851b14",
">. c #881a11",
",. c #8b1c15",
"<. c #8d1b12",
"1. c #8f1b10",
"2. c #8c1c14",
"3. c #901a0f",
"4. c #921a0e",
"5. c #9b1b0e",
"6. c #9a1c0f",
"7. c #931b10",
"8. c #901e12",
"9. c #971e15",
"0. c #991d13",
"q. c #981d14",
"w. c #991f16",
"e. c #9a1f15",
"r. c #9b1f17",
"t. c #9d1e12",
"y. c #9f1d11",
"u. c #9f1e13",
"i. c #9d1f15",
"p. c #9c1f16",
"a. c #9e1e14",
"s. c #a01d0f",
"d. c #a31d0f",
"f. c #a71d0f",
"g. c #a41c0e",
"h. c #a91d0f",
"j. c #a11d11",
"k. c #a21d10",
"l. c #a01e12",
"z. c #b31f0f",
"x. c #b21f10",
"c. c #b9200f",
"v. c #b72010",
"b. c #ba2010",
"n. c #bd2111",
"m. c #bf2212",
"M. c #ab4216",
"N. c #b14010",
"B. c #b95b13",
"V. c #bb5b11",
"C. c #bf6f16",
"Z. c #924f48",
"A. c #c62210",
"S. c #c82312",
"D. c #ca2310",
"F. c #cd2513",
"G. c #d12412",
"H. c #d22411",
"J. c #d22614",
"K. c #d52511",
"L. c #d42513",
"P. c #d92613",
"I. c #db2612",
"U. c #d82715",
"Y. c #dc2613",
"T. c #de2612",
"R. c #e02712",
"E. c #e32713",
"W. c #e62712",
"Q. c #e42e1a",
"!. c #eb2713",
"~. c #eb2812",
"^. c #ea2915",
"/. c #e92915",
"(. c #ec2913",
"). c #ee2913",
"_. c #ed2914",
"`. c #ef2914",
"'. c #ec2a16",
"]. c #f12912",
"[. c #f32912",
"{. c #f52913",
"}. c #f52a13",
"|. c #f72913",
" X c #f42914",
".X c #f62b14",
"XX c #f42a14",
"oX c #c16916",
"OX c #c26f12",
"+X c #c16f14",
"@X c #c56b12",
"#X c #c57e16",
"$X c #c77e14",
"%X c #c87e14",
"&X c #b9930e",
"*X c #bd9312",
"=X c #c98517",
"-X c #cb8617",
";X c #cd8713",
":X c #cc8615",
">X c #cb8914",
",X c #cf8812",
"<X c #cf8c12",
"1X c #c39b0f",
"2X c #c49813",
"3X c #c79a14",
"4X c #cb9e13",
"5X c #d18912",
"6X c #d28814",
"7X c #d08c13",
"8X c #d7a816",
"9X c #d7a81a",
"0X c #d8a51c",
"qX c #dbaa17",
"wX c #dcab15",
"eX c #dcae11",
"rX c #deac13",
"tX c #d8a919",
"yX c #d8a91a",
"uX c #d9aa19",
"iX c #dfb112",
"pX c #e0ad11",
"aX c #e1ae12",
"sX c #e0ae14",
"dX c #e0b213",
"fX c #808080",
"gX c None",
/* pixels */
"gXgXgXgXgXgXgXgXgXgXgXgXgXgXgXgXgXgXgXgXgXgXgXgXgXgXgXgXgXgXgXgXgXgXgXgXgXgXgXgXgXgXgXgXgXgXgXgX",
"gXgXgXgXgXgXgXgXgXgXgXgXgXgXgXgXgXgXgXgXgXgXgXgXgXgXgXgXgXgXgXgXgXgXgXgXgXgXgXgXgXgXgXgXgXgXgXgX",
"gXgXgXgXgXgXgXgXgXgXgXgXgXgXgXgXgXgXgXgXgXgXgXgXgXgXgXgXgXgXgXgXgXgXgXgXgXgXgXgXgXgXgXgXgXgXgXgX",
"gXgXgXgXgXgXgXgXgXgXgXgXgXgXgXgXgXgXgXgXgXgXgXgXgXgXgXgXgXgXgXgXgXgXgXgXgXgXgXgXgXgXgXgXgXgXgXgX",
"gXgXgXgXgXgXgXgXgXgXgXgXgXgXgXgXgXgXgXgXgXgXgXgXgXgXgXgXgXgXgXgXgXgXgXgXgXgXgXgXgXgXgXgXgXgXgXgX",
"gXgXgXgXgXgXgXgXgXgXgXgXgXgXgXgXgXgXgXgXgXgXgXgXgXgXgXgXgXgXgXgXgXgXgXgXgXgXgXgXgXgXgXgXgXgXgXgX",
"gXgXgXgXgXgXgXgXgXgXgXgXgXgXgXgXgXgXgXgXgXgXgXgXgXgXgXgXgXgXgXgXgXgXgXgXgXgXgXgXgXgXgXgXgXgXgXgX",
"gXgXgXgXgXgXgXgXgXgXgXgXgXgXgXgXgXgXgXgXgXgXgXgX).XXA.8.fXgXgXgXgXgXgXgXgXgXgXgXgXgXgXgXgXgXgXgX",
"gXgXgXgXgXgXgXgXgXgXgXgXgXgXgXgXgXgXgXgXgXgXgX).XXH.f.#.    gXgXgXgXgXgXgXgXgXgXgXgXgXgXgXgXgXgX",
"gXgXgXgXgXgXgXgXgXgXgXgXgXgXgXgXgXgXgXgXgXgXf.{.K.f.d.5.W     gXgXgXgXgXgXgXgXgXgXgXgXgXgXgXgXgX",
"gXgXgXgXgXgXgXgXgXgXgXgXgXgXgXgXgXgXgXgXgXf.{.R.z.d.d.d.&.r 8   gXgXgXgXgXgXgXgXgXgXgXgXgXgXgXgX",
"gXgXgXgXgXgXgXgXgXgXgXgXgXgXgXgXgXgXgXgXgX~.~.c.f.f.N.f.6.R     gXgXgXgXgXgXgXgXgXgXgXgXgXgXgXgX",
"gXgXgXgXgXgXgXgXgXgXgXgXgXgXgXgXgXgXgXgXf.{.D.f.f.V.OXd.d.4.p     gXgXgXgXgXgXgXgXgXgXgXgXgXgXgX",
"gXgXgXgXgXgXgXgXgXgXgXgXgXgXgXgXgXgXgXf.{.I.f.d.f.pXiXd.d.d.`       gXgXgXgXgXgXgXgXgXgXgXgXgXgX",
"gXgXgXgXgXgXgXgXgXgXgXgXgXgXgXgXgXgXgX~.).v.d.d.pXiXiX6Xd.y.4.N     gXgXgXgXgXgXgXgXgXgXgXgXgXgX",
"gXgXgXgXgXgXgXgXgXgXgXgXgXgXgXgXgXgXf.{.D.d.f.@XiXiXiXiXk.k.y.)       gXgXgXgXgXgXgXgXgXgXgXgXgX",
"gXgXgXgXgXgXgXgXgXgXgXgXgXgXgXgXgXf.{.T.f.d.d.pXrX&XrXrX,Xk.y.4.M     gXgXgXgXgXgXgXgXgXgXgXgXgX",
"gXgXgXgXgXgXgXgXgXgXgXgXgXgXgXgXgXW.`.b.f.d.5X1X  - J rXrXk.k.y.)       gXgXgXgXgXgXgXgXgXgXgXgX",
"gXgXgXgXgXgXgXgXgXgXgXgXgXgXgXgXf.[.H.f.d.f.iX+.@ 1   rXrX;Xk.y.4.V     gXgXgXgXgXgXgXgXgXgXgXgX",
"gXgXgXgXgXgXgXgXgXgXgXgXgXgXgXgX~./.x.d.f.dXiXg     4 rXrXwXk.k.y.)       gXgXgXgXgXgXgXgXgXgXgX",
"gXgXgXgXgXgXgXgXgXgXgXgXgXgXgXf.{.D.d.f.6XiXiXi   O f rXwXwX;Xk.y.<.V     gXgXgXgXgXgXgXgXgXgXgX",
"gXgXgXgXgXgXgXgXgXgXgXgXgXgXf.[.T.f.f.d.iXiXiXi   5 J wXwXwXqXk.y.y.)       gXgXgXgXgXgXgXgXgXgX",
"gXgXgXgXgXgXgXgXgXgXgXgXgXgX! `.n.f.d.<XiXiXrXU   J P wXwXwXqX:Xk.y.>.m     gXgXgXgXgXgXgXgXgXgX",
"gXgXgXgXgXgXgXgXgXgXgXgXgXf. XI.f.d.d.iXiXiXrX5   i J wXwXqXqXqXk.y.0.F       gXgXgXgXgXgXgXgXgX",
"gXgXgXgXgXgXgXgXgXgXgXgXgXR./.v.f.d.dXiXiXrXrX%   = i wXqXqXqXqX:Xy.y.;.r     gXgXgXgXgXgXgXgXgX",
"gXgXgXgXgXgXgXgXgXgXgXgXf.`.K.f.d.6XiXiXrXrXrX@ 1 = j qXqXqXqXqXqXy.u.9.D   7   gXgXgXgXgXgXgXgX",
"gXgXgXgXgXgXgXgXgXgXgXgXQ./.v.d.d.iXiXrXrXrXrX@ 1    .qXqXqXqXqXqX:Xu.w.{ 2     gXgXgXgXgXgXgXgX",
"gXgXgXgXgXgXgXgXgXgXgXf.`.K.d.d.<XiXrXrXrXrXwXk Y 3 o.qXqXqXqXqXqXtXu.u.<.V     gXgXgXgXgXgXgXgX",
"gXgXgXgXgXgXgXgXgXgXgXQ./.v.d.d.iXrXrXrXrXwXwX*X..j 3XqXqXqXqXqXtXtX=Xu.w.^       gXgXgXgXgXgXgX",
"gXgXgXgXgXgXgXgXgXgXf.`.K.d.d.7XiXrXrXrXwXwXwXwXqXqXqXqXqXqXqXqXtXtXtXu.w.;.m     gXgXgXgXgXgXgX",
"gXgXgXgXgXgXgXgXgXgXQ./.v.d.d.iXrXrXrXwXwXwXwX4Xi i 2XqXqXqXqXtXtXtX9XoXu.9.D $     gXgXgXgXgXgX",
"gXgXgXgXgXgXgXgXgXf.`.J.d.d.<XrXrXrXrXwXwXwXqXI     X.qXqXqXtXtXtXtX9X=Xu.w.| w     gXgXgXgXgXgX",
"gXgXgXgXgXgXgXgXgXZ.`.v.d.d.rXrXwXrXwXwXwXwXqXl O % O.qXqXtXtXtXtX9X9X9Xi.u.,.m $   gXgXgXgXgXgX",
"gXgXgXgXgXgXgXgXf.!.U.d.d.$XsXrXwXqXwXwXwXqXqX*Xj @.8XqXtXtXtXtX9X9X9X9XC.w.w.T   :   gXgXgXgXgX",
"gXgXgXgXgXgXgXgX~ /.n.d.k.k.k.k.k.k.k.B.+X$X>XqXqXtXqXtXtXtXtXtX9X9XtX0X$XM.w.| q   z gXgXgXgXgX",
"gXgXgXgXgXgXgXgXc F.d.d.k.k.k.k.k.k.k.k.k.k.y.y.y.y.y.u.u.u.i.i.u.u.u.u.i.i.r.,.m       gXgXgXgX",
"gXgXgXgXgXgXgXgX, ] Z ^ ~ ] $.&.7.y.y.k.l.l.u.u.y.u.u.u.u.i.i.i.u.r.i.i.i.r.r.r.S       gXgXgXgX",
"gXgXgXgXgXgXgXgX  $     & 0 r c v A D T ^ ) ) ` =.>.>.>.>.;.;.;.:.:.:.:.:.:.*.[ C   $   gXgXgXgX",
"gXgXgXgXgXgXgXgX                        * 0 9 9 9 v s s s s s s s s s s s s a y 2       gXgXgXgX",
"gXgXgXgXgXgXgXgX            # # #   # #             #       #     #         #           gXgXgXgX",
"gXgXgXgXgXgXgXgXgX        > ;         $ $             $               $           $     gXgXgXgX",
"gXgXgXgXgXgXgXgXgXgXgXgXgX                    ; ; ;                                     gXgXgXgX",
"gXgXgXgXgXgXgXgXgXgXgXgXgXgXgXgXgXgXgXgXgX                                          gXgXgXgXgXgX",
"gXgXgXgXgXgXgXgXgXgXgXgXgXgXgXgXgXgXgXgXgXgXgXgXgXgXgXgXgXgXgXgXgXgXgXgXgXgXgXgXgXgXgXgXgXgXgXgX",
"gXgXgXgXgXgXgXgXgXgXgXgXgXgXgXgXgXgXgXgXgXgXgXgXgXgXgXgXgXgXgXgXgXgXgXgXgXgXgXgXgXgXgXgXgXgXgXgX",
"gXgXgXgXgXgXgXgXgXgXgXgXgXgXgXgXgXgXgXgXgXgXgXgXgXgXgXgXgXgXgXgXgXgXgXgXgXgXgXgXgXgXgXgXgXgXgXgX",
"gXgXgXgXgXgXgXgXgXgXgXgXgXgXgXgXgXgXgXgXgXgXgXgXgXgXgXgXgXgXgXgXgXgXgXgXgXgXgXgXgXgXgXgXgXgXgXgX",
"gXgXgXgXgXgXgXgXgXgXgXgXgXgXgXgXgXgXgXgXgXgXgXgXgXgXgXgXgXgXgXgXgXgXgXgXgXgXgXgXgXgXgXgXgXgXgXgX"
};
