/* XPM */
static char *magick[] = {
/* columns rows colors chars-per-pixel */
"48 48 255 2",
"   c Gray0",
".  c #020303",
"X  c #010202",
"o  c #030404",
"O  c #070302",
"+  c Gray2",
"@  c #060707",
"#  c #070909",
"$  c #0d0404",
"%  c #090909",
"&  c #0b0b0b",
"*  c #0c0d0d",
"=  c #0d0f10",
"-  c #160706",
";  c #120504",
":  c #1d0907",
">  c #1e0a08",
",  c #180908",
"<  c Gray7",
"1  c Gray9",
"2  c #1d1d1d",
"3  c #191919",
"4  c #270d0b",
"5  c #240b0a",
"6  c #2c0e0c",
"7  c #320e0a",
"8  c #3a0f0b",
"9  c #37110e",
"0  c #33100e",
"q  c #3d130f",
"w  c #361210",
"e  c Gray14",
"r  c #2d2d2d",
"t  c #323232",
"y  c #3f3f3f",
"u  c Gray22",
"i  c #41130f",
"p  c #401411",
"a  c #4d1712",
"s  c #4e1915",
"d  c #4e1813",
"f  c #571b15",
"g  c #591710",
"h  c #5b1a13",
"j  c #581b16",
"k  c #581c17",
"l  c #5c1f1b",
"z  c #6e190f",
"x  c #671c16",
"c  c #6b1b12",
"v  c #6b1e17",
"b  c #791e15",
"n  c #66221d",
"m  c #6c231e",
"M  c #7d231c",
"N  c #742620",
"B  c #772822",
"V  c #7f2821",
"C  c Gray33",
"Z  c #484848",
"A  c #656565",
"S  c Gray",
"D  c #951f12",
"F  c #981f11",
"G  c #84251c",
"H  c #87281e",
"J  c #8a2217",
"K  c #8c261d",
"L  c #89291f",
"P  c #952417",
"I  c #962011",
"U  c #91251a",
"Y  c #96251a",
"T  c #902a1f",
"R  c #96291f",
"E  c #9b2013",
"W  c #9d2315",
"Q  c #9c2213",
"!  c #99271b",
"~  c #9c271a",
"^  c #98271c",
"/  c #9a291e",
"(  c #9e291e",
")  c #832b24",
"_  c #842b25",
"`  c #8b2c26",
"'  c #8f2b23",
"]  c #8a2a23",
"[  c #8e2f28",
"{  c #8f3832",
"}  c #962c23",
"|  c #962e26",
" . c #922b23",
".. c #992b20",
"X. c #992c22",
"o. c #982d25",
"O. c #9e2d22",
"+. c #9f2f25",
"@. c #9d2f25",
"#. c #9e2b21",
"$. c #953029",
"%. c #92332c",
"&. c #9e3027",
"*. c #9a312a",
"=. c #9d332a",
"-. c #9f332a",
";. c #9e3129",
":. c #9e3b33",
">. c #a32313",
",. c #a12314",
"<. c #a52212",
"1. c #a72415",
"2. c #a72516",
"3. c #a62617",
"4. c #a02416",
"5. c #a22619",
"6. c #a62718",
"7. c #a52719",
"8. c #a3281b",
"9. c #a32b1f",
"0. c #a1291e",
"q. c #a5281b",
"w. c #a4291c",
"e. c #a42a1d",
"r. c #a42b1e",
"t. c #a92110",
"y. c #a92211",
"u. c #a82312",
"i. c #ab2313",
"p. c #a82314",
"a. c #ad2211",
"s. c #af2413",
"d. c #a92414",
"f. c #aa2719",
"g. c #aa291b",
"h. c #a9291c",
"j. c #ad291b",
"k. c #ad2b1d",
"l. c #b22311",
"z. c #b12615",
"x. c #b52615",
"c. c #b62412",
"v. c #b12718",
"b. c #b52a1b",
"n. c #bb2513",
"m. c #bc2513",
"M. c #bd2b1a",
"N. c #bc2c1c",
"B. c #a02b20",
"V. c #a02d22",
"C. c #a32c21",
"Z. c #a12d22",
"A. c #a12f25",
"S. c #a22e24",
"D. c #aa2f20",
"F. c #a13027",
"G. c #a03229",
"H. c #a03128",
"J. c #a3362c",
"K. c #a73a2f",
"L. c #a3382e",
"P. c #ab3326",
"I. c #ab3225",
"U. c #ac3122",
"Y. c #aa3427",
"T. c #a9362b",
"R. c #aa3529",
"E. c #a9372c",
"W. c #a93f2f",
"Q. c #a8382e",
"!. c #a63b31",
"~. c #a43d35",
"^. c #af3f33",
"/. c #c32613",
"(. c #c32714",
"). c #c72816",
"_. c #c72d1c",
"`. c #ce2f1c",
"'. c #d32914",
"]. c #d32913",
"[. c #d02e1b",
"{. c #db2b15",
"}. c #df301c",
"|. c #ec2e16",
" X c #e22b15",
".X c #ea311b",
"XX c #e9331d",
"oX c #ee311b",
"OX c #e7361b",
"+X c #f2321a",
"@X c #f7321b",
"#X c #f6361b",
"$X c #f6381c",
"%X c #fe3217",
"&X c #fe3517",
"*X c #fe3319",
"=X c #fb3319",
"-X c #fd391a",
";X c #ff3f1b",
":X c #ff3d1d",
">X c #fa3d1b",
",X c #c1782e",
"<X c #ff401e",
"1X c #d48d1d",
"2X c #cd8622",
"3X c #c18138",
"4X c #c79d37",
"5X c #c59c39",
"6X c #cb9d31",
"7X c #cc9e31",
"8X c #c99d32",
"9X c #cba037",
"0X c #cfa337",
"qX c #cfa338",
"wX c #cfa53e",
"eX c #d5a82e",
"rX c #dbac2e",
"tX c #ddac2a",
"yX c #dead29",
"uX c #dfae28",
"iX c #dcac2d",
"pX c #d1a232",
"aX c #d3a433",
"sX c #d2a436",
"dX c #d7a734",
"fX c #d4a637",
"gX c #d5a533",
"hX c #d3a639",
"jX c #d1a53c",
"kX c #d0a53f",
"lX c #d8a733",
"zX c #d9a832",
"xX c #d9ac32",
"cX c #dfad36",
"vX c #dbaf3a",
"bX c #dbad3f",
"nX c #d9ab3e",
"mX c #dfb136",
"MX c #ddb03a",
"NX c #e3af22",
"BX c #e0ad25",
"VX c #e1ae24",
"CX c #e4af21",
"ZX c #e1b233",
"AX c #cfa540",
"SX c #d3aa47",
"DX c #d5ab43",
"FX c #d4aa44",
"GX c #d2aa48",
"HX c #d8ac40",
"JX c #dfb445",
"KX c #fbfbfb",
"LX c #fdfdfd",
"PX c Gray100",
"IX c None",
/* pixels */
"IXIXIXIXIXIXIXIXIXIXIXIXIXIXIXIXIXIXIXIXIXIXIXIXIXIXIXIXIXIXIXIXIXIXIXIXIXIXIXIXIXIXIXIXIXIXIXIX",
"IXIXIXIXIXIXIXIXIXIXIXIXIXIXIXIXIXIXIXIXIXIXIXIXIXIXIXIXIXIXIXIXIXIXIXIXIXIXIXIXIXIXIXIXIXIXIXIX",
"IXIXIXIXIXIXIXIXIXIXIXIXIXIXIXIXIXIXIXIXIXIXIXIXIXIXIXIXIXIXIXIXIXIXIXIXIXIXIXIXIXIXIXIXIXIXIXIX",
"IXIXIXIXIXIXIXIXIXIXIXIXIXIXIXIXIXIXIXIXIXIXIXIXIXIXIXIXIXIXIXIXIXIXIXIXIXIXIXIXIXIXIXIXIXIXIXIX",
"IXIXIXIXIXIXIXIXIXIXIXIXIXIXIXIXIXIXIXIXIXIXIXIXIXIXIXIXIXIXIXIXIXIXIXIXIXIXIXIXIXIXIXIXIXIXIXIX",
"IXIXIXIXIXIXIXIXIXIXIXIXIXIXIXIXIXIXIXIXIXIXIXIXIXIXIXIXIXIXIXIXIXIXIXIXIXIXIXIXIXIXIXIXIXIXIXIX",
"IXIXIXIXIXIXIXIXIXIXIXIXIXIXIXIXIXIXIXIXIXIXIXIXIXIXIXIXIXIXIXIXIXIXIXIXIXIXIXIXIXIXIXIXIXIXIXIX",
"IXIXIXIXIXIXIXIXIXIXIXIXIXIXIXIXIXIXIXIXIXIXIXIXIXIXIXIXIXIXIXIXIXIXIXIXIXIXIXIXIXIXIXIXIXIXIXIX",
"IXIXIXIXIXIXIXIXIXIXIXIXIXIXIXIXIXIX:X-X*X=X+XoX.X.XXXXXXX  IXIXIXIXIXIXIXIXIXIXIXIXIXIXIXIXIXIX",
"IXIXIXIXIXIXIXIXIXIXIXIXIXIXIX:X-X*X|.'./.n.x.z.z.z.x.M._.`.`.M.  IXIXIXIXIXIXIXIXIXIXIXIXIXIXIX",
"IXIXIXIXIXIXIXIXIXIXIXIXIXIX-X%X{./.l.s.t.t.<.D I ,.1.1.f.f.b.N.b.    IXIXIXIXIXIXIXIXIXIXIXIXIX",
"IXIXIXIXIXIXIXIXIXIXIXIX;X&X|./.l.a.t.t.t.<.Q >.1.1.1.1.5.6.6.h.j.h.J   IXIXIXIXIXIXIXIXIXIXIXIX",
"IXIXIXIXIXIXIXIXIXIXIX>X%X{.n.a.t.t.t.<.<.I ,.1.1.6.1.6.6.6.5.q.w.h.w.b     IXIXIXIXIXIXIXIXIXIX",
"IXIXIXIXIXIXIXIXIXIX>X&X].l.t.t.t.t.t.p.>.E <.1.1.1.6.P.P.q.q.q.8.w.w.^ g     IXIXIXIXIXIXIXIXIX",
"IXIXIXIXIXIXIXIXIX<X&X].l.t.t.t.t.t.p.1.1.1.W 4.1.6.6.6.Y.Y.q.w./ 8.8.( G >   IXIXIXIXIXIXIXIXIX",
"IXIXIXIXIXIXIXIXIX-X Xc.t.t.<.t.p.p.U.U.1.1.1.W P 5.6.q.q.T.T.T.w.w.( C./ x =   IXIXIXIXIXIXIXIX",
"IXIXIXIXIXIXIXIX>X%Xm.a.t.t.t.t.D.D.1.U.U.1.6.6.5.P ~ q.w.w.w.T.T.8.C.C.#.K 9 *   IXIXIXIXIXIXIX",
"IXIXIXIXIXIXIXIX=X'.a.t.t.u.p.p.D O.U.1.P.P.6.6.q.5.P Y 8.w.w.w.E.Q.C.C.O.} h o     IXIXIXIXIXIX",
"IXIXIXIXIXIXIXOX=Xn.t.t.<.E 1.1.W 1.1.P.P.P.P.q.q.q.8.U U ~ C.8.C.Q.K.C.C.X.M , <   IXIXIXIXIXIX",
"IXIXIXIXIXIXIX$X{.s.<.u.<.E 1.1.1.1.6.6.P.P.^.T.w.w.w.8.! U / C.C.C.K.W.C.O.L 7 *   IXIXIXIXIXIX",
"IXIXIXIXIXIX  #X).u.1XCXCXNXBXBXBXuXuXuXtXtXMXJXMXrXzXxXlXpX8XpXdXhXhX,XC.+. .i o %   IXIXIXIXIX",
"IXIXIXIXIXIX  @Xm.p.CXNXNXBXBXBXuXuXuXuXtXrXrXvXvXbXxXlXdXdXdXsXdXhXhXhXA.+.} a o *   IXIXIXIXIX",
"IXIXIXIXIXIX  +Xx.1.NXNXBXZXBXuXuXuXuXrXrXrXrXeXpXnXbXdXdXdXdXhXhXhXjXjXF.+.| f   @ e IXIXIXIXIX",
"IXIXIXIXIXIX  oXz.1.NXBXBXBXZXmXuXuXrXrXrXrXrXlXpXpXgXHXHXsXhXhX4X5X5X5XF.&.| j   @ 2 IXIXIXIXIX",
"IXIXIXIXIXIX  XXz.1.BXBXuXuXuXcXmXrXrXrXrXzXxXzXdXaX7XsXDXDXDXhXjXjXjXjXH.&. .s   o 1 IXIXIXIXIX",
"IXIXIXIXIXIX  }.v.1.BXuXuXuXtXuXMXMXrXrXzXxX7XdXdXdXsX8X0XhXFXSXjXjXwXAXH.-.] q   + 1 IXIXIXIXIX",
"IXIXIXIXIXIX  [.b.1.2XuXuXuXuXrXrXMXMXzXxXlX6X6XdXdXhXsX9XqXjXGXGXwXAX3XH.*.V 5     1 LXIXIXIXIX",
"IXIXIXIXIXIX  b.M.6.5.6.q.q.w.~ ! w.E.E.8.C.C./ ..C.X.X.A.O.+.F.F.~.H.H.-.$.m $   @ 2 LXIXIXIXIX",
"IXIXIXIXIXIX  z _.h.6.q.q.q.w.w.! Y ( T.C.C.C.C.T T A.X.A.A.+.&.H.H.~.-.-.[ s   o % e LXIXIXIXIX",
"IXIXIXIXIXIX  % j.j.q.5.w.w.w.w.w./ ( / J.O.C.C.A.H L o.o.F.&.+.-.H.-.~.*.N >   + * t IXIXIXIXIX",
"IXIXIXIXIXIX  * c b.h.w.w.w.w.r.8.C./ C.L.J.O.O.A.X.+.F.| H.H.&.-.-.-.:.{ s   o + < C IXIXIXIXIX",
"IXIXIXIXIXIXIX  + J k.w.8.w.r.9.C.C./ ..C.K.C.O.A.F.F.F.| | H.-.-.-.-.[ n ;   o % r LXIXIXIXIXIX",
"IXIXIXIXIXIXIX    ; ~ w.8.8.C.C.C.C.C.X.X.A.!.A.F.F.F.H.H.| -.-.-.-.$.N 6       < y LXIXIXIXIXIX",
"IXIXIXIXIXIXIXIX  + 8 ( C.( #.C.C.C.C.C.A.A.!.:.' o.H.H.H.$.$.-.-.$.B w     o % r S IXIXIXIXIXIX",
"IXIXIXIXIXIXIXIX    + 7 K / C.O.O.C.A.A.A.F.o.!.%.o.H.H.-.-.-.*.[ m 0     o o < C LXIXIXIXIXIXIX",
"IXIXIXIXIXIXIXIXIXt     : v R #.C.C.O.A.F.F.F.| :.~.-.-.-.*.$._ l >     o + 1 Z LXIXIXIXIXIXIXIX",
"IXIXIXIXIXIXIXIXIXIX    +   i G  .} O.+.+.&.&.-.-.~.-.*.$.) m p o   o   o * t LXLXIXIXIXIXIXIXIX",
"IXIXIXIXIXIXIXIXIXIX      +   $ 9 v G ] ' | | | [ ` _ N l 9 $   o   o + * r S LXIXIXIXIXIXIXIXIX",
"IXIXIXIXIXIXIXIXIXIXIX        + o   , 6 q d k k s p 6 -     o       o < u S LXIXIXIXIXIXIXIXIXIX",
"IXIXIXIXIXIXIXIXIXIXIXIXIX    + o o o                       o o o & 2 A LXLXIXIXIXIXIXIXIXIXIXIX",
"IXIXIXIXIXIXIXIXIXIXIXIXIXIX  e 1 +   + +                   + < < C S LXLXIXIXIXIXIXIXIXIXIXIXIX",
"IXIXIXIXIXIXIXIXIXIXIXIXIXIXIXIX    < % + % %   o + % % * < e Z S LXLXIXIXIXIXIXIXIXIXIXIXIXIXIX",
"IXIXIXIXIXIXIXIXIXIXIXIXIXIXIXIXIXIXIX  t e e 2 2 2 e e t C LXLXLXIXIXIXIXIXIXIXIXIXIXIXIXIXIXIX",
"IXIXIXIXIXIXIXIXIXIXIXIXIXIXIXIXIXIXIXIXIXIXIXIXIXLXLXLXIXIXIXIXIXIXIXIXIXIXIXIXIXIXIXIXIXIXIXIX",
"IXIXIXIXIXIXIXIXIXIXIXIXIXIXIXIXIXIXIXIXIXIXIXIXIXIXIXIXIXIXIXIXIXIXIXIXIXIXIXIXIXIXIXIXIXIXIXIX",
"IXIXIXIXIXIXIXIXIXIXIXIXIXIXIXIXIXIXIXIXIXIXIXIXIXIXIXIXIXIXIXIXIXIXIXIXIXIXIXIXIXIXIXIXIXIXIXIX",
"IXIXIXIXIXIXIXIXIXIXIXIXIXIXIXIXIXIXIXIXIXIXIXIXIXIXIXIXIXIXIXIXIXIXIXIXIXIXIXIXIXIXIXIXIXIXIXIX",
"IXIXIXIXIXIXIXIXIXIXIXIXIXIXIXIXIXIXIXIXIXIXIXIXIXIXIXIXIXIXIXIXIXIXIXIXIXIXIXIXIXIXIXIXIXIXIXIX"
};
