/* XPM */
static char *led_orange_off[] = {
/* width height num_colors chars_per_pixel */
"    20    20       76            2",
/* colors */
".. c None",
".# c #594a00",
".a c #5a4a00",
".b c #645000",
".c c #765900",
".d c #7f5e00",
".e c #6e5600",
".f c #5f4e00",
".g c #675100",
".h c #8d6300",
".i c #936400",
".j c #916300",
".k c #866000",
".l c #795c00",
".m c #735900",
".n c #5d4d00",
".o c #745600",
".p c #9a6600",
".q c #9e6600",
".r c #9d6600",
".s c #8b6200",
".t c #835f00",
".u c #715700",
".v c #9a6600",
".w c #a16600",
".x c #a36600",
".y c #916300",
".z c #785c00",
".A c #745a00",
".B c #6a5500",
".C c #5c4c00",
".D c #5a4a00",
".E c #9f6600",
".F c #a66600",
".G c #765c00",
".H c #6f5700",
".I c #675300",
".J c #665100",
".K c #986500",
".L c #a46600",
".M c #735a00",
".N c #705900",
".O c #695400",
".P c #7c5b00",
".Q c #7d5e00",
".R c #6d5800",
".S c #645100",
".T c #856000",
".U c #9b6600",
".V c #6c5600",
".W c #745900",
".X c #735700",
".Y c #886100",
".Z c #775a00",
".0 c #835d00",
".1 c #765700",
".2 c #845e00",
".3 c #8a6100",
".4 c #7a5c00",
".5 c #865e00",
".6 c #8d6000",
".7 c #795b00",
".8 c #805d00",
".9 c #7e5d00",
"#. c #8f6100",
"## c #5f4e00",
"#a c #8a5f00",
"#b c #614e00",
"#c c #624f00",
"#d c #715700",
"#e c #6c5400",
"#f c #715600",
"#g c #765900",
"#h c #7f5b00",
"#i c #835d00",
"#j c #6f5500",
/* pixels */
"........................................",
"...............#.#.#.#.#................",
"...........#.a.b.c.d.e.f.#.#............",
".........a.g.h.i.j.k.d.l.m.n.#..........",
".......a.o.p.q.r.p.s.t.l.m.u.f.#........",
".....#.g.v.w.x.w.r.y.t.z.A.u.B.C.#......",
".....D.y.E.x.F.x.q.y.t.G.A.H.B.I.#......",
"...#.J.K.w.L.F.L.r.j.d.G.M.N.B.O.n.#....",
"...#.P.K.E.w.x.E.K.s.Q.M.M.R.B.O.S.#....",
"...#.T.i.U.r.p.K.s.t.z.M.R.R.V.W.X.#....",
"...#.c.h.i.y.h.Y.t.l.M.R.R.R.Z.0.1.#....",
"...#.b.2.3.k.t.4.z.A.N.R.V.Z.5.6.J.#....",
".....#.7.8.9.4.l.A.N.N.H.Z.0#..5.#......",
".....###.c.Z.Z.W.m.H.u.7.5#.#a#b.#......",
".......##c#d#d#d#d#d.P.5#.#a.J.#........",
".........#.n#e#f#g#h.5#a#i#b.#..........",
"...........#.##b#j#h.1.b.a.#............",
"...............#.#.#.#.#................",
"........................................",
"........................................"
};
