/* XPM */
static char * led_red_off_xpm[] = {
/* width height num_colors chars_per_pixel */
"20 20 80 1",
/* colors */
" 	c None",
".	c black",
"X	c #070404",
"o	c #371916",
"O	c #65332e",
"+	c #853f37",
"@	c #5e2620",
"#	c #290c08",
"$	c #3a2320",
"%	c #8f5852",
"&	c #8f5b58",
"*	c #834b44",
"=	c #7b2e29",
"-	c #6b2b23",
";	c #1f0907",
":	c #583734",
">	c #916764",
",	c #916e6a",
"<	c #8d5650",
"1	c #84443e",
"2	c #66241e",
"3	c #917776",
"4	c #917b79",
"5	c #916c67",
"6	c #712921",
"7	c #5e1d16",
"8	c #1f0604",
"9	c #917371",
"0	c #917f7d",
"q	c #918584",
"w	c #7b2d24",
"e	c #75251e",
"r	c #6c231d",
"t	c #511711",
"y	c #3a1f1c",
"u	c #91807f",
"i	c #918988",
"p	c #79261d",
"a	c #75221b",
"s	c #6b1e17",
"d	c #591610",
"f	c #713e3a",
"g	c #91615c",
"h	c #8b4d47",
"j	c #82352d",
"k	c #711f16",
"l	c #601811",
"z	c #581912",
"x	c #41140f",
"c	c #8e514d",
"v	c #621e19",
"b	c #6e2e26",
"n	c #70342e",
"m	c #7a4b47",
"M	c #331512",
"N	c #874d48",
"B	c #793831",
"V	c #6e302b",
"C	c #7b4f4b",
"Z	c #805d59",
"A	c #723a32",
"S	c #7b403b",
"D	c #7a3f38",
"F	c #79312a",
"G	c #84615d",
"H	c #7f534d",
"J	c #260f0c",
"K	c #805957",
"L	c #2a1513",
"P	c #5d2c28",
"I	c #632b25",
"U	c #1f0b09",
"Y	c #50241f",
"T	c #643834",
"R	c #714642",
"E	c #291311",
"W	c #52302c",
"Q	c #6e4945",
"!	c #603d3a",
"~	c #321a18",
/* pixels */
"                    ",
"       .....        ",
"     .XoO+@#X.      ",
"    X$%&%*+=-;.     ",
"   X:>,,><1=-2#.    ",
"  X$>3435&+=6278.   ",
"  X%90q0,%+wer7tX   ",
" .y>3uiu,%+pas7d8.  ",
" .f>9349ghjpkslzx.  ",
" .*g>5>gc+wkksvbO.  ",
" .O%&&<h+=esssnm:.  ",
" .M*N*1B=esssVCZy.  ",
"  XASDBF6rssnmGHX   ",
"  .JVnV--22nHGKL.   ",
"   .MP@I@IfHGKy.    ",
"    .UYPTRHZmE.     ",
"     .XEWQ!~X.      ",
"       .....        ",
"                    ",
"                    "};
