/* XPM */
static char * led_red_on_xpm[] = {
/* width height num_colors chars_per_pixel */
"20 20 93 2",
/* colors */
"  	c None",
". 	c #464646",
"X 	c #4f4f4f",
"o 	c #a24a42",
"O 	c #d46d60",
"+ 	c #f07365",
"@ 	c #cc5546",
"# 	c #923227",
"$ 	c #a7625a",
"% 	c #fd9d91",
"& 	c #fda39b",
"* 	c #f38779",
"= 	c #ea5b4e",
"- 	c #d95344",
"; 	c #83281e",
": 	c #c67d75",
"> 	c #ffb7af",
", 	c #ffc4be",
"< 	c #ffc2bb",
"1 	c #fb998e",
"2 	c #f27c71",
"3 	c #da5948",
"4 	c #d54b3e",
"5 	c #912b1d",
"6 	c #a5655b",
"7 	c #ffd2cf",
"8 	c #ffd9d5",
"9 	c #ffbeb5",
"0 	c #e05242",
"q 	c #cc3f2f",
"w 	c #7d1b10",
"e 	c #573535",
"r 	c #ffcbc6",
"t 	c #ffdfdb",
"y 	c #ffeae8",
"u 	c #f37565",
"i 	c #ea5845",
"p 	c #e44b3a",
"a 	c #d84636",
"s 	c #bf3827",
"d 	c #a65a51",
"f 	c #ffe2df",
"g 	c #fff1ef",
"h 	c #e84c38",
"j 	c #e44534",
"k 	c #d93927",
"l 	c #c73224",
"z 	c #831b11",
"x 	c #e07d72",
"c 	c #ffaba2",
"v 	c #f98b7f",
"b 	c #f06353",
"n 	c #e0402b",
"m 	c #cf3625",
"M 	c #c63929",
"N 	c #ae3627",
"B 	c #f18a7e",
"V 	c #fc9188",
"C 	c #d14235",
"Z 	c #dd5d4c",
"A 	c #da402f",
"S 	c #df695b",
"D 	c #e99088",
"F 	c #9f453d",
"G 	c #f58d83",
"H 	c #e86d5d",
"J 	c #dd6356",
"K 	c #ea988f",
"L 	c #f0aea6",
"P 	c #e17263",
"I 	c #ea7b71",
"U 	c #e9796a",
"Y 	c #e85e51",
"T 	c #db4a3a",
"R 	c #f2b2aa",
"E 	c #e89f97",
"W 	c #8c392d",
"Q 	c #ed9b90",
"! 	c #eea7a2",
"~ 	c #924b42",
"^ 	c #9d4236",
"/ 	c #cb6158",
"( 	c #d25e4f",
") 	c #833027",
"_ 	c #be564a",
"` 	c #d3776e",
"' 	c #e08a82",
"] 	c #eeaea6",
"[ 	c #90443b",
"{ 	c #c07068",
"} 	c #dd938b",
"| 	c #cf837d",
" .	c #9c524b",
/* pixels */
"                                        ",
"              . . . . .                 ",
"          . X o O + @ # X .             ",
"        X $ % & % * + = - ; .           ",
"      X : > , < > 1 2 = 3 4 5 .         ",
"    X 6 > 7 8 7 9 & + = 0 4 q w .       ",
"    e % r t y t , % u i p a q s X       ",
"  . d > 7 f g f < % + h j k q l z .     ",
"  . x > r 7 8 r c v b h n k m M N .     ",
"  . B c > 9 > c V u i n n k C Z O .     ",
"  . O % & & 1 v u = p k k A S D : .     ",
"  . F B G B 2 H = p A k A J K L d .     ",
"    X P I U H Y 0 T A A S D R E X       ",
"    . W J S J 3 - 4 4 S Q R ! ~ .       ",
"      . ^ / @ ( @ ( x E R ! d .         ",
"        . ) _ / ` ' E ] D [ .           ",
"          . X [ { } |  .X .             ",
"              . . . . .                 ",
"                                        ",
"                                        "};
