/* XPM */
static char * led_green_off_xpm[] = {
/* width height num_colors chars_per_pixel */
"20 20 67 1",
/* colors */
" 	c None",
".	c black",
"X	c #1e2b19",
"o	c #445e3c",
"O	c #517944",
"+	c #335129",
"@	c #12200d",
"#	c #253320",
"$	c #6a8b5f",
"%	c #73916a",
"&	c #6f8d63",
"*	c #5e8053",
"=	c #466c39",
"-	c #3a5e2f",
";	c #0c1608",
":	c #405139",
">	c #809777",
",	c #869b80",
"<	c #819879",
"1	c #658858",
"2	c #587d4b",
"3	c #365829",
"4	c #7e9876",
"5	c #8c9b88",
"6	c #919b8e",
"7	c #718e66",
"8	c #446e35",
"9	c #3b672b",
"0	c #294d1e",
"q	c #0a1306",
"w	c #030403",
"e	c #899b83",
"r	c #959b94",
"t	c #3f6c2f",
"y	c #315a22",
"u	c #234219",
"i	c #7c9672",
"p	c #345e26",
"a	c #28481b",
"s	c #4e6a44",
"d	c #4d763f",
"f	c #1d3415",
"g	c #5b7f51",
"h	c #2e5123",
"j	c #3d5f33",
"k	c #3d5934",
"l	c #618556",
"z	c #436539",
"x	c #5d7653",
"c	c #45593f",
"v	c #658359",
"b	c #486e3b",
"n	c #607958",
"m	c #6e8367",
"M	c #48683d",
"N	c #547548",
"B	c #517345",
"V	c #121d0e",
"C	c #677c5f",
"Z	c #152013",
"A	c #1a2815",
"S	c #39562e",
"D	c #2e4526",
"F	c #395230",
"G	c #54694d",
"H	c #5c7256",
"J	c #374a32",
/* pixels */
"                    ",
"       .....        ",
"     ..XoO+@..      ",
"    .#$%&*O=-;.     ",
"   .:>,<>12=-3@.    ",
"  .#4565<728930q.   ",
"  w7e6r6,72t9y0u.   ",
" .#i56r6<&Ot9p0a;.  ",
" .sie56ei1d99y0af.  ",
" .g%<<>i1289yyhjk.  ",
" .o$%7$l2=9yyyzxc.  ",
" .Xxv*2b89pyhznm#.  ",
"  .MNBb=9ppyzxmn.   ",
"  .Vozzj-y3MnmCZ.   ",
"   .ASSSSSsnmC#.    ",
"    .;DFoGnCHZ.     ",
"     ..ZJGcX..      ",
"       .....        ",
"                    ",
"                    "};
