/* XPM */
static char * logoemi_xpm[] = {
/* width height num_colors chars_per_pixel */
"120 78 47 1",
/* colors */
" 	c None",
".	c red",
"X	c #f82020",
"o	c white",
"O	c #f83030",
"+	c #f84850",
"@	c #f84848",
"#	c #f85050",
"$	c #f84040",
"%	c #f81010",
"&	c #f86868",
"*	c #f86060",
"=	c #f87070",
"-	c #f87078",
";	c #f88480",
":	c #f87878",
">	c #f88c88",
",	c #f88c90",
"<	c #f89490",
"1	c #f89c98",
"2	c #f8b4b0",
"3	c #f8fcf0",
"4	c #f8f4f0",
"5	c #f8bcb8",
"6	c #f81818",
"7	c #f8ece8",
"8	c #f8e4e0",
"9	c #f8c4c0",
"0	c #f8d4d0",
"q	c #f8b4a8",
"w	c #f8b4b8",
"e	c #f8aca8",
"r	c #f83028",
"t	c #f80808",
"y	c #f82828",
"u	c #f8ccc8",
"i	c #f8acb0",
"p	c #e8ece8",
"a	c #f8a4a0",
"s	c #f8bcc0",
"d	c #f8a4a8",
"f	c #f89c90",
"g	c #f85858",
"h	c #f86068",
"j	c #f83838",
"k	c #f83830",
"l	c black",
/* pixels */
"                                                                                                                        ",
"                                                                                                                        ",
"                                                                                                                        ",
"          ....................................................................................................          ",
"          ....................................................................................................          ",
"          ....................................................................................................          ",
"          ....................................................................................................          ",
"          ...Xoooooooooooooooooooooooooooooooooooooooooooooooooooooooooooooooooooooooooooooooooooooooooooo....          ",
"          ...Xoooooooooooooooooooooooooooooooooooooooooooooooooooooooooooooooooooooooooooooooooooooooooooo....          ",
"          ...Xoooooooooooooooooooooooooooooooooooooooooooooooooooooooooooooooooooooooooooooooooooooooooooo....          ",
"          ...Xoooooooooooooooooooooooooooooooooooooooooooooooooooooooooooooooooooooooooooooooooooooooooooo....          ",
"          ...Xoooo....................................................................................oooo....          ",
"          ...Xoooo....................................................................................oooo....          ",
"          ...Xoooo....................................................................................oooo....          ",
"          ...Xoooo....................................................................................oooo....          ",
"          ...Xoooo....................................................................................oooo....          ",
"          ...Xoooo....................................................................................oooo....          ",
"          ...Xoooo....................................................................................oooo....          ",
"          ...Xoooo....................................................................................oooo....          ",
"          ...Xoooo..........O+@#@############$...%&*&&&*&&=-*.......*;:;;:;;>,;....&<<1<111,..........oooo....          ",
"          ...Xoooo..........23ooooo4oooo4oooo5...Ooooooooooo46.....%4ooooooooo7....5ooooooo8..........oooo....          ",
"          ...Xoooo..........2oooooooooooooooo9...Oooooooooooo&.....*oooooooooo8....5ooooooo0..........oooo....          ",
"          ...Xoooo..........qoooooooooooooooo9...Oooooooooooo9.....2oooooooooo7....2ooooooo8..........oooo....          ",
"          ...Xoooo..........qoooooooooooooooo9...OooooooooooooX...64oooooooooo7....2ooooooo8..........oooo....          ",
"          ...Xoooo..........qooooooo55w22w222<...Ooooooooooooo:...&ooooooooooo4....2ooooooo8..........oooo....          ",
"          ...Xoooo..........qoooooo4.............Ooooooooooooo0...5ooooooooooo4....2ooooooo8..........oooo....          ",
"          ...Xoooo..........eoooooo4.............roooooooooooooO.X4ooooooooooo4....2ooooooo8..........oooo....          ",
"          ...Xoooo..........eoooooo4t............yooooooooooooo>.&oooooooooooo4....2ooooooo8..........oooo....          ",
"          ...Xoooo..........eooooooo=:=:::::;&...yooooooooooooo8.9oooooooooooo4....2ooooooo7..........oooo....          ",
"          ...Xoooo..........eooooooooooo4oooou...yooooooooooooo4*oooooo4oooooo4t...iooooooo7..........oooo....          ",
"          ...Xoooo..........eoooooooooooooooou...yooooooo94ooooopooooo79oooooo4....eooooooo7..........oooo....          ",
"          ...Xoooo..........eooooooooo4oooooou...yooooooo<0oooooooooooasooooo34t...eooooooo7..........oooo....          ",
"          ...Xoooo..........eoooooooooooooooou...yooooooo<:ooooooooooo#5oooooo4t...aooooooo7..........oooo....          ",
"          ...Xoooo..........eoooooooedaaaaaaa;...yooooooo<y4ooooooooo4t5oooooo4t...aooooooo7..........oooo....          ",
"          ...Xoooo..........eoooooo3.............yooooooo<.uoooooooooe.5oooooo4t...aooooooo4..........oooo....          ",
"          ...Xoooo..........eooooooo.............yooooooof.=ooooooooo#.2oooooo3....aooooooo4..........oooo....          ",
"          ...Xoooo..........eooooooo.............Xooooooo1.Xoooooooo4t.2ooooooo....aooooooo4..........oooo....          ",
"          ...Xoooo..........aoooooooiqi2222251...Xooooooo1..9oooooooe..eooooooot...aooooooo4..........oooo....          ",
"          ...Xoooo..........aoooooooooooooooo0...Xooooooo<..&ooooooog..eooooooo....aooooooo4..........oooo....          ",
"          ...Xoooo..........1oooooooooooooooo0...6ooooooo1..64ooooo4%..eooooooot...aooooooo4..........oooo....          ",
"          ...Xoooo..........1oooooooooooooooo0...6ooooooo1...5ooooo2...eooooooot...aooooooo4..........oooo....          ",
"          ...Xoooo..........1oooooooo4oooo4oo0...6o3oooo41...&o4oo3g...eooo4ooot...1oooo4oo4..........oooo....          ",
"          ...Xoooo..........@:=&&&&&h&******g#...t###@#+@O...%@@@$$%...yjkjjOOO....6XXXXXXX6..........oooo....          ",
"          ...Xoooo....................................................................................oooo....          ",
"          ...Xoooo....................................................................................oooo....          ",
"          ...Xoooo....................................................................................oooo....          ",
"          ...Xoooo....................................................................................oooo....          ",
"          ...Xoooo....................................................................................oooo....          ",
"          ...Xoooo....................................................................................oooo....          ",
"          ...Xoooo....................................................................................oooo....          ",
"          ...Xoooo....................................................................................oooo....          ",
"          ...Xoooooooooooooooooooooooooooooooooooooooooooooooooooooooooooooooooooooooooooooooooooooooooooo....          ",
"          ...Xoooo4444ooo4oooo4oooooooooo4oooooooooooooooooooooooooooooooooooooooooooooooooooooooooooooooo....          ",
"          ...Xooooooooooooooooooooooooooooooooooooooooooooooooooooooooo4oooooooooooooooooooooooooooooooooo....          ",
"          ...Xooooooooooooooooooooooooooooooooooooooooo4oooo4oooo4ooo3oo4oo3ooo4oo3ooo4ooooooooooooooooooo....          ",
"          ....tttttttttttttttttttttttttttttttttttttttttttttttttttttttttttttttttttttttttttttttttttttttttttt....          ",
"          ....................................................................................................          ",
"          ....................................................................................................          ",
"          ....................................................................................................          ",
"                                                                                                                        ",
"                                                                                                                        ",
"                                                                                                                        ",
"                                                                                                                        ",
"                                                                                                                        ",
"                                                                                                                        ",
"                                                                                                                        ",
"                                                                                                                        ",
"                                                                    ll                                                  ",
"     lllll  ll    ll  ll       lll                             ll                               llll  llll     ll       ",
"     ll     lll  lll  ll      ll ll   l ll    lll   ll l lll  llll  ll   lll   l ll    lll     ll     ll ll    ll       ",
"     ll     llll lll  ll     ll   ll  ll ll  ll ll  llll   ll  ll   ll  ll ll  ll ll  ll       lll    ll ll   l ll      ",
"     llll   l lll ll  ll     ll   ll  ll ll  ll ll  ll   llll  ll   ll  ll ll  ll ll  lll       lll   llll    l ll      ",
"     ll     l  l  ll  ll     ll   ll  ll ll  lllll  ll  ll ll  ll   ll  ll ll  ll ll   lll       lll  ll     llllll     ",
"     ll     l  l  ll  ll      ll ll   ll ll  ll     ll  ll ll  ll   ll  ll ll  ll ll    ll        ll  ll     l   ll     ",
"     lllll  l     ll  ll       lll    llll    llll  ll   ll ll  ll  ll   lll   ll ll  lll      llll   ll     l   ll     ",
"                                      ll                                                                                ",
"                                      ll                                                                                ",
"                                                                                                                        "};
