/* XPM */
static char *magick[] = {
/* columns rows colors chars-per-pixel */
"64 50 15 1",
"  c #b01b32",
". c #bc1d36",
"X c #d4203c",
"o c #e13651",
"O c #e5536a",
"+ c #e96d80",
"@ c #ec8091",
"# c #f1a3af",
"$ c #f4b6c0",
"% c #c0c0c0",
"& c #f6c3cb",
"* c #f8cfd5",
"= c #fae0e4",
"- c #fdf3f5",
"; c None",
/* pixels */
";;;;;;;;;;;;;;;;;;;;;;;;;;;;;;;;;;;;;;;;;;;;;;;;;;;;;;;;;;;;;;;;",
";;;;;;;;;=+o.  .o+*;;;;;;;;;;;;;;;;;;;;;;;;;;;;;;;;;;;;;;;;;;;;;",
";;;;;;;;+          X$;;;;;;;;;;;;;;;;;;;;;;;;;;;;;;;;;;;;;;;;;;;",
";;;;;;;O     ..      X$;;;;;;;;;;;;;;;;;;;;;;;;;;;;;;;;$+oOo+;;;",
";;;;;;#  .+-;;;;=OX    X*;;;;;;;;;;;;;;;;;;;;;;;;;;-$o      . @;",
";;;;;;. o-;;;;;;;;;#.   .o&;;;;;;;;;;;;;;;;;;;;;;;+.           $",
";;;;;@  =;;;;;;;;;;;;@X    o&;;;;;;;;;;;;;;;;;;*+       XoooX  o",
";;;;#  o;;;;;;;-*;;;;;;#     X#;;;;;;;;;;;;;;$o.     .+;;;;;;;oX",
";;;*  .=;;;;;@    X+=;;;;#X    .O$=;;;;;;;$+.      o#;;;;;;;;;;*",
";;;O  ;;;;;;;+**&O.  O;;;;;#.      .oOOo.        X&;;;;;;;;;;;;;",
";;;o O;;;;;;;;;;;;-+  .+;;;;;#X         .      o*;;;;;;=+oXXX#;;",
";;;X +;;;;;;;;;;;;;;*X  .#;;;;;$o.          .O=;;;;;;#.     . o;",
";-X. $;;;;;;;;;;;;;;;;@   X*;;;;;=#OX.  XX+*;;;;;;;O.          #",
"*. .@;;;;;;;;;;;;;;;;;;*X   o=;;;;;;;;;;;;;;;;;;*O      .oO+oX o",
"  X=;;;;;;;;;;;;;;;;;;;;;+   .o=;;;;;;;;;;;;;;$X.     o&;;;;;-+o",
"O X;;;;;;;;;;;;;;;;;;;;;;;*X    o#*;;;;;;;;&@.      O*;;;;;;;;;;",
";X O;;;;;;;;;;;;;;;+o@-;;;;;+      .oo++oo.       o;;;;;;;;;;;;;",
"+  O;;;;;;;;;;;;;;;=@X o*;;;;*o                 +=;;;;;*@o. .O*;",
";O .;;;;;;;;;;;;;;;;;;@  o;;;;;=o            X@;;;;;;*X        ;",
"#  X;;;;;;;;;;;;;;;;;;;=. .@;;;;;*#o      o@*;;;;;;@X          +",
";  X;;;;;;;;;;;;;;;;;;;;;o  X*;;;;;;;;;;;;;;;;;;;#. .    .X++O.o",
";X @;;;;;;;;;;;;;;;;;;;;;;+   o$;;;;;;;;;;;;;;;+. .    X#;;;;;;&",
"#  .Xooo... .X#;;;;;;;;;;;;#.   X#=;;;;;;;;=$o      .o&;;;;;;;;;",
"#            . o;;;;;;;;;;;;;X     Xo+#@+OX.       +;;;;;;;;;;;;",
";#OOOOOO+@@@+o  +;;;;;;;;;;;;;@                 X@;;;;;;;;;;;;;;",
";;;;;;;;;;;;;;o .;;;;;;;;;;;;;;;O             o#;;;;;;;;;;;;;;;;",
";;;;;;;;;;;;;;=  -;;;;;;;;;;;;;;;;#oXX  ..oO#=;;;;;;;;;;;;;;;;;;",
";;;;;;;;;;;;;;;  *;;;;;;;;;;;;;;;;;;;;;;;;;;;;;;;;;;;;;;;;;;;;;;",
";;;;;;;;;;;;;;;X -;;;;;;;;;;;;;;;;;;;;;;;;;;;;;;;;;;;;;;;;;;;;;;",
";;;;;;;;;;;;;;;O ;;;;;;;;;;;;;;;;;;;;;;;;;;;;;;;;;;;;;;;;;;;;;;;",
";;;;;;;;;;;;;;;Xo;;;;;;;;;;;;;;;;;;;;;;;;;;;;;;;;;;;;;;;;;;;;;;;",
"$$*;;;;;;&$$=;; *;-#*;;;;-$&$&&$&&;;;;&$$;;;;;;;*$$-;;;;;;;;;*&;",
".  *;;;;o   O;;=;;X +;;;-.       X-;;+  .-;;;;;#   ;;;;;;;;@   O",
".  #;;;=    o;;;;$  ;;;;O   ooOOo$;;;   +;;;;;;   O;;;;;;;=.   O",
".  #;;;o    X;;;;o o;;;;   o;;;;;;;;+   ;;;;;;#   &;;;;;;;O    O",
".  #;;;X .  .;;;;  #;;;#   &;;;;;;;;.  o;;;;;;o  X;;;;;;;*  .  O",
".  #;;@ .&  .;;;+  ;;;;X  X;;;;;;;;$   $;;;;;-   +;;;;;;;o @X  O",
".  #;;  o*   ;;;X +;;;=   @;;;;;;;;O  .;;;;;;+   -;;;;;;& .;   O",
".  #;@  &=   =;&  =;;;+   $====;;;;   +;;;;;-   o;;;;;;;. +;   O",
".  #;o .;;   &;O o;;;;    .   .;;;@   ;;;;;;#   &;;;;;;#  ;;   O",
".  $*  &;;   @;  @;;;#   XXXXX#;;;X  o;;;;;;O  X;;;;;;;X.@;;   O",
".  &X X-;;   +@  ;;;;o  X-;;;;;;;$   #;;;;;-   +;;;;;;# X;;;   O",
".  @  @;;;.  Oo O;;;-   +;;;;;;;;o   ;;;;;;O   ;;;;;;;  X++O   O",
".  .  ;;;;X  .  =;;;+   -;;;;;;;-   +;;;;;-.  O;;;;;;+         O",
".    +;;;;o    X;;;;   X;;;;;;;;@   ;;;;;;$   $;;;;;;. O###@   O",
".   .*;;;;o.   @;;;#   $;;;;;;;;X  o;;;;;;o  .;;;;;;O .;;;;;   O",
".   X;;;;;O    ;;;;O  .$&****-;*   +====;-   o-==-;=. $;;;;;   O",
".   *;;;;;+   +;;;;          $;o       X;O       X;O X;;;;;;   O",
"XXXO;;;;;;@..X=;;;;X..X.XXX.o;;@.X.....&;@       @;  &;;;;;;O. +",
";;;;;;;;;;;;;;;;;;;;;;;;;;;;;;;;;;;;;;;;;;;;;;;;;;;;;;;;;;;;;;;;"
};
