/* XPM */
static char * round_forward_xpm[] = {
/* width height num_colors chars_per_pixel */
"32 32 31 1",
/* colors */
" 	c None",
".	c #dddddd",
"X	c #a5a5a5",
"o	c #949494",
"O	c #7a7a7a",
"+	c #9c9c9c",
"@	c #adadad",
"#	c #cccccc",
"$	c #f7f7f7",
"%	c #bdbdbd",
"&	c #c4c4c4",
"*	c #b4b4b4",
"=	c #636363",
"-	c #848484",
";	c #efefef",
":	c #d6d6d6",
">	c #727272",
",	c #5a5a5a",
"<	c #3a3a3a",
"1	c #424242",
"2	c #e6e6e6",
"3	c #525252",
"4	c #282828",
"5	c #880000",
"6	c #2f2f2f",
"7	c #8c8c8c",
"8	c #4a4a4a",
"9	c #202020",
"0	c #6b6b6b",
"q	c #191919",
"w	c #141414",
/* pixels */
"           .XoOOOO+@#$          ",
"         #X@@@%&&%*XO=-;        ",
"       :X%%*@***%%&&&X-=+$      ",
"     $&%%@XX@***%%&&&##*>,&     ",
"    $#*XXXXX@***%%&&&####O<&    ",
"   $#%X+XXXX@***%%&&&###:#O<#   ",
"   &*X++XXXX@***%%&&&###:::O12  ",
"  :*++++XXXX@***%%&&&###:::#3O  ",
"  @*oo++XXXX@***%%&&&###:::.o4: ",
" :*+oo++XXXX@***%5&&&###:::.:,= ",
" @*ooo++XXXX@***%55&&###::...o62",
".X+ooo++XXXX@***%555&###::....1o",
"++7ooo++XXXX@***%5555###::...28,",
"7+7ooo++XXXX@***%55555##::...2,1",
">X7ooo+5555555555555555#::...2>9",
"0X7ooo+55555555555555555::...2O9",
"0@7ooo+55555555555555555::...2O9",
">X7ooo+5555555555555555#::...209",
"7+7ooo++XXXX@***%55555##::...2,1",
"+-7ooo++XXXX@***%5555###::...21,",
"&=oooo++XXXX@***%555&###::...#47",
"$8-ooo++XXXX@***%55&&###::...=92",
" >0ooo++XXXX@***%5&&&###:::.&68 ",
" 28-oo++XXXX@***%%&&&###:::.=q# ",
"  7,7o++XXXX@***%%&&&###:::&4=  ",
"  $3,o++XXXX@***%%&&&###::%142  ",
"   :10o+XXXX@***%%&&&###:%8q*   ",
"    .13oXXXX@***%%&&&###@<q*    ",
"     .<<0+XX@***%%&&&#*,99*     ",
"      20910+@***%%%&*,4w,2      ",
"        :,46<13,,,8<9q1#        ",
"          278<qqqq<3-2          "};
