/* XPM */
static char * round_empty_xpm[] = {
/* width height num_colors chars_per_pixel */
"32 32 30 1",
/* colors */
" 	c None",
".	c #dddddd",
"X	c #a5a5a5",
"o	c #949494",
"O	c #7a7a7a",
"+	c #9c9c9c",
"@	c #adadad",
"#	c #cccccc",
"$	c #f7f7f7",
"%	c #bdbdbd",
"&	c #c4c4c4",
"*	c #b4b4b4",
"=	c #636363",
"-	c #848484",
";	c #efefef",
":	c #d6d6d6",
">	c #727272",
",	c #5a5a5a",
"<	c Gray23",
"1	c #424242",
"2	c #e6e6e6",
"3	c #525252",
"4	c #282828",
"5	c Gray18",
"6	c #8c8c8c",
"7	c #4a4a4a",
"8	c #202020",
"9	c #6b6b6b",
"0	c #191919",
"q	c #141414",
/* pixels */
"           .XoOOOO+@#$          ",
"         #X@@@%&&%*XO=-;        ",
"       :X%%*@***%%&&&X-=+$      ",
"     $&%%@XX@***%%&&&##*>,&     ",
"    $#*XXXXX@***%%&&&####O<&    ",
"   $#%X+XXXX@***%%&&&###:#O<#   ",
"   &*X++XXXX@***%%&&&###:::O12  ",
"  :*++++XXXX@***%%&&&###:::#3O  ",
"  @*oo++XXXX@***%%&&&###:::.o4: ",
" :*+oo++XXXX@***%%&&&###:::.:,= ",
" @*ooo++XXXX@***%%&&&###::...o52",
".X+ooo++XXXX@***%%&&&###::....1o",
"++6ooo++XXXX@***%%&&&###::...27,",
"6+6ooo++XXXX@***%%&&&###::...2,1",
">X6ooo+XXXXX@***%%&&&###::...2>8",
"9X6ooo+XXXXX@***%%&&&###::...2O8",
"9@6ooo+XXXXX@***%%&&&###::...2O8",
">X6ooo+XXXXX@***%%&&&###::...298",
"6+6ooo+++XXX@***%%&&&###::...2,1",
"+-6ooo+++XXX@***%%&&&###::...21,",
"&=oooo++XXXX@***%%&&&###::...#46",
"$7-ooo++XXXX@***%%&&&###::...=82",
" >9ooo++XXXX@***%%&&&###:::.&57 ",
" 27-oo++XXXX@***%%&&&###:::.=0# ",
"  6,6o++XXXX@***%%&&&###:::&4=  ",
"  $3,o++XXXX@***%%&&&###::%142  ",
"   :19o+XXXX@***%%&&&###:%70*   ",
"    .13oXXXX@***%%&&&###@<0*    ",
"     .<<9+XX@***%%&&&#*,88*     ",
"      29819+@***%%%&*,4q,2      ",
"        :,45<13,,,7<801#        ",
"          267<0000<3-2          "};
