/* XPM */
static char * round_tools_xpm[] = {
/* width height num_colors chars_per_pixel */
"32 32 32 1",
/* colors */
" 	c None",
".	c #dddddd",
"X	c #a5a5a5",
"o	c #949494",
"O	c #7a7a7a",
"+	c #9c9c9c",
"@	c #adadad",
"#	c #cccccc",
"$	c #f7f7f7",
"%	c #bdbdbd",
"&	c #c4c4c4",
"*	c #b4b4b4",
"=	c #636363",
"-	c #848484",
";	c #efefef",
":	c #d6d6d6",
">	c #727272",
",	c #5a5a5a",
"<	c #3a3a3a",
"1	c #424242",
"2	c #e6e6e6",
"3	c black",
"4	c #525252",
"5	c #282828",
"6	c #8c8c8c",
"7	c #2f2f2f",
"8	c #4a4a4a",
"9	c #996600",
"0	c #202020",
"q	c #6b6b6b",
"w	c #191919",
"e	c #141414",
/* pixels */
"           .XoOOOO+@#$          ",
"         #X@@@%&&%*XO=-;        ",
"       :X%%*@***%%&&&X-=+$      ",
"     $&%%@XX@***%%&&&##*>,&     ",
"    $#*XXXXX@***%%&&&####O<&    ",
"   $#%X+XXXX@***%%&&&###:#O<#   ",
"   &*X++XXXX@***%%&&&###:::O12  ",
"  :*++++XXXX@***%%3&&###:::#4O  ",
"  @*oo++33XX@***%3@3&###:::.o5: ",
" :*+oo++363@@***3@@@333#:::.:,= ",
" @*ooo+++363@***%3@@@@@3::...o72",
".X+oo33++363@***%%3@@@@@3:....1o",
"++66o3633663@***%%%3@@@@@3...28,",
"6+6ooo3666663***%%393@@@@63..2,1",
">X6ooo+3336663**%39993@@@3...2>0",
"qX6ooo+++X36663*39993#3@3:...2O0",
"q@6ooo++XXX366639993&##3::...2O0",
">X6ooo++XXXX3639993&&###::...2q0",
"6+6ooo++XXXX@39993&&&###::...2,1",
"+-6ooo++XXXX3999363&&###::...21,",
"&=oooo++XXX399936663&###::...#56",
"$8-ooo+++X39993*36663###::...=02",
" >qooo++XXX393**%363&###:::.&78 ",
" 28-oo++XXXX3***%%3&&###:::.=w# ",
"  6,6o++XXXX@***%%&&&###:::&5=  ",
"  $4,o++XXXX@***%%&&&###::%152  ",
"   :1qo+XXXX@***%%&&&###:%8w*   ",
"    .14oXXXX@***%%&&&###@<w*    ",
"     .<<q+XX@***%%&&&#*,00*     ",
"      2q01q+@***%%%&*,5e,2      ",
"        :,57<14,,,8<0w1#        ",
"          268<wwww<4-2          "};
