/* XPM */
static char * round_question_xpm[] = {
/* width height num_colors chars_per_pixel */
"32 32 32 1",
/* colors */
" 	c None",
".	c #dddddd",
"X	c #a5a5a5",
"o	c #949494",
"O	c #7a7a7a",
"+	c #9c9c9c",
"@	c #adadad",
"#	c #cccccc",
"$	c #f7f7f7",
"%	c #bdbdbd",
"&	c #c4c4c4",
"*	c #b4b4b4",
"=	c #636363",
"-	c #898989",
";	c #d6d6d6",
":	c #585858",
">	c #3f3f3f",
",	c #4a4a4a",
"<	c #e7e7e7",
"1	c #a26e6e",
"2	c #984343",
"3	c #932c2c",
"4	c #9c5858",
"5	c #ab8989",
"6	c #2d2d2d",
"7	c #8f2020",
"8	c #880000",
"9	c #af7c7c",
"0	c #a47979",
"q	c #6f6f6f",
"w	c #1d1d1d",
"e	c #ac9b9b",
/* pixels */
"           .XoOOOO+@#$          ",
"         #X@@@%&&%*XO=-$        ",
"       ;X%%*@***%%&&&X-=+$      ",
"     $&%%@XX@***%%&&&##*O:&     ",
"    $#*XXXXX@***%%&&&####O>&    ",
"   $#%X+XXXX@***%%&&&###;#O>#   ",
"   &*X++XXXX@***%%&&&###;;;O,<  ",
"  ;*++++XXXX@***%%&&&###;;;#,O  ",
"  @*oo++XXXX@123345&&###;;;.o6; ",
" ;*+oo++XXXX78888882&###;;;.;:= ",
" @*ooo++XXX3888888889###;;...o6<",
".X+ooo+++XX8887478883###;;....>o",
"++-ooo+++X08880*58883###;;...<,:",
"-+-ooo+++XX005@*28884###;;...<=>",
"qX-ooo++XXXX@@@38888%###;;...<qw",
"qX-ooo++XXXX@@38888e&###;;...<Ow",
"q@-ooo++XXXX@08888e&&###;;...<Ow",
"qX-ooo++XXXX@48884&&&###;;...<qw",
"-+-ooo++XXXX@48884&&&###;;...<:>",
"+--ooo++XXXX@e555@&&&###;;...<>:",
"&=oooo++XXXX@@232*&&&###;;...#6-",
"$,Oooo++XXXX@38883&&&###;;...=w<",
" qqooo++XXXX@88888&&&###;;;.&6, ",
" <,-oo++XXXX@28884&&&###;;;.=w# ",
"  -=-o++XXXX@@140%&&&###;;;&6=  ",
"  $::o++XXXX@***%%&&&###;;%>6<  ",
"   ;>qo+XXXX@***%%&&&###;%,w*   ",
"    .>:oXXXX@***%%&&&###@>w*    ",
"     .>>q+XX@***%%&&&#*:ww*     ",
"      <qw>q+@***%%%&*:6w=<      ",
"        ;:666>::::,>ww>#        ",
"          <-,>wwww>:-<          "};
