/* XPM */
static char * round_rescan_xpm[] = {
/* width height num_colors chars_per_pixel */
"32 32 32 1",
/* colors */
" 	c None",
".	c #dddddd",
"X	c #a5a5a5",
"o	c #949494",
"O	c #777777",
"+	c #adadad",
"@	c #cccccc",
"#	c #bdbdbd",
"$	c #c6c6c6",
"%	c #b4b4b4",
"&	c #9e9d9d",
"*	c #5a5a5a",
"=	c #898989",
"-	c #e7e7e7",
";	c #d6d6d6",
":	c #3f3f3f",
">	c #9f4a4a",
",	c #a77575",
"<	c #951b1b",
"1	c #4a4a4a",
"2	c #973d3d",
"3	c #8b1010",
"4	c #a16e6e",
"5	c #982d2d",
"6	c #c8b3b3",
"7	c #2d2d2d",
"8	c #b38d8d",
"9	c #8e1d1d",
"0	c #9c5b5b",
"q	c #a08f8f",
"w	c #6b6b6b",
"e	c #1d1d1d",
/* pixels */
"           .XoOOOOo+@           ",
"         @X+++#$$#%&O*=-        ",
"       ;X##%+%%%###$$X=*&       ",
"      $##+XX+%%%###$$$@%O*$     ",
"     $%XXXXX+%%%###$$@@@@O:$    ",
"    $#X&&XXX+%%%###$>@@@;@O:$   ",
"   $%X&&&XXX+%%%##,<<@@@;;;O1-  ",
"  ;%&o&&&XXX+%%%+23<<@@@;;;@1O  ",
"  +%oo&&&XXX++%43<55<,6@;;;.o7; ",
" ;%&oo&&&XXX++833<5<39>+;;;.;** ",
" +%ooo&&&XXX+%%%>33<<<3>6;...o7-",
".Xoooo&&&XXX+%%%#%>3<0<<,@....:o",
"&&=ooo&&&q4>0q%%###X2623>6...-1*",
"=&=ooo&&q29394%%###$$$4958...-*:",
"OX=ooo&q23350q%%###$$$,958...-we",
"wX=oooo0332,X+%%###$$$4<58...-Oe",
"w+=ooo=532q++%%%###$$+23>6...-Oe",
"OX=ooo4990XX+%%%###%8><<,;...-we",
"=&=ooo4990XX+%%%##+45<<06;...-*:",
"&==ooo4990X4X%%%##X>5506;;...-:*",
"$woooo=532q230%%##%8,86@;;...@7=",
" 1Ooooo099253398###$$@@@;;...we-",
" Owooo&=233<35<32##$$@@@;;;.$71 ",
" -1=oo&&,>93355334#$$@@@;;;.we@ ",
"  =*=o&&&q453<35+##$$@@@;;;#7*  ",
"   **o&&&XX23<,%###$$@@@;;#:7-  ",
"   ;:wo&&XX2>%%%###$$@@@;#1e%   ",
"    .:*o&XXX+%%%###$$@@@+:e%    ",
"     .::w&XX+%%%###$$$%*ee%     ",
"      -we:w&+%%%###$%*7e*-      ",
"        ;*777:****1:ee:@        ",
"          -=1:eeee:1=-          "};
