/* XPM */
static char * round_info_xpm[] = {
/* width height num_colors chars_per_pixel */
"32 32 32 1",
/* colors */
" 	c None",
".	c #dddddd",
"X	c #a5a5a5",
"o	c #949494",
"O	c #7a7a7a",
"+	c #9c9c9c",
"@	c #adadad",
"#	c #cccccc",
"$	c #f7f7f7",
"%	c #bdbdbd",
"&	c #c4c4c4",
"*	c #b4b4b4",
"=	c #636363",
"-	c #898989",
";	c #d6d6d6",
":	c #727272",
">	c #5a5a5a",
",	c #3a3a3a",
"<	c #ad8b8b",
"1	c #424242",
"2	c #e7e7e7",
"3	c #a67c7c",
"4	c #880000",
"5	c #525252",
"6	c #942e2e",
"7	c #2d2d2d",
"8	c #9c4747",
"9	c #a46060",
"0	c #4a4a4a",
"q	c #202020",
"w	c #6b6b6b",
"e	c #181818",
/* pixels */
"           .XoOOOO+@#$          ",
"         #X@@@%&&%*XO=-$        ",
"       ;X%%*@***%%&&&X-=+$      ",
"     $&%%@XX@***%%&&&##*:>&     ",
"    $#*XXXXX@***%%&&&####O,&    ",
"   $#%X+XXXX@***%%&&&###;#O,#   ",
"   &*X++XXXX@@*@<@&&&###;;;O12  ",
"  ;*++++XXXX@@3444<&&###;;;#5O  ",
"  @*oo++XXXX@@64446&&###;;;.o7; ",
" ;*+oo++XXXX@@84448&&###;;;.;>= ",
" @*ooo++XXXX@@@868*&&###;;...o72",
".X+ooo++XXXX@@X<<<@&&###;;....1o",
"++-ooo++XXXX@444449&&###;;...20>",
"-+-ooo++XXXX@444449&&###;;...2>1",
":X-ooo++XXXX@444449&&###;;...2:q",
"wX-ooo++XXXX@@94449&&###;;...2Oq",
"w@-ooo++XXXX@@94449&&###;;...2Oq",
":X-ooo++XXXX@@94449&&###;;...2wq",
"-+-ooo++XXXX@@94449&&###;;...2>1",
"+--ooo++XXXX@@94449&&###;;...21>",
"&=oooo++XXXX@4444444&###;;...#q-",
"$0Oooo++XXXX@4444444&###;;...=q2",
" :wooo++XXXX@4444444&###;;;.&70 ",
" 20-oo++XXXX@@X<<<@&&###;;;.=e# ",
"  ->-o++XXXX@***%%&&&###;;;&q=  ",
"  $5>o++XXXX@***%%&&&###;;%1q2  ",
"   ;1wo+XXXX@***%%&&&###;%0e*   ",
"    .15oXXXX@***%%&&&###@,e*    ",
"     .,,w+XX@***%%&&&#*>qq*     ",
"      2wq1w+@***%%%&*>qe>2      ",
"        ;>q7,15>>>0,qe1#        ",
"          2-0,eeee,5-2          "};
