/* XPM */
static char *run48x48[] = {
/* width height num_colors chars_per_pixel */
"    48    48      256            2",
".. c #000000",
".# c #000000",
".a c #111111",
".b c #111111",
".c c #222211",
".d c #222222",
".e c #222222",
".f c #333311",
".g c #333333",
".h c #444411",
".i c #444444",
".j c #444411",
".k c #444444",
".l c #554411",
".m c #555555",
".n c #665522",
".o c #666666",
".p c #665522",
".q c #666666",
".r c #776622",
".s c #777777",
".t c #777777",
".u c #887722",
".v c #888888",
".w c #887744",
".x c #888888",
".y c #887711",
".z c #999999",
".A c #999999",
".B c #998811",
".C c #aa9966",
".D c #aaaaaa",
".E c #aa8822",
".F c #bbbbbb",
".G c #bbbb88",
".H c #bbbbaa",
".I c #bbbb99",
".J c #bb9922",
".K c #ccbb88",
".L c #cccc99",
".M c #ccbb88",
".N c #ccbb88",
".O c #ccaa22",
".P c #ddcc88",
".Q c #ddcc77",
".R c #ddcc66",
".S c #ddbb22",
".T c #eecc66",
".U c #eecc66",
".V c #eecc55",
".W c #eebb22",
".X c #eecc44",
".Y c #ffdd44",
".Z c #ffcc33",
".0 c #ffcc33",
".1 c None",
".2 c #ffffff",
".3 c #ffffff",
".4 c #ffffff",
".5 c #ffffff",
".6 c #ffffff",
".7 c #ffffff",
".8 c #ffffff",
".9 c #ffffff",
"#. c #ffffff",
"## c #ffffff",
"#a c #ffffff",
"#b c #ffffff",
"#c c #ffffff",
"#d c #ffffff",
"#e c #ffffff",
"#f c #ffffff",
"#g c #ffffff",
"#h c #ffffff",
"#i c #ffffff",
"#j c #ffffff",
"#k c #ffffff",
"#l c #ffffff",
"#m c #ffffff",
"#n c #ffffff",
"#o c #ffffff",
"#p c #ffffff",
"#q c #ffffff",
"#r c #ffffff",
"#s c #ffffff",
"#t c #ffffff",
"#u c #ffffff",
"#v c #ffffff",
"#w c #ffffff",
"#x c #ffffff",
"#y c #ffffff",
"#z c #ffffff",
"#A c #ffffff",
"#B c #ffffff",
"#C c #ffffff",
"#D c #ffffff",
"#E c #ffffff",
"#F c #ffffff",
"#G c #ffffff",
"#H c #ffffff",
"#I c #ffffff",
"#J c #ffffff",
"#K c #ffffff",
"#L c #ffffff",
"#M c #ffffff",
"#N c #ffffff",
"#O c #ffffff",
"#P c #ffffff",
"#Q c #ffffff",
"#R c #ffffff",
"#S c #ffffff",
"#T c #ffffff",
"#U c #ffffff",
"#V c #ffffff",
"#W c #ffffff",
"#X c #ffffff",
"#Y c #ffffff",
"#Z c #ffffff",
"#0 c #ffffff",
"#1 c #ffffff",
"#2 c #ffffff",
"#3 c #ffffff",
"#4 c #ffffff",
"#5 c #ffffff",
"#6 c #ffffff",
"#7 c #ffffff",
"#8 c #ffffff",
"#9 c #ffffff",
"a. c #ffffff",
"a# c #ffffff",
"aa c #ffffff",
"ab c #ffffff",
"ac c #ffffff",
"ad c #ffffff",
"ae c #ffffff",
"af c #ffffff",
"ag c #ffffff",
"ah c #ffffff",
"ai c #ffffff",
"aj c #ffffff",
"ak c #ffffff",
"al c #ffffff",
"am c #ffffff",
"an c #ffffff",
"ao c #ffffff",
"ap c #ffffff",
"aq c #ffffff",
"ar c #ffffff",
"as c #ffffff",
"at c #ffffff",
"au c #ffffff",
"av c #ffffff",
"aw c #ffffff",
"ax c #ffffff",
"ay c #ffffff",
"az c #ffffff",
"aA c #ffffff",
"aB c #ffffff",
"aC c #ffffff",
"aD c #ffffff",
"aE c #ffffff",
"aF c #ffffff",
"aG c #ffffff",
"aH c #ffffff",
"aI c #ffffff",
"aJ c #ffffff",
"aK c #ffffff",
"aL c #ffffff",
"aM c #ffffff",
"aN c #ffffff",
"aO c #ffffff",
"aP c #ffffff",
"aQ c #ffffff",
"aR c #ffffff",
"aS c #ffffff",
"aT c #ffffff",
"aU c #ffffff",
"aV c #ffffff",
"aW c #ffffff",
"aX c #ffffff",
"aY c #ffffff",
"aZ c #ffffff",
"a0 c #ffffff",
"a1 c #ffffff",
"a2 c #ffffff",
"a3 c #ffffff",
"a4 c #ffffff",
"a5 c #ffffff",
"a6 c #ffffff",
"a7 c #ffffff",
"a8 c #ffffff",
"a9 c #ffffff",
"b. c #ffffff",
"b# c #ffffff",
"ba c #ffffff",
"bb c #ffffff",
"bc c #ffffff",
"bd c #ffffff",
"be c #ffffff",
"bf c #ffffff",
"bg c #ffffff",
"bh c #ffffff",
"bi c #ffffff",
"bj c #ffffff",
"bk c #ffffff",
"bl c #ffffff",
"bm c #ffffff",
"bn c #ffffff",
"bo c #ffffff",
"bp c #ffffff",
"bq c #ffffff",
"br c #ffffff",
"bs c #ffffff",
"bt c #ffffff",
"bu c #ffffff",
"bv c #ffffff",
"bw c #ffffff",
"bx c #ffffff",
"by c #ffffff",
"bz c #ffffff",
"bA c #ffffff",
"bB c #ffffff",
"bC c #ffffff",
"bD c #ffffff",
"bE c #ffffff",
"bF c #ffffff",
"bG c #ffffff",
"bH c #ffffff",
"bI c #ffffff",
"bJ c #ffffff",
"bK c #ffffff",
"bL c #ffffff",
"bM c #ffffff",
"bN c #ffffff",
"bO c #ffffff",
"bP c #ffffff",
"bQ c #ffffff",
"bR c #ffffff",
"bS c #ffffff",
"bT c #ffffff",
"bU c #ffffff",
"bV c #ffffff",
"bW c #ffffff",
"bX c #ffffff",
"bY c #ffffff",
"bZ c #ffffff",
"b0 c #ffffff",
"b1 c #ffffff",
"b2 c #ffffff",
"b3 c #ffffff",
"b4 c #ffffff",
"b5 c #ffffff",
"b6 c #ffffff",
"b7 c #ffffff",
"b8 c #ffffff",
"b9 c #ffffff",
/* pixels */
".1.1.1.1.1.1.1.1.1.1.1.1.1.1.1.1.1.1.1.1.1.1.1.1.1.1.1.1.1.1.1.1.1.1.1.1.1.1.1.1.1.1.1.1.1.1.1.1",
".1.1.1.1.1.1.1.1.1.1.1.1.1.1.1.1.1.1.1.1.1.1.1.1.1.1.1.1.1.1.1.1.1.1.1.1.1.1.1.1.1.1.1.1.1.1.1.1",
".1.1.1.1.1.1.1.1.1.1.1.1.1.1.1.1.1.1.1.1.1.1.1.1.1.1.1.1.1.1.1.1.1.1.1.1.1.1.1.1.1.1.1.1.1.1.1.1",
".1.1.1.1.1.1.1.1.1.1.1.1.1.1.1.1.1.1.1.1.1.1.1.1.1.1.1.1.1.1.1.1.1.1.1.1.1.1.1.1.1.1.1.1.1.1.1.1",
".1.1.1.1.1.1.1.1.1.1.1.1.1.1.1.1.1.1.1.1.1.1.1.1.1.1.1.1.1.1.1.1.1.1.1.1.1.1.1.1.1.1.1.1.1.1.1.1",
".1.1.1.1.1.1.1.1.1.1.1.1.1.1.1.1.1.1.1.1.1.1.1.1.1.1.1.1.1.1.1.1.1.1.1.1.1.1.1.1.N.M.x.i.1.1.1.1",
".1.1.1.1.1.1.1.1.1.1.1.1.1.1.1.1.1.1.1.1.1.1.1.1.1.1.1.1.1.1.1.1.1.1.1.1.1.1.F.U.N.o.e.D.1.1.1.1",
".1.1.1.1.1.1.1.1.1.1.1.1.1.1.1.1.1.1.1.1.1.1.1.1.1.1.1.1.1.1.1.1.1.1.1.1.1.L.Y.K.g.d.D.1.1.1.1.1",
".1.1.1.1.1.1.1.1.1.1.1.1.1.1.1.1.1.1.1.1.1.1.1.1.1.1.1.1.1.1.1.1.1.1.1.1.Q.0.C.#.d.D.1.1.1.1.1.1",
".1.1.1.1.1.1.1.1.1.1.1.1.1.1.1.1.1.1.1.1.1.1.1.1.1.1.1.1.1.1.1.1.1.1.H.X.0.p...d.D.1.1.1.1.1.1.1",
".1.1.1.1.1.1.1.1.1.1.1.1.1.1.1.1.1.1.1.1.1.1.1.1.1.1.1.1.1.1.1.1.1.M.Z.0.n...d.D.1.1.1.1.1.1.1.1",
".1.1.1.1.1.1.1.1.1.1.1.1.1.1.1.1.1.1.1.1.1.1.1.1.1.1.1.1.1.1.1.F.T.0.0.n...d.D.1.1.1.1.1.1.1.1.1",
".1.1.1.1.1.1.1.1.1.1.1.1.1.1.1.1.1.1.1.1.1.1.1.1.1.1.1.1.1.1.I.Y.0.0.n...d.D.1.1.1.1.1.1.1.1.1.1",
".1.1.1.1.1.1.1.1.1.1.1.1.1.1.1.1.1.1.1.1.1.1.1.1.1.1.1.1.1.Q.0.0.0.n...d.D.1.1.1.1.1.1.1.1.1.1.1",
".1.1.1.1.1.1.1.1.1.1.1.1.1.1.1.1.1.1.1.1.1.1.1.1.1.1.1.H.V.0.0.0.u...d.D.1.1.1.1.1.1.1.1.1.1.1.1",
".1.1.1.1.1.1.1.1.1.1.1.1.1.1.1.1.1.1.1.1.1.1.1.1.1.1.M.Z.0.0.0.B...d.D.1.1.1.1.1.1.1.1.1.1.1.1.1",
".1.1.1.1.1.1.1.1.1.1.1.1.1.1.1.1.1.1.1.1.1.1.1.1.F.R.0.0.0.0.B...d.D.1.1.1.1.1.1.1.1.1.1.1.1.1.1",
".1.1.1.1.1.1.1.1.1.1.1.1.1.1.1.1.1.1.1.1.1.1.1.I.X.0.0.0.0.B...d.D.1.1.1.1.1.1.1.1.1.1.1.1.1.1.1",
".1.1.1.1.1.1.1.1.1.1.1.1.1.1.1.1.1.1.1.1.1.1.P.0.0.0.0.0.B...d.D.1.1.1.1.1.1.1.1.1.1.1.1.1.1.1.1",
".1.1.1.1.1.1.1.1.1.1.1.1.1.1.1.1.1.1.1.1.F.V.0.0.0.0.0.B...d.D.1.1.1.1.1.1.1.1.1.1.1.1.1.1.1.1.1",
".1.1.1.1.1.1.1.1.1.1.1.1.1.1.1.1.1.1.1.M.Z.0.0.0.0.0.B...d.D.1.1.1.1.1.1.1.1.1.1.1.1.1.1.1.1.1.1",
".1.1.1.1.1.1.1.1.1.1.1.1.1.1.1.1.1.F.R.0.0.0.0.0.0.B...d.D.1.1.1.1.1.1.1.1.1.1.1.1.1.1.1.1.1.1.1",
".1.1.1.1.1.1.1.1.1.1.1.1.1.1.1.1.I.X.0.0.0.0.0.0.B...d.D.1.1.1.1.1.1.1.1.1.1.1.1.1.1.1.1.1.1.1.1",
".1.1.1.1.1.1.1.1.1.1.1.1.1.1.1.P.Z.0.0.0.0.0.0.B...d.D.1.1.1.1.1.1.1.1.1.1.1.1.1.1.1.1.1.1.1.1.1",
".1.1.1.1.1.1.1.1.1.1.1.1.1.F.U.0.0.0.0.0.0.0.O.h.j.G.L.L.L.L.L.L.z.v.A.1.1.1.1.1.1.1.1.1.1.1.1.1",
".1.1.1.1.1.1.1.1.1.1.1.1.1.1.1.1.1.1.1.1.F.X.0.0.0.0.0.0.0.0.0.u...e.A.1.1.1.1.1.1.1.1.1.1.1.1.1",
".1.1.1.1.1.1.1.1.1.1.1.1.1.1.1.1.1.1.1.F.X.0.0.0.0.0.0.0.0.J.f.#.t.1.1.1.1.1.1.1.1.1.1.1.1.1.1.1",
".1.1.1.1.1.1.1.1.1.1.1.1.1.1.1.1.1.1.F.X.0.0.0.0.0.0.0.W.r...g.D.1.1.1.1.1.1.1.1.1.1.1.1.1.1.1.1",
".1.1.1.1.1.1.1.1.1.1.1.1.1.1.1.1.1.F.X.0.0.0.0.0.0.0.J.c.b.v.1.1.1.1.1.1.1.1.1.1.1.1.1.1.1.1.1.1",
".1.1.1.1.1.1.1.1.1.1.1.1.1.1.1.1.F.X.0.0.0.0.0.0.W.l...k.D.1.1.1.1.1.1.1.1.1.1.1.1.1.1.1.1.1.1.1",
".1.1.1.1.1.1.1.1.1.1.1.1.1.1.1.F.X.0.0.0.0.0.0.E.a.d.v.1.1.1.1.1.1.1.1.1.1.1.1.1.1.1.1.1.1.1.1.1",
".1.1.1.1.1.1.1.1.1.1.1.1.1.1.F.X.0.0.0.0.0.S.l...m.1.1.1.1.1.1.1.1.1.1.1.1.1.1.1.1.1.1.1.1.1.1.1",
".1.1.1.1.1.1.1.1.1.1.1.1.1.F.X.0.0.0.0.0.y.a.d.x.1.1.1.1.1.1.1.1.1.1.1.1.1.1.1.1.1.1.1.1.1.1.1.1",
".1.1.1.1.1.1.1.1.1.1.1.1.F.X.0.0.0.0.S.h.#.o.1.1.1.1.1.1.1.1.1.1.1.1.1.1.1.1.1.1.1.1.1.1.1.1.1.1",
".1.1.1.1.1.1.1.1.1.1.1.F.X.0.0.0.0.u...e.A.1.1.1.1.1.1.1.1.1.1.1.1.1.1.1.1.1.1.1.1.1.1.1.1.1.1.1",
".1.1.1.1.1.1.1.1.1.1.F.X.0.0.0.O.f.#.q.1.1.1.1.1.1.1.1.1.1.1.1.1.1.1.1.1.1.1.1.1.1.1.1.1.1.1.1.1",
".1.1.1.1.1.1.1.1.1.F.X.0.0.W.r...g.D.1.1.1.1.1.1.1.1.1.1.1.1.1.1.1.1.1.1.1.1.1.1.1.1.1.1.1.1.1.1",
".1.1.1.1.1.1.1.1.F.X.0.0.J.c.b.t.1.1.1.1.1.1.1.1.1.1.1.1.1.1.1.1.1.1.1.1.1.1.1.1.1.1.1.1.1.1.1.1",
".1.1.1.1.1.1.1.F.X.0.W.n...k.D.1.1.1.1.1.1.1.1.1.1.1.1.1.1.1.1.1.1.1.1.1.1.1.1.1.1.1.1.1.1.1.1.1",
".1.1.1.1.1.1.F.X.0.E.a.b.v.1.1.1.1.1.1.1.1.1.1.1.1.1.1.1.1.1.1.1.1.1.1.1.1.1.1.1.1.1.1.1.1.1.1.1",
".1.1.1.1.1.F.X.Y.w...m.1.1.1.1.1.1.1.1.1.1.1.1.1.1.1.1.1.1.1.1.1.1.1.1.1.1.1.1.1.1.1.1.1.1.1.1.1",
".1.1.1.1.F.X.R.s.d.x.1.1.1.1.1.1.1.1.1.1.1.1.1.1.1.1.1.1.1.1.1.1.1.1.1.1.1.1.1.1.1.1.1.1.1.1.1.1",
".1.1.1.1.U.L.t.o.1.1.1.1.1.1.1.1.1.1.1.1.1.1.1.1.1.1.1.1.1.1.1.1.1.1.1.1.1.1.1.1.1.1.1.1.1.1.1.1",
".1.1.1.1.1.1.1.1.1.1.1.1.1.1.1.1.1.1.1.1.1.1.1.1.1.1.1.1.1.1.1.1.1.1.1.1.1.1.1.1.1.1.1.1.1.1.1.1",
".1.1.1.1.1.1.1.1.1.1.1.1.1.1.1.1.1.1.1.1.1.1.1.1.1.1.1.1.1.1.1.1.1.1.1.1.1.1.1.1.1.1.1.1.1.1.1.1",
".1.1.1.1.1.1.1.1.1.1.1.1.1.1.1.1.1.1.1.1.1.1.1.1.1.1.1.1.1.1.1.1.1.1.1.1.1.1.1.1.1.1.1.1.1.1.1.1",
".1.1.1.1.1.1.1.1.1.1.1.1.1.1.1.1.1.1.1.1.1.1.1.1.1.1.1.1.1.1.1.1.1.1.1.1.1.1.1.1.1.1.1.1.1.1.1.1",
".1.1.1.1.1.1.1.1.1.1.1.1.1.1.1.1.1.1.1.1.1.1.1.1.1.1.1.1.1.1.1.1.1.1.1.1.1.1.1.1.1.1.1.1.1.1.1.1"
};
