/* XPM */
static char * stock_button_grayed_xpm[] = {
/* width height num_colors chars_per_pixel */
"20 20 51 1",
/* colors */
" 	c None",
".	c white",
"X	c black",
"o	c #090909",
"O	c #3f3f3f",
"+	c #676767",
"@	c #797979",
"#	c #5b5b5b",
"$	c #313131",
"%	c #494949",
"&	c #939393",
"*	c #9d9d9d",
"=	c #969696",
"-	c #848484",
";	c #6f6f6f",
":	c #636363",
">	c #272727",
",	c #ababab",
"<	c #bababa",
"1	c #b7b7b7",
"2	c #8d8d8d",
"3	c #7f7f7f",
"4	c #5d5d5d",
"5	c #adadad",
"6	c #c6c6c6",
"7	c #d1d1d1",
"8	c #c8c8c8",
"9	c #b1b1b1",
"0	c #999999",
"q	c #525252",
"w	c #222222",
"e	c #0f0f0f",
"r	c #bfbfbf",
"t	c #d4d4d4",
"y	c #e2e2e2",
"u	c #474747",
"i	c #d8d8d8",
"p	c #e8e8e8",
"a	c #4d4d4d",
"s	c #727272",
"d	c #cdcdcd",
"f	c #a4a4a4",
"g	c #767676",
"h	c #404040",
"j	c #838383",
"k	c #555555",
"l	c #898989",
"z	c #696969",
"x	c #2f2f2f",
"c	c #363636",
"v	c #3b3b3b",
/* pixels */
"                    ",
"      .XXXXX        ",
"    .XoO+@#$XX      ",
"   .o%&*=-@;:>X     ",
"   o:,<1,23;:4$X    ",
"  X%5678903;+4qwX   ",
"  e0rty7<03++#q%X   ",
" Xu,6ipi1=@+:4qa>X  ",
" Xs,r6drf2g::#qahX  ",
" Xj*595f23;:##k::X  ",
" X+&*0&l3;:#k#z3zX  ",
" XO3l-3;;+4#kzj2uX  ",
"  X;@g;;+4##z3&jX   ",
"  Xx+zz::#4;j&lcX   ",
"   Xv44444sj&luX    ",
"    X>q4+gjl3cX     ",
"     XXc#gzOoX      ",
"       XXXXX        ",
"                    ",
"                    "};
