/* XPM */
static char *magick[] = {
/* columns rows colors chars-per-pixel */
"48 48 91 1",
"  c #010101",
". c #080b06",
"X c #354524",
"o c #374825",
"O c #394a27",
"+ c #3b4e29",
"@ c #3e502a",
"# c #42552c",
"$ c #455a2f",
"% c #475c30",
"& c #495e31",
"* c #4b6233",
"= c #516937",
"- c #556f3a",
"; c #57713b",
": c #5a753d",
"> c #5e793f",
", c #5e7544",
"< c #5f7b40",
"1 c #607747",
"2 c #617749",
"3 c #617d41",
"4 c #647a4c",
"5 c #677b51",
"6 c #697d53",
"7 c #658344",
"8 c #688746",
"9 c #698847",
"0 c #6c8c49",
"q c #6f904b",
"w c #71865a",
"e c #72944d",
"r c #75984f",
"t c #769950",
"y c #799d52",
"u c #7c9660",
"i c #7da355",
"p c #839e65",
"a c #80a657",
"s c #81a759",
"d c #84a95c",
"f c #8cb45f",
"g c #87ab60",
"h c #8aac64",
"j c #8daf68",
"k c #8eb06a",
"l c #91b26e",
"z c #93be64",
"x c #95b473",
"c c #98b677",
"v c #99b778",
"b c #9cb97c",
"n c #97c366",
"m c #99c668",
"M c #9ccb6a",
"N c #a5d273",
"B c #abd67b",
"V c #9fbb80",
"C c #a2bd83",
"Z c #a4bf88",
"A c #a6c18b",
"S c #a9c38e",
"D c #adc593",
"F c #b0c897",
"G c #b3ca9c",
"H c #b2db84",
"J c #b5de89",
"K c #b7cca1",
"L c #bacea4",
"P c #bdd1a9",
"I c #b9e08e",
"U c #bde394",
"Y c #c0e597",
"T c #c2e69a",
"R c #c6e99e",
"E c #c7eaa1",
"W c #caeca5",
"Q c #cdeeaa",
"! c #cff0ac",
"~ c #d0f0ae",
"^ c #d4f3b3",
"/ c #daf7bb",
"( c #dbf9bd",
") c #defbc1",
"_ c #e1fdc5",
"` c #e6ffca",
"' c #eaffcd",
"] c #eeffd1",
"[ c #f3ffd6",
"{ c Gray100",
"} c None",
/* pixels */
"{{[(!WW~^/^~QQWEEEEEETTE^EW~^^^)___(~EUJUTEEEUwu",
"{{[_//_``/~WQWTEEEQTUUTTWUTEWQ~/((/^EJHHUTRRYUpj",
"]'GGGLPPKDZZZZCVVbCVcxZZbbVVZZZZSDDSZxccxxxbvV54",
")_GGLPPLDDZZZZCCVVbZbZCVVVVZZSDASGFDAZbbxcxcbv65",
")_GLLPLGDZZZZZZZZVbCcbSZZZZZSDSDDGFDADAZbccvxc65",
"(`LLLLFAZZZDZCcVVbZblZbZZGDSDFGDDFFDSDSAVbbbxx55",
"^(FFFDAAZZZZCccVcxZCCZZKDDDSSDZSADDDDDDFDVVbxc45",
"QQADACCCCCZVxvvjcVZVDZDDSZZVVVVZADDDDFFFDVVcxx54",
"QWAAZVbbbVVllxxhbbbCZVZVVVVZVVVADDDDDDDFDSbbCc55",
"RRVbbvbbbbxllllhkglxxccbcxZVVVVVZAADADDFFDCclc24",
"JUbvvcvbblllxvxlheikkcbcglhlVbVVbVZZZAADDDCblb54",
"UYbcccxljclcvbcxkijvvcbcr0800tVZbVCCVZASDDZCcl22",
"IJvvxjjhhlxxxxcxcxAVAFVck00qijSKFCCbbVCZSDSCbx22",
"JIxxxxjhjjlllxvvGGSZAZDcgyyyhcbbbCCCbbCCZSDCbc42",
"JJxxlljhghjjjlxVAAZCZVVcgigdgxxcxvbVbZFFZSZCcl11",
"HHjjjhhhhhhggjlvbCbbVVVZkjggijcVZbbZZbbCZSZCcl1,",
"BBjhhgdgddgdggjlxcvvvcvcdidggjcCZbVADAvbbZZCbx1,",
"NNidgddasaacxddjjlkjhjlgiyerydxvckxcjjcbbbbbbc25",
"NNdhdtshhxbxcxccvxvcjkhdiidt;>eigkvkxcAAvcvcxc66",
"NMi0:<tiggddsggkjkkgdiiyydigd0eiticgcxvcxcxlxl41",
"MMie70idddddsddhghjgdigteedgasr0hddhcxgkljlllk11",
"dhqyrtyyrtytyasdhggggddyte07ryi0daqcxZZVccgljk14",
"ynyriye9937>798qtiiyr0t0tye009qe03;7ilcvvvlccj,2",
"iMdsiiiiq73-;;>9qee0<-33-q00700>3777tcAVbdjlbx1:",
"dniiiyrre07:3>ee>9009773;;:7<<8eiig7qkxhdjjhid44",
"szyyyyrree098qqrrshdy7:--3ryeqeytsgeesjkjggjjg,4",
"idererreeeqqqeeetidgddy3:eye00qe878yttdgjjjjgg,,",
"ee000eeeqqeqqerrtyiddyi80t08rreeqq7ee0qihghkjj,4",
"rq8900000qq00eertiiddat00riit0yiye0703,0idghgk14",
"ii999q00990000eetyiasdirriiir0eetiq907007erdff,,",
"aa0900009990900eryyyasiyyiay0770q0e08770r0889e=;",
"sa03900999990900eeryiiiyyyie97:90700q<38000777$%",
"sa08999988800800qeryiyyyyyyre7<7838q3887rrrr87%$",
"sa88900989990080qeerrrrerrrre008rq<:;>7<780087*%",
"aa889000099990900qeeeqeeeerrrrreeqq:=-<788qqq8$$",
"aa88990009999000000e000qq0erryrrree87787q0qeer=*",
"ia899989q088999q0q08770q0qeeerryrrrq08qeeerree&$",
"yi78098800989909087777808qqeerrrrrrrreeeeerrre%%",
"yi8888888888899988778000800eqerrrrrrerrrerrrre*$",
"iy3777738888888877880e00888800eerryrrryrrrrrrr**",
"yy7777333377778377800007788000qqeerrrrrrereeee*%",
"yy<73733333773733<778873778800009qqeqeqeereeqq$$",
"tt<<33333>3333>3<<<<<7<<<377888888999q0qeqqq08#@",
"rr<<<<<333333>>>><>:>>><<<<37777737899qqqqq887@@",
"rr>>><<<>>>>:>>>:::;::>>>><<3<<<><77789909998<#$",
"0q::>>>>>:::;::;:-;;;::>:::>><>>>><778889987<<@+",
"+*O++++++++++OoOoooooo+++++++@++@@@##$$#$##@+o. ",
"$=OO+++O+OooXXXXXXXXoo+++++++++++@@@@@@##@@@+X  "
};
