/* XPM */
static char *magick[] = {
/* columns rows colors chars-per-pixel */
"48 48 58 1",
"  c #2a1d22",
". c #2d2024",
"X c #34252a",
"o c #3a292f",
"O c #3d2b32",
"+ c #422f2f",
"@ c #402d34",
"# c #443131",
"$ c #4b3636",
"% c #4e3738",
"& c #4f3839",
"* c #52393f",
"= c #553c41",
"- c #583f44",
"; c #5b4046",
": c #5e4349",
"> c #61454b",
", c #65484e",
"< c #77565d",
"1 c #7b5661",
"2 c #7f5a65",
"3 c #815c67",
"4 c #855e6a",
"5 c #876066",
"6 c #886167",
"7 c #8c646b",
"8 c #91676e",
"9 c #93686f",
"0 c #956a77",
"q c #976d79",
"w c #986f7b",
"e c #9b737e",
"r c #9d7581",
"t c #9f7a82",
"y c #a27d85",
"u c #a68189",
"i c #a9868d",
"p c #ac8b92",
"a c #b08f96",
"s c #b09197",
"d c #b2939a",
"f c #b5989e",
"g c #ba9da3",
"h c #bda4a4",
"j c #c0a7a8",
"k c #c2aaab",
"l c #c5aeb6",
"z c #c7b0b8",
"x c #c9b3ba",
"c c #cebbc2",
"v c #d1bec5",
"b c #d3c0c7",
"n c #d5c4ca",
"m c #d8c7cd",
"M c #dacccc",
"N c #ddd0d0",
"B c #e4d9d9",
"V c #e9e0e0",
/* pixels */
"xxhhhhkhhhhghhhhhhhhhhhhhhhhhhhhgggghhhhzzzhghdd",
"hVBbvvcccbbbbbnnnnnnnnnMNNNMNMnnnnnnnMMMNNMmmh5=",
"hMlddddappppppssdsdfddduuuuerw980wwrtuipitrqey:*",
"gnprettrreeeetuuutuuuuuuuueerw88wrrtuiiurqqrie#&",
"gndrrtyttetttuttttuuteeeuterew00rttuiiuw0wrtiq#$",
"gnftryyyuutttutttuuttreuutrrrw0wrttiiir0wtuuu7O$",
"gnfyryyyuutetuututtrretuutrerwwettuiiyqqtuuuu0O*",
"gndutyyyuuttuuuttteeeuuuutrtrwettyiiir0rtuttuq#*",
"fndiyrtyuyrtuuuuuewetuuuutrerrrttuiiuqqtyytupr#$",
"gbditqrtuytuuuuutuetuuuuuerrrerttuiir0rtttupdwO#",
"gnautwtyuttuuuuuuuttuuuuurwwwwrrtipirqtttupfd8O$",
"gnautryyuutuuutuueetuuuutwwwwweeuppyqqttyidsi7O=",
"gndyutyuuttutttteetuuuiurwwqweruppur0rttuppit5O$",
"gbpttuyyuetyttttuueuuuutwwwwetuppirqwtyuipput2o$",
"gnprtuutertyutuuuuttuutrrreerupsirwwtyyupaput2o$",
"hbptuiuwertyutuiuutuuutrttretisptqryiuipaputr<o&",
"hnpuipuwwewuuuipuutuuueeueweuipuwwuispppurwq0<O=",
"fnpuisuweeeuuuppuutuuuettewwuiiuqwussuuuq0w0e6O;",
"fbpuisiweeeuuuiuutttuuueewweuiue0tusuwr07qwru8O;",
"fbpippieweuuuuiiuteuuueeeewuuiuwweuiu8q00rrtu8O=",
"fcsispu22wuuiiiiuttuuteuuw0uuiuweuuie770wrutu7O=",
"fcsisu22uuuuiippuuuuteetw0wuiiuweuiuw7qettttu2o$",
"fbsipuw2weuuiipiuteeewww0wruiur0tupu0qeuttttu6o$",
"hnpuuuw2eeuuuiiiueewwwwwwwuupuwwuppt0etttutuu6o&",
"hnuuurwwuuuuuuiiurwwrrwrrruuiu2uipiw0ututetuu7O&",
"hniuuuerruuuuupirwww22r2uuuuurruipu9wutuuuttu7O$",
"hMiuwuuwuuuuuuiur0w0ruuuuuiurwruipuqetuttuuuu5O&",
"xNiuwuueruuuuuuurwr2wuuuuuuuwwuupputeututtttu6O&",
"hnuuuuwwruuuuuuurrw0ruuuiuuwruuuiputtetututuu7O&",
"hnttuuuuuuruuuuur2wwuuuuiur2uuuuuuqqeeettttuu7O$",
"xMueeuuuuuuuuiiur70wuuiiiuwuwuwuteqqeeeeteuuu6O&",
"hMtweuuuruuuiiur700ruiiuuru2uuuwttetuueeuutuu7#-",
"cmuueuuuwttuupu2wwruuuuuwwrutututttuttttuuiiiw+;",
"xMuueuueeetuupiewrruuuuueeeutttttutuuttuuipsp2o$",
"hnrruuueewuuiiieww2uuuuueeuueutuuututtttttuuu2X$",
"hcuueuuuuuuuiiue82uuuuuueuueuuuettttuttuuw227<X$",
"xMuuuruuetuuiuut2euuuuuuuuutuuuutttuttttuewwe2o$",
"lMuuwueuuuuuuuuewwuuutuuteuuutwwtettutttttteu2O&",
"lmuuwuuuuuuuuue2wwuuuteuttuuuuwueetttutttuttu2O$",
"lMuuuweuutuuuuuuu2weuuuuttuuu2wuttututtutttuu7O;",
"hnueueeuuuiiuttereueuuuuwuuuur2rtttyytytttttu2O=",
"hntuuuweuuiputteruueuuwwuuuuuruwettytttyteetu2O&",
"xMueuewuuiiuuueerwwuuuwuuwrwuwrutttttttyuttui7O=",
"lMueueuuppputtwwwwuruuuuuurwuuuutttytttyuuuui8O=",
"xnutuwuispiueww2wruuuipu2uwuspuutyuyyuyuiiiiu7O&",
"ccueuuuppuuuwwwwwuuuuuiuuru222226765666777676<O&",
"hi-.XoOOoX        ..  ..    OOoOoooooooooooooX.&",
"2:=@$*--=*;-=--=:::::::;;;;;>,,,:::::>>>>:>>:;$,"
};
