/* XPM */
static char *magick[] = {
/* columns rows colors chars-per-pixel */
"48 48 98 2",
"   c #242a26",
".  c #252c29",
"X  c #2d3631",
"o  c #353a34",
"O  c #33413d",
"+  c #38433d",
"@  c #354541",
"#  c #3a4641",
"$  c #3b4b46",
"%  c #3c4e49",
"&  c #3e514b",
"*  c #454d45",
"=  c #434f49",
"-  c #484f46",
";  c #42524c",
":  c #4a544c",
">  c #465953",
",  c #465d58",
"<  c #4c5b54",
"1  c #525c53",
"2  c #47605b",
"3  c #49615b",
"4  c #54635b",
"5  c #5c655c",
"6  c #5e685e",
"7  c #4c6660",
"8  c #546f69",
"9  c #567069",
"0  c #5b746c",
"q  c #60776e",
"w  c #62786f",
"e  c #657a71",
"r  c #6a7e73",
"t  c #66857d",
"y  c #6e8175",
"u  c #68877e",
"i  c #6a887f",
"p  c #718377",
"a  c #748579",
"s  c #78877a",
"d  c #7c8a7c",
"f  c #6d8a81",
"g  c #728e83",
"h  c #769085",
"j  c #799287",
"k  c #7d9588",
"l  c #828e7f",
"z  c #868e83",
"x  c #80978a",
"c  c #849a8c",
"v  c #8a9d8f",
"b  c #8c9f90",
"n  c #909c93",
"m  c #999d97",
"M  c #8ea191",
"N  c #93a493",
"B  c #98a796",
"V  c #9aa997",
"C  c #9dab98",
"Z  c #a2ae9a",
"A  c #a6b19c",
"S  c #aab39e",
"D  c #a5aba2",
"F  c #aeb6a0",
"G  c #adb9ab",
"H  c #aebbb0",
"J  c #b0b7a1",
"K  c #b3baa3",
"L  c #b4bdab",
"P  c #b9bea6",
"I  c #b2beb2",
"U  c #b7beb9",
"Y  c #bcc0a7",
"T  c #bdc1aa",
"R  c #b6c1b4",
"E  c #bcc4b4",
"W  c #bfc7b8",
"Q  c #c1c3aa",
"!  c #c2c6b2",
"~  c #c0c7b9",
"^  c #c6c9b4",
"/  c #c4cabb",
"(  c #caccb7",
")  c #cbcebd",
"_  c #ced1bf",
"`  c #ced1c0",
"'  c #d2d4c2",
"]  c #dde2dc",
"[  c #dfe4e0",
"{  c #e0e1d3",
"}  c #e1e5df",
"|  c #e8e8df",
" . c #e2e6e1",
".. c #e5e9e3",
"X. c #ebece5",
"o. c #eceee9",
"O. c #eff0eb",
"+. c #f1f2ed",
/* pixels */
"+.o.| X.X.o.X.X.| | | | ..| | ..X.X.o.+.O.o.o.O.+.+.O.o.o.O.o.X.| | | } ] } | } ..X.X.o.o.O...m ",
"+., 9 8 9 9 9 9 0 0 0 0 0 0 0 0 0 q q q w w w w w e w e e r r r y y y y y y y y y y y p p p b 5 ",
"o.9 t t t t t t i i i i i f g f a g g g g h h h h h h h h k j x x x x l x c c c c x v v v v G o ",
"o.9 t t t t t i i i i f i a g g g g g g h h h h k k k k k k x x x x c c x c c c c v v v v M G * ",
"X.9 u i u i i i f i f i g f g d g g g h h j h h h k j k j x x x l c c c c c c v v v v v M M G * ",
"X.9 u i i i i i f f f g g g g g g g h g h h j h k k x x x x x x c c c c c l v v v v v v M M G - ",
"+.0 i i i i a i f f i g g g h g g h j j j k k k k j z x x x x x c c c c v v v v v v M M M M G 1 ",
"X.0 i i i i i g a g g g g g h h j j j j j x k k x x x x x x c c c c c v v v v b v v M M M N G 5 ",
"X.0 i i f g g f g g g g d h h h h h k k k k k x x x x x c c c c c v v v v v b b v v M n N N I 5 ",
"o.0 g i f g a g g g g g h h h h k j k k k k k x x x x c c c c v c v v v v v b M M N N N N N I 6 ",
"X.q i g a g g g g g h h h h h h k k d k k x x x x x c c c c v v v v v b M M M M N N N N N N I 5 ",
"o.w i g g g g g h g h j h k k h j k k x x x z c x c c c v c v v v b b b M M M M N N N N N N I 1 ",
"o.q f g g g g h j j h j j k k k k k k x z c c c c c c c v v v v b b b b n n M N N N N N B B I : ",
"X.q g g g h h h j j j j j k k k k k x x c c c c c c v v v v v v b M M N M N N N N N N B B B I * ",
"o.w d h h h h h j j j j x k x x x x x c c c c c v v v v b b b b b M M M N N N N N B B B B V U : ",
"o.w h h h h h k j j j x x x x x x x c c l c c v v v v b b b M b M N N N N N N B B B B V V V R : ",
"o.w h h d j j k k k k l x x l c c c c c c v v v v v b b b M M M N n N N N N B B B B V V V C U : ",
"o.w h h k j k k k k k x x c c c c c c c c v v v v v b M M M M N N N N N N B B V B B Z V C C E : ",
"o.y h j k k k k k x x x x c c c c c c b v v v v M M M M M N N N N N B B B B B V B V V Z C Z E : ",
"o.y h k k k k x x x x c c c c l v c c b v b v M M M M M N N N N n N B B B V V V Z V B Z C Z E : ",
"o.w j k d x x x x x x c c c v v v v v v v M M M l N N N N N N N B B B B V V V C Z Z Z V Z Z E < ",
"X.y k k x x x x c c c c c v v v v v v v M M M M N N N N N N B B B B B B C V C C B Z Z Z Z Z E < ",
"..y k k x x c c c c c c l v v v v v M M M M M M N B N N N N B B V V V C C C C Z Z Z Z Z Z A ! < ",
"| y k k c c c c c c c c v v v b M M M M M N N N N B N N V N V V V C V C C C Z Z Z Z Z Z Z A ! 1 ",
"} y x x c c c c l M v v v v b b M N l N l N B C N B N B V B V V V C C C C Z Z Z Z Z A A A S ~ 4 ",
"..y x x c c c v v v v M b v b M M N N N V B B l B B N V V V C C C C C Z Z Z Z Z Z A A A A S ~ 4 ",
"..y x c c c v v v v l v b M M M N N N N V N B N B B B V B C C C C Z Z Z Z Z D Z A A A A S S ~ 1 ",
"..y c c v c v v v M M M M M M M N N N N N V B B B V V V C C C C C Z Z Z Z Z Z A A S S S S S / < ",
"| p c v v v v v N M M M N N N N N N N N N B B B B B C C C C C Z Z Z Z Z A A Z A A S F S S S / < ",
"{ a c c v v v v l M N N N N N N N N N B B B B B C C C C C Z Z Z Z Z A Z A A D A S F S F S J / : ",
"} p c v v b b b M M M M N N N N N N B B B B B C C C C C Z Z Z Z Z Z A A S A A F A S F F J J / = ",
"] a v b b b M M M M N N N N N N V N V V B C C C C C Z C Z Z Z Z A A A A S S A F F F F F J K / = ",
"] p b b M M M M M N N N N N B B B B V V V C C C Z C Z Z Z Z A A A S A S A F F F F F F J K K / ; ",
"] a b b M M N N N N N N B B B V V V V V C C C C Z Z Z Z A A A A D S A F F F F F F F F F K K ) ; ",
"] s M M M M N N N N N N B B B V V C C C C Z C Z Z Z Z D A A A A A S F S F F F F F F K K K K ) ; ",
"] s M N N N N N N N B B B B V C C C C C C Z Z D Z A Z Z A A S A F S F F F F F J F K K K K K ` & ",
"] s N N N N N B N B B B V B C C C C Z Z C C Z Z Z F A A F A A S S F F F F F K K K K K K K K ` = ",
"] s N N N N N B B B V V C C C C C C Z Z A Z A A Z A A A S F S D F F F F K K K K K K P K P P ` % ",
"} d N N N B B B V V V V C C C C C Z C Z A A A A F A S A F F F F F F F F K K K K P P K P P P ) $ ",
"| d N N B B B B V V C C C C Z C C Z A Z A A A A D S F F F F F F F F K K K K K K K P P P P P ` $ ",
" .l B B B B V V V C C C Z Z Z Z Z Z A A A A A S S S S F F F F F J K K K K K P P P P P P P P _ + ",
"] l B B B V V V C C C Z Z Z Z Z A A A A S D S S F S F F F F J K K K K K P P P P P P P P Q Q _ # ",
"] l B V V V V V C Z C Z Z Z Z Z A A A A S S S S F F F J K J K K K K K K P P P P P P T Q Q T ' $ ",
"] l B V V Z C C C Z Z Z Z Z A A A A S A F S F F F F F F K K K K K K K P P P P P P P Q Q Q Q ' % ",
" .l C C C Z Z C Z Z Z Z A A A A A S F S S S S J F J J K K K K K P K P P P P P P Y Q Q Q Q Q _ $ ",
" .z C C Z Z Z Z Z Z Z Z A A A S D F S F S J J J J J K K K K K P P P P P P P Q Q Q Q Q Q Q Q ' O ",
"] D G F G G G G L L L L P P P P I T T T T E L E T U Q ! U ! ! ! ! ! ! ! ^ ^ ^ ( ( ( ( ( ( ( { O ",
"U 9 1 1 - o X                   X o @ # # * ; > < < < : = = = = $ # $ * % % & & & > 3 3 3 7 , $ "
};
