/* XPM */
static char *magick[] = {
/* columns rows colors chars-per-pixel */
"48 48 87 1",
"  c #3d3f3c",
". c #4a4c49",
"X c #5a5c59",
"o c #67725e",
"O c #6a6c68",
"+ c #6c7664",
"@ c #6f7b65",
"# c #71746f",
"$ c #747d6c",
"% c #727570",
"& c #777976",
"* c #7d7f7b",
"= c #77836d",
"- c #79886d",
"; c #778070",
": c #7a8374",
"> c #7f867a",
", c #7e8d71",
"< c #828a7b",
"1 c #839276",
"2 c #86957a",
"3 c #88977c",
"4 c #8a997e",
"5 c #898f83",
"6 c #8b9284",
"7 c #8d9c82",
"8 c #91978d",
"9 c #919f85",
"0 c #939b8b",
"q c #969c92",
"w c #999d94",
"e c #92a087",
"r c #95a38a",
"t c #99a68f",
"y c #9cac8f",
"u c #9ba692",
"i c #9daa93",
"p c #a0ac97",
"a c #a2ad9a",
"s c #a2b395",
"d c #a6b29d",
"f c #a8b19f",
"g c #a5aaa2",
"h c #a9aea6",
"j c #abafa8",
"k c #a7b0a0",
"l c #abb4a3",
"z c #aeb3a9",
"x c #aeb9a5",
"c c #b1b6ad",
"v c #b0baa7",
"b c #b1baa9",
"n c #b6bab3",
"m c #b9bfb3",
"M c #bcbfb9",
"N c #b7c1ae",
"B c #bbc3b3",
"V c #bfc7b8",
"C c #bdc9b5",
"Z c #c1c7bc",
"A c #c3cbbc",
"S c #c6d1bd",
"D c #c6dbb5",
"F c #c8d3be",
"G c #c7cdc1",
"H c #c8cfc2",
"J c #cad2c4",
"K c #ced4c9",
"L c #cedac3",
"P c #d0d6cb",
"I c #d0dbc7",
"U c #d3dbcc",
"Y c #d5dad1",
"T c #d8dfd3",
"R c #d4e5c6",
"E c #d6e1cc",
"W c #daefca",
"Q c #dae4d1",
"! c #dde9d3",
"~ c #e0ebd6",
"^ c #e2ebdb",
"/ c #e6f1dd",
"( c #edf6e6",
") c #f4fbed",
"_ c #fbfff5",
"` c Gray100",
"' c None",
/* pixels */
"RW/!IFSACVSASAASASASSASASADAAAANBJIQ^QQQUJAAbu:0",
"D`_/!LFSJFFSFFFFFFFSJFFFFFANsyyyNQ^!QKIUUJJSZx6-",
"R`^JBbbNbNbbNbNNbNNbNbNbvye34rsAJHAVZVmbNNNbbg<=",
"!)Jbvbvvbbbvvxvvvvvvbvlp423rvAFABBVbbbvvbbbvba<<",
"E^Bvbvvvvvvbvbvbvvvvvfe23ebAAABBBbbbbbbbbbbbbl<5",
"IENbvvvvvvbvbbbbvvvli417aAJABBBbbbbbbbbbbbbvba<6",
"IENvvvvvvbvbbbbbvvde23rNHSAVBbvvbbbbbbbvbbbbbf<6",
"IENvvxxvbvbbbbvvxs414xAJZZVbvbvvbbbbbvvbxbxxxa:5",
"IENvxxvbbbvbbvvxu32rVHZVVNbvbbbvbbbbbvbbxxld92o5",
"ERblxvbbbvvbxxlr13aAGBBBvvbbbbbbbbbbbvbxdr7377$q",
"QEvlvbbvbvvbxle,4bAGZBbbvvbbbbbbbbbbvxa7439ukx8a",
"QLvvNbvvbvbvxr,rVGAZBbbvvbbbbbbbbbvvkr34rdmKKn8g",
"EDBbbbvvbbvxu1iAABBNbbbbbbbbbbbbvvxi73rkAKKKAb6h",
"!QVbbbvbbvvi1uAAVBbxvbbbbbbbbbbbxd737iVKKGAVBa>h",
"~~Vbbvvvvxp7pAAVbbbbbbbbbvbbbbbxu47lZGHGABNNbk:0",
"E~NbbvvbvdtlVVBbbbbvbbvvbbbbbblrrvVGABVVNbbbbk<5",
"LENvvvvvkivBVBbbbbbbbbvbbbbbxdalBAVBBNbbbbbbbl<6",
"LENvvxxlkbBBmbvbbbbbbbvbbbbxiaBBNBNcvvbbbbbbbk<6",
"IENvvvxlbNNbvvvbbbbbbbbbbxxkkVVBNvxbvxbbbbbbbk>6",
"LENvvvxxbmbvvvbvbbbbbbbbbxlbNNBbxbbbcbbxbbxxxk>6",
"LENxxxbbbbbbbbbbbbbbbbbbxxbBbbbbbbbbbxbbbxxbxi+5",
"UENxxbbbbbbbbbbbbbbbbvvvxbNbbbbbbbbbbbbbbxblr1+q",
"EENxxbbbbbbbbbbbvvbbvvvbbbbbbbbbbbbxbbbbxxd937>g",
"QENvxbbbbbbbbbbbvbvxvbbvbbbvbbbbxbbbbxbblr39ixqh",
"QENbbbbbvxvbvbbbvbbvvbbbbvvvvvbvbbbxbxbd93qzVZ8g",
"QENbbbbblxbbbbbbbbvvbbbbbvxxbbbvbbbxbxi77unJHZqh",
"EENbxbbdlnbvbbvbbbvvbbbbvllbbbbvbbvvxi77iBJHKZqh",
"QENbbxuiNNbvbbbbvvvbbbbvadBBbbbbbcvvd39lVKHHKZqh",
"QENxxt9NVBvcbbbbbbbbvvxiiVVNbbbbvvxu77gZJHJKHZqh",
"QENlr,xHVbvvbbbbbbbbvxuuVAVbvbbbvxt29lZHJJHKKZwh",
"QEx91iJVNbbbbbbbbbbbxrrVJVbbbbvvxxllNGGHJJKHJZwh",
"ELt1eGHVbbbbbbbbbbbxr7BKVbvbbbvbxnxxnBZGGGHKKGwh",
"Ed4rBKVmvvbbbbbbvvxr1bPVNbbbbbbbxbbbbxxbbNGKKZwh",
"JsyxKJVbvcbbbbbbvd71dPGBbbbbbbbbbbbbbxvxirNKKZwh",
"LNNGKANbvvvbbbbba77uKKVbbbbbcbvcbbbbbbxx77bKKZwg",
"QQSKKVbbvcvcbbbi37uJYVNbbbbbvvvvbbbbbbba2tGKKGwg",
"!/PKANbbbbbcxbi37iZYJVbbbbbbbvxvbbbxbxxlvVKKKVqg",
"!(TGVvbbbbbvxd77dCYYCbbbbbbbxxvNbbbbbbbbvbbbba5g",
"/)YVbbbbbbvvxe1iCGYGNccbbbbbxdnNbbbbbxbbbbvvx>;g",
"/_IBbbbbbbvvr1tNGJPVbbvvbbblriCNbbbxxbbbbbvxl,$g",
"))HNbbcvbbbd27bGGYPVvvvvvvxr3NHVvvvvbbvvbbbbd,:g",
")(Abbbbvxbxr,dSGGYJBvcvvvxr1tKJBvvvxvbbcbbbblt>g",
")(Bbbbvvxbd17NGGKYAnvbbxkr2rbYVvdr7rvbvvbvvbd6:h",
"^^Nbbbvvbxr1dAGGYKVllu9777tNKKBtreuNJVcvxlir37;h",
"UENvxvvxvd1rNGGJKVi977etilBJKKGnvnVYAi777790ui>w",
"ALnxlllli31iVVVVVNkiikcBGGGGGGGGGGGGBkuiiakzcgO*",
"ibuq8886;@>tggggggggghggggggghhhhhhhhhhhzhhg8# X",
"byr00qt08tghhkhkkzkzzzzzzzzzzzxzkzczccnMMncjw#.&"
};
