/* XPM */
static char *magick[] = {
/* columns rows colors chars-per-pixel */
"48 48 51 1",
"  c #1e1e1e",
". c #232323",
"X c #272728",
"o c #282827",
"O c Gray17",
"+ c #2f2f30",
"@ c #30302f",
"# c Gray20",
"$ c #373739",
"% c #383837",
"& c #3c3c3b",
"* c #3f3f40",
"= c #40403f",
"- c #444443",
"; c #484847",
": c #4c4c4c",
"> c #4f4f50",
", c Gray33",
"< c Gray36",
"1 c #646464",
"2 c #676769",
"3 c #6c6c6c",
"4 c #71716f",
"5 c #747474",
"6 c #787876",
"7 c #7c7c7c",
"8 c #848484",
"9 c Gray55",
"0 c Gray58",
"q c #989896",
"w c Gray61",
"e c #9f9fa0",
"r c #a4a4a4",
"t c #a8a8a6",
"y c #acacac",
"u c #b3b3b4",
"i c #b7b7b8",
"p c #b9b9b7",
"a c #bcbcbc",
"s c #c1c1bf",
"d c Gray77",
"f c #c7c7c9",
"g c Gray80",
"h c #d0d0cf",
"j c #d3d3d3",
"k c #d7d7d8",
"l c Gray86",
"z c Gray89",
"x c #e7e7e8",
"c c Gray92",
"v c #f3f3f3",
/* pixels */
"O#O#$+XX+$$#+OO%####%&%==--&OOOOXX .  XXX**X*:>y",
".llkjkkjfauupasdpadsrttruasapuyuyw0w00ryr00000yk",
".kjjjjjgdywruuadiuaaurwwwryyrrr0089987799999982l",
"Xkjgdddggiryaddffyiduytyyyytyyr0000988899900097k",
"Ojgdiiadauryiafgityuupyauyyyyurw90w089999900905l",
"Offfddsiyyuuuyuuyrtrrrwerwryyywww00e08989009885l",
"Ofdgfdauwyuyuywerrye00990w0qryrwww0998900w09982k",
"Xdufgdurwyyrw000ryrrr000we00yuyrw087889ww099772k",
".dudgayreyyywwqwye0qrryeyyrruuyr9775999wee08772k",
"Xdadauyerwqrryye0080eruruuuyuuyr07789899998877<k",
"Oauurrure00qeyy089eeeyyeypuiuuyr09778988877733<k",
"#dyyrwrw99re0yuyeee00eyyttyuuuuue0837898888733<k",
"#fyyrw0090ee0udiiut090reewwwryure08588998877772g",
"#fytrw00erq9rddauuuy080e099890ew09758988887777<j",
"Ogyrrrwwyuwwuddauuyyq89989878890975289888885551j",
"Oawwrrweyuyrisiuuuyy09eq99889877778775588875551j",
"+u9quiuyrrewiauuuuuye90ee0998888575575378875552g",
"+u0riiurq09eiauuiuuy074689098887872577777755521g",
"#ueyuuureq90yauyuuye98558987587799777898752233<f",
"*ueetyyre00eyuyryr9889879097238900987888222233<g",
"$u0wtyye000eyree98780989ee09517898988888722225<j",
"*uqwqrre9euaau97990098800099933887577777755257<g",
";urwwwe07euiaie58eq0989989009517755777532555551j",
",duyyre09ruyrye58000999090e0712755278752352123<j",
":iyyyye97eurere77809988809972<5755557753353122<k",
";t9qre0937re0e8700998777873<225875333575332122,l",
"-t0re00825998978009885557777778885313577523421,l",
"-y0yyw091<755757998987775278888885313777623211,l",
"*ywyuye8<<57587899988788755575577321357851112<;l",
"*ywyyy06227e879ee09777875575555773135553221,1<>z",
"*uqrre98770r9789908757875575357772133331131><<:z",
";y00098870yu92<799877777557535553131223<<1>><<;l",
"*ie0r0888wrw91<7987578885572235223532<<<,,>>,,;z",
"$dr009878rq991,3775779995552223335552<,,,,,<<,*z",
"$drw777770r05<<152280e885325512255521<<,>,,><<-x",
"$arr0877570812455229ee88722572<23312<111<,:;>,>x",
"&dr097777787775552800975223752<<22331131<>;*;,:z",
";aw857758777557755798555557752122123133<,;>>:,-z",
":u975971578877875558755577773235331<<11<>;>>>:*z",
",u9569717988788757785532577532521111,<,,,,>;>**x",
">u073552787898875557522235533112<121<1:>>,::>-*x",
"*u0933787888755523237577525322<1<<<<<<,>,::,>**x",
"*y9813877899778721<<7777555522<111>>,<<,:>,,>*$z",
"*r6228978857890822255773122511<11<::<<<,:*::***z",
"*e31599599519097115887851<121<<<<<,;>,<<:->;**$c",
"+e3259978951887552378877211<,<><><,;>>,,-:---*#c",
",8<11455661<23342<><2211<<,;;;;::;*;-:;-$$$$#++c",
"yzzzzzzzzzzllllzzzxcxccxzzlzxxzzzzzzzzzxcccxxccv"
};
