/* XPM */
static char *magick[] = {
/* columns rows colors chars-per-pixel */
"48 48 98 2",
"   c #242a26",
".  c #252c29",
"X  c #2d3631",
"o  c #353a34",
"O  c #33413d",
"+  c #38433d",
"@  c #354541",
"#  c #3a4641",
"$  c #3b4b46",
"%  c #3c4e49",
"&  c #3e514b",
"*  c #454d45",
"=  c #434f49",
"-  c #484f46",
";  c #42524c",
":  c #4a544c",
">  c #465953",
",  c #465d58",
"<  c #4c5b54",
"1  c #525c53",
"2  c #47605b",
"3  c #49615b",
"4  c #54635b",
"5  c #5c655c",
"6  c #5e685e",
"7  c #4c6660",
"8  c #546f69",
"9  c #567069",
"0  c #5b746c",
"q  c #60776e",
"w  c #62786f",
"e  c #657a71",
"r  c #6a7e73",
"t  c #66857d",
"y  c #6e8175",
"u  c #68877e",
"i  c #6a887f",
"p  c #718377",
"a  c #748579",
"s  c #78877a",
"d  c #7c8a7c",
"f  c #6d8a81",
"g  c #728e83",
"h  c #769085",
"j  c #799287",
"k  c #7d9588",
"l  c #828e7f",
"z  c #868e83",
"x  c #80978a",
"c  c #849a8c",
"v  c #8a9d8f",
"b  c #8c9f90",
"n  c #909c93",
"m  c #999d97",
"M  c #8ea191",
"N  c #93a493",
"B  c #98a796",
"V  c #9aa997",
"C  c #9dab98",
"Z  c #a2ae9a",
"A  c #a6b19c",
"S  c #aab39e",
"D  c #a5aba2",
"F  c #aeb6a0",
"G  c #adb9ab",
"H  c #aebbb0",
"J  c #b0b7a1",
"K  c #b3baa3",
"L  c #b4bdab",
"P  c #b9bea6",
"I  c #b2beb2",
"U  c #b7beb9",
"Y  c #bcc0a7",
"T  c #bdc1aa",
"R  c #b6c1b4",
"E  c #bcc4b4",
"W  c #bfc7b8",
"Q  c #c1c3aa",
"!  c #c2c6b2",
"~  c #c0c7b9",
"^  c #c6c9b4",
"/  c #c4cabb",
"(  c #caccb7",
")  c #cbcebd",
"_  c #ced1bf",
"`  c #ced1c0",
"'  c #d2d4c2",
"]  c #dde2dc",
"[  c #dfe4e0",
"{  c #e0e1d3",
"}  c #e1e5df",
"|  c #e8e8df",
" . c #e2e6e1",
".. c #e5e9e3",
"X. c #ebece5",
"o. c #eceee9",
"O. c #eff0eb",
"+. c #f1f2ed",
/* pixels */
"+.o.X.X.X.O.X.X.| | | | | X.| | X.X.X.O.O.O.O.O.O.O.O.O.O.O.O.X.| X.X. .} |  .}  .X.X.X.o.o...m ",
"+.{ ( ( ( ( ( ( ( ( ^ ^ ^ ^ ^ ! ! ! ! ! Q Q E E E E T E L L L L P P P L L L L L L G G G F F D 1 ",
"o.' Q Q Q Q Q Q Y Y Y P P P P K K K K K K K J J J F F F F F F D S S A A Z Z Z Z Z Z C C Z V l o ",
"o.' Q Q Q Q Q Q Y Y P P P P K P P K P K J J J J J F S S S F S S A A A A Z Z Z Z Z Z C C V V l * ",
"X._ Q Q Q Y Y Y P P P P P P P K K K J K J J F F F F S S S S A A A Z Z Z Z Z Z Z C C V V V V l * ",
"O._ Y Y Y P Y P P P P K P K K K K K J J J J F F S S S S A A A A Z Z Z Z Z C C Z C C V V V V l * ",
"O._ Y Y Y Y P P P K P P K K K J K J J J F F F S S S D S A A Z Z Z Z Z Z Z C C C V V V V B B d 1 ",
"O._ Y Y P P P P P P K K K J J J J J J F S S S S S A S A A A Z Z Z Z Z C C C C C V V V V B B l 5 ",
"O._ Y Y P P K P K K K K J J J J J F F F F F S S A A A Z Z Z Z Z Z Z C C C V C B V B B B B N d 6 ",
"X._ Y Y P P K K K K K K J J J J F F S S A S A S A A A Z Z Z Z Z C C C C V V V B B B B N N N d 6 ",
"X.( P P K P K K K K K J F F F F F S F S A A D A A Z A Z Z Z Z Z C C V C V V B B B N N N N N d 6 ",
"X.( P P K K K K K J J J F F F F F A S D A A A Z Z Z Z Z Z Z Z V C C V V B B B N N N N N N N s 1 ",
"X.) P K K K J J J J F F F S S S A S A A Z Z Z Z Z Z Z Z V Z V V V V V V B B B N N N N N M M s - ",
"X.) K K K K J J J J F F S S S S A A A A Z Z Z Z Z V Z Z V V V m V V B N B B N N N N M M M M s * ",
"X.( K K K J J J F F S F S S S A A D A Z Z Z Z Z Z V Z V V V V V V B B N N N N N M M M M M b s - ",
"O.( K K J J J J F F S S S A A A A A Z Z Z Z Z Z Z B V Z V V B B N B N N N N N N M M M M M b p : ",
"X.( J J J F S S S S S S A A A A Z A Z Z Z B Z Z B B Z B B B B B N N N N N N N b b b b b v v a 1 ",
"X.^ J J F F S S S S A A A A A Z Z Z Z Z Z Z B B Z B B B B B B N N N N N b N N b b b b b v v p : ",
"X.( J F S S S S S A A A A Z Z Z Z Z Z Z B Z B B B B B B B B N N N N N M N b b b b v b v v c p - ",
"O.^ F S S S S S A A A A Z Z Z Z V Z Z V Z Z B B B B B N N N N N N N M b b b b b v v v v v c p : ",
"X.^ J F S S S A A A Z A Z Z Z Z V Z B B Z B B B B B N N N N N N M M M b b b v v v v v c c c y : ",
"X.^ F A S A A Z A Z Z Z Z C C C V V Z B B B B B m N N N N N N N M M N b b v v v b l v c c c y 1 ",
"X.~ A A A A A A Z Z Z Z C C C C V Z B B B B B B N N N N N N b b M b v v v v v c v v c c c c y 1 ",
"X.~ A A A A Z Z Z Z C C C C C C B B B B B m B N N N N N b N b b b b v v v v v v v l c c l c y 1 ",
" .~ A Z Z Z Z Z Z Z C C C C C B C C B N N N N N N N N b b b b b v v v v c c c c c c c x x x y 4 ",
"..E A Z Z Z Z Z C Z C C C B C C B N N N N N N N b N b b b b b b v v c v v c c c c x x x x k r 4 ",
"..E Z Z Z Z Z Z C C C C B B B B N N N N N N N N N b b b b b v v v v c c c c c c x x x k k k e 1 ",
"..U Z Z Z Z Z V C C B B B B N N B N N N N N M M b b b b v v v v v c c c c x x x x x k k k k e < ",
"} U Z Z V Z V V C B B B B N N N N N N N N M M M b v v v v b v v c c c c c x x x x k k k k j e < ",
"] U V Z V V V V C B B B B N N N N N M M M M b b b v v v v l v z c c x z x x x x k k k h k k w : ",
"] U Z V V V V V B B B B N N N N N N M M M b b M v v v v v c c c c x x x x x k k k k k h h h w = ",
"{ U Z V V V B B B B N N N N N N M M M M M b v M l v v c c c c c x x x x k k k k h k h h h h w = ",
"] U V B B B B B N N N N N N N M M M M v b v v v v c c c c c x x x x x k k k k k h h h h h h w ; ",
"{ U V B B B B N N N N N M M M M M M v v v v v v c c c c c x x x x x k k k k h h h h h g g g q ; ",
"{ U B B B B N N N N N N M M M b M v v v v v c c c c c z x x z k k k k k k h k h h h h g g g q ; ",
"] L B B N N N N N M M M M M b v v v v v c c c c c c x x k k k k k k h h k h h h h h d g g g q ; ",
"] L N N N N N N M M M b b b b v v c c c c c c c x x x x x k k k k k k h h d h g g g g g a g 0 = ",
"] I N N N N M N M M b b b v v v v v c c c c c x x x x k k k k k h h k h h h g g g g g g g f 0 % ",
"] I N N N N b M M N v v v v v c c c c c c c x x x x x k k k k k h h h h h g g g g g g i f f 0 $ ",
"..I N N b n v n b b v v v v v c c c c c x x x x z x k k h h h h h h h h g g g g f a f f i f 0 @ ",
"..L M M M M M b b b v v v c c c c c x x x x x k x j k j j h j h g g g g g g g g f f i i i i 0 # ",
"] K M M M b b v v v v v c c c c c x x x x x x k j k j j h j h g g g g g g g f f f f i i i i 0 @ ",
"] G M b v b b v z v c c c c c c c x k k k k k k j j j h h h g g g g g a f i f f i i i i t i 8 $ ",
" .G b b v v v b v c c c c c c l x x k k k k h h j h h h h h g g g g g g g i i i i i i i t t 8 % ",
" .G M v v v c c c c x x c c l x k k k j k k k h j h h h g g g g g g f f f i i i i t t t t t 8 @ ",
"..G b c c c c c c c x k x x x x k k k k h h h h h h h g g g g g g f f i i f i i u t t t t t 8 O ",
"] b p p p p y p p y y r y y y r r r r e e e w w w q q q q q q 0 0 0 0 0 0 9 9 0 9 9 9 8 8 0 > O ",
"U 5 4 1 * + X                   X o + # # * ; : < < < : ; = % % $ $ $ $ % & & & & > , , 2 7 2 $ "
};
