/* XPM */
static char *magick[] = {
/* columns rows colors chars-per-pixel */
"48 48 96 2",
"   c #1a2b2b",
".  c #213636",
"X  c #293a38",
"o  c #1f4446",
"O  c #264141",
"+  c #204548",
"@  c #254a4c",
"#  c #294444",
"$  c #294748",
"%  c #2a4c4d",
"&  c #264e50",
"*  c #284f50",
"=  c #265154",
"-  c #2c5254",
";  c #2a5759",
":  c #2c5c5f",
">  c #354d4b",
",  c #32504f",
"<  c #345454",
"1  c #335c5d",
"2  c #385756",
"3  c #3b5c5b",
"4  c #375f60",
"5  c #2e6266",
"6  c #2f6468",
"7  c #31696d",
"8  c #3b6363",
"9  c #377377",
"0  c #387477",
"q  c #3c7579",
"w  c #3f787a",
"e  c #446564",
"r  c #476966",
"t  c #4e6462",
"y  c #457376",
"u  c #437a7c",
"i  c #4a7e7f",
"p  c #458a8e",
"a  c #4e8180",
"s  c #488c8f",
"d  c #4c8e91",
"f  c #4f9092",
"g  c #538483",
"h  c #588784",
"j  c #5c8986",
"k  c #5f8b88",
"l  c #549394",
"z  c #599697",
"x  c #5d9999",
"c  c #628d89",
"v  c #649d9b",
"b  c #689f9d",
"n  c #708e8b",
"m  c #7a9d9b",
"M  c #6ba19e",
"N  c #6fa4a0",
"B  c #72a6a1",
"V  c #76a8a3",
"C  c #7baca5",
"Z  c #8c9d9b",
"A  c #80aea7",
"S  c #81afa8",
"D  c #85b1a9",
"F  c #8bb5ac",
"G  c #8fb8ae",
"H  c #8fb7b2",
"J  c #92aba8",
"K  c #91b9af",
"L  c #95bbb1",
"P  c #94bbb9",
"I  c #9abeb3",
"U  c #99bebb",
"Y  c #aabfbe",
"T  c #9dc0b4",
"R  c #9dc1bb",
"E  c #a3c4bc",
"W  c #a8c7bd",
"Q  c #abc9bf",
"!  c #a5c6c1",
"~  c #a8c7c2",
"^  c #accac3",
"/  c #b3cec6",
"(  c #b5d0c7",
")  c #b7d1c8",
"_  c #b9d2c9",
"`  c #cddfd8",
"'  c #cfe0de",
"]  c #d0e1df",
"[  c #d4e4e2",
"{  c #d9e7e4",
"}  c #dce8e6",
"|  c #deeae8",
" . c #e4edea",
".. c #e7f0ee",
"X. c #e9f1ef",
"o. c #ebf2f0",
/* pixels */
"o. .{  . . .| | } ]  .} ]  .]  . . . .............X......... . . . .{ { ]  .} [ }  . . . . . .Z ",
"X.5 y 7 9 9 9 9 q q q q w y q w y w w y y u u u u u u u i i i i i i i i i i i i g g g g g g m t ",
" .9 p p p p p p s s s s s s s f f f f f f l l l l l z l z z z z z z x z v c v v v v v v v b H X ",
" .9 p p p p p p s s s s s f f f f f f f f l l l z z z z z z z x x x x x v v v v v v v v v b P > ",
" .9 p p p p p p s s s s f f f f f f f l l l l z z z z z z z z z x x v x v v v v v v b b b b P > ",
"..9 p s p p s p s s s f f f f f f l l l l l l l z z z z x z x v x x x v v v v b v v b b M M I > ",
"..q s s s s s s s f f f f f f f l l l l l l z z z z z z z x v x x v v v v v b b v b b M M M P 3 ",
" .q s s s s s d f s f f f f l l l l l z z z z z z x x x x z x v v v v v v v b b b b b M M M U e ",
" .q p s d d d d f f f f l l l l l l l z z z z z x x x v x x v v v v v v b b b b b b M M M N U r ",
" .q s s d d d f f f f l l l l l l z z z z z z x x x x v v v v v v v v b b b b b N M M M N B U r ",
" .y d d d f f f f f l l l l l l z z z z x x z x x x v c x v v v b b b b b b b b N N M B B B U r ",
" .y d d f f f f l l l l l l z z z z x c x x x z v x v v v v v v b b b b b b N N M B M B B B U 3 ",
" .y f f f f l l l l l z z z z z x z x x z v x x x v v v v v M M b b b b M M M N B N B B B V U , ",
"| w f f f l l l l l l l z z z z x x x x x z v v v v v v v v M v b b N N M N N N B B B B V V U > ",
"..u f f l l l l l l z z z z z x x x x x v v v v v v v v v v M M b M M N N N N N B B B B V V U < ",
" .u l l l l l l z z z z z z x x x x x v x v v v v v M v M M M M M M N N N B B B B B V V V V R 2 ",
" .u l l l l l z l z z z c x x x x x v v v v v v M v M v M M M M b B B N B B B B V V V V V C U 2 ",
" .u l l z c z z z z x x v x x x v v x v v v v v v M M M M M M M N N B B B B B V V V V C V C ! < ",
" .i l z z z z z x x x x x v x v v v v v v M v M M M M M M M B N N N N B B B V V V V V C C C Y < ",
" .i l z z z z z x x x x x v x v v v v v v b M M M M M M B M N B B B B B V V V V V V C C C C R < ",
" .a l z x x x x x x x v x v v v v v b b b M M M M M M M B B B B B V V V V V C C C A V A A C E 1 ",
" .a z z z x x x x x x v v v v v v v b b M M M M M M B B B B B B V V V V V C V C V C C A A A ! 3 ",
"] a x z z x c x x x v v v v v v b b M M M M M M B B B B B B B B V V V V V C C C A A C A A A Y 3 ",
" .a z x x x v x v v v v v M v v b M M M M M M N B B B B B B B B V V V V C C C C A A A A A A Y 3 ",
"] g x x v x v v v v v v M v v M M M M M N N N N B B B B V V V V C C C C C C C A C D C D D D ~ 8 ",
"] g x x x v v v v v M v M M M M M M M N N N N B B B B V V V V C C C C C C C C C D C D C D D ~ 8 ",
" .h M x x x v v v v v M M M M M M N N N N N B B B B V V V V C C C C C C A A A A D D D D D D ~ 4 ",
"] h v v v v v M v v M M M M M M N N N B B B B B B B V V C V C C C C C C A S S D C D D D D D Q 4 ",
"] a x v M v M v M M M M M M M N N N N B m B B V V V V V C C C C C D C C D C D D D D D D D F Q 1 ",
"] a M x M v M M M M M M M M N N N B B B V V V V V C C V C C C A C C D D C D D D D D F D D F Q - ",
"] h v M v v M M M M M N B B N B B B B V V V V V C C C C C C A A C D C D D D D D D D F F F F Q * ",
"] h x M M M M M M M N N M B B B B B V V V V C V V C C C A A A A C D D D D D D F D F D F F G Q , ",
"' h M M M M M M B M N B B B B B V V V V V C V C C C A C A S S S S D S D D D F D F F F F F G Q < ",
"' h M M M M M M M B B B B B B B V V V C V C C C A A A A S S S S D D D D D D F F F F F G F G / - ",
"' h M M M B M B B B B B B V V V V V V C C C A C A A A A S S S D D D D F D F F F F F G G G G / - ",
"' h M M M N B B B B B B V V V V V C C C C C A A A A A A S D D D F J D F F F F F G G G G G G / - ",
"] j M N N B B B B B V V V V V C C V C C C C C S A A S D D D D D D F F F F F F G K K K K G K / % ",
"] j M N B B B B B B V V V V C C C C C A S S S S S A S S D D D D F F F F F F G G K K K K K L / % ",
"] j B B B B B V V V V V V C C C C A C A A S S S S S D S F D F F F F F F F G G G K K K K K L / % ",
"| c B B B B B V m C V C C C C C C A A S S S S D D D D J D F F F F F F G G G K K K K L L L L / % ",
" .c B B V V V V V V V C C C A A C S S S S D S D S D D F F F F F G G G G G G G K L L L I L L Q $ ",
"' c B V V V V V C C C C C A A A S S S S D D D D F D F F F F F G G G G K K K K K L L L L I L _ $ ",
"[ c V V V V V C C C A C C A A A S S D D D D D D F F F F F F G G G G K K K T K K L L I I T T _ % ",
"[ c V V C C C C C C A A A A A A S D D D D F F F F F F F F F G K G K K K K K G T I I I I T T _ * ",
"[ c V C C C C C C C A A A S S S D D D D D D F F F F F F G G G K K K L L K T K K T T T T T T _ @ ",
"} n C C C C C C A A A A A S D D D D F D F F F F F F G G G H H K K L L L T T T T T T T T T T _ o ",
"' J H H H H H H L P L P P P I I I I I I I U I R R I Y T E E Y Y W W W W W W W W W W Q Q Q Q ' o ",
"Y t e 3 > X .                   . O $ $ % % < 1 1 1 1 1 - * * * % $ % % * * ; * ; ; 5 6 6 6 5 & "
};
