/* XPM */
static char *magick[] = {
/* columns rows colors chars-per-pixel */
"48 48 58 1",
"  c #2a1d22",
". c #2d2024",
"X c #34252a",
"o c #3a292f",
"O c #3d2b32",
"+ c #422f2f",
"@ c #402d34",
"# c #443131",
"$ c #4b3636",
"% c #4e3738",
"& c #4f3839",
"* c #52393f",
"= c #553c41",
"- c #583f44",
"; c #5b4046",
": c #5e4349",
"> c #61454b",
", c #65484e",
"< c #77565d",
"1 c #7b5661",
"2 c #7f5a65",
"3 c #815c67",
"4 c #855e6a",
"5 c #876066",
"6 c #886167",
"7 c #8c646b",
"8 c #91676e",
"9 c #93686f",
"0 c #956a77",
"q c #976d79",
"w c #986f7b",
"e c #9b737e",
"r c #9d7581",
"t c #9f7a82",
"y c #a27d85",
"u c #a68189",
"i c #a9868d",
"p c #ac8b92",
"a c #b08f96",
"s c #b09197",
"d c #b2939a",
"f c #b5989e",
"g c #ba9da3",
"h c #bda4a4",
"j c #c0a7a8",
"k c #c2aaab",
"l c #c5aeb6",
"z c #c7b0b8",
"x c #c9b3ba",
"c c #cebbc2",
"v c #d1bec5",
"b c #d3c0c7",
"n c #d5c4ca",
"m c #d8c7cd",
"M c #dacccc",
"N c #ddd0d0",
"B c #e4d9d9",
"V c #e9e0e0",
/* pixels */
",$->>>>>:>:::::>>,,>::::::::>::;==-=-;=====$@*:2",
"&.Xooooooooooooooooo.. ...  ...       XoOOoX.;ih",
"&O<77778666666666688eeeeuiuuuteeuw2wuuippuuuwucc",
"*@7uuuiyuuutuuuteeuuteeeuiiuutew2wttuipppuwuuunx",
"*+8uuuuyutttututtetueetuuiuttteewwttupppuu2uuuml",
"*@7uyyyyutttettteeeueeeuetuuttereetuiiiiuwuuuumx",
"*@7yyyeyttttttteeeetuututeuutytrettupiuuuuuuuuch",
"*@7yyeeytutttuteyeeuiutttuuueuerettuiiuuu2uwwunh",
"*@7ytttyuyyutettrwetuuttuuuueeeeweuuuutuutttuuMl",
"%o6yttyyttytuteerwtuuutttutuuuqqwtuuuuuuuttetunl",
"*O6eretttytteteetetuuuttuutuutewttuiuuttutttuunl",
"%o5ewwettttyueuttuuututtuuuuue09tuuiuuutuuttuunl",
"$o190weuyttytytuttuutuuttuuute08tuuuuuttututtunl",
"#o2eeyttyytyuyyutuuttuttuuuutew0wuuuutettuutttnl",
"%@8iiiiuttyyuuyyttttttttuuuutrwwwupuutettuutuuMl",
"*#0iiiiuyttyttttttutteetuuuutew0wupuuueetuutwuMl",
";+2uuuuureuuwurwtttutwruiiiuw000euiiuuttuuuwwtnl",
"&O2uuuttewwr00ruuuttrwuuiiutw00wuiuiuutuuuuuttnl",
"$O2uttttuwwuwwuuuuueqwuiiiutw00ruuuuuuuutuututMl",
"&O2uutteuuweuuppuuuwquiiiuur000ruiuuuuttwtuwuuMl",
"&O2itttuuueeuupputrweuiiuutw00wruiiuuuuteuuwuunl",
"&O2uuuuteuuewupiuewruiiutrr000wtupiuuuuuwtuwuunl",
"$O7utttuuutw7upiuwwuiuutrww000wtipuuuuutttutuunk",
"$O7uuuttuuu20ipuewtiiuerwwwwwwwuuiuuututwwtuuunh",
"&O6uuuttuew0uppuwrupuuwwwwwwwrruiiiiuuuew2uuipnh",
"$O6uttttuu07upurwruiuuwwrwwrrrrupiiiuuue02upisvf",
"$O6uttttuw20uiurwuiuu0wwrreturuuppiiutew2euppsvf",
"=O7ututww02riiuw2uuuuwwerruuuuuuiiiuuew02upsipcf",
"=O8utee02r0uiuuwruput0wweeuuueuuiiuuuuuwwuspupcf",
"-O8ueew80rripurwrupuuwwuewuueueuuuuuueeewuspupcf",
"-O2e0w0euuupsurwuipuwwwtttueuuuuipuuueeequsiupnh",
"=o<0weeupppsiu2wupiuwwtteuuuueuupiuuueewqupuupnh",
"&o<euuispuuuuewtpsitrrrreuuuutuuiuuuutwwwuiutpnh",
"$o2uiissuuutwwrispureerrrtuuttuuuutttteteuueepnh",
"$o2uuipiuttwweuppurrwwwrtuuuueeuutttutetuuutepnf",
"$o2tusiutte0eippurewqwwruuuuuttttteuuttuuutuusnh",
"=O6isdiuttqquppueewqwwetuuuuteeututuueuuuuwuusnf",
"$o8ddsutut0ripitrrwwwertuuuuutuuuuuuuttuue0uusnf",
"$Oedsutttr0riiutrrrrtrtuuuuueeuttuuuutuuee0uisnf",
"$#epututtq0uiiutrrrrrrtuuuuteweuuuuutetuuuruidnh",
"=O0uttttr0riiuutrrwrrrtuuutrrrtuuuuurruueuueusnf",
"=O0uuuur0quiiuttrqwrrrtuutrrrttteuuerruuuuueusng",
"$O7uuurr0eiiuutrq0qrrrtutrrttttueuuwuuuuetteufng",
"$O0itrr0wuiiuttr00qrretttrttuuuteuuuuwuututersng",
"&Orirr0ruiuuttrq88wrrrtuutuuuuttuuuwrrrrruuursnh",
"=:utrrtiiiuuewq078wrrtuiisdfddsdppppppippspsshMh",
";5hnNNNNNMmnnnnnnnMNMNNNNnnnnnnnnnccccccccncnVVh",
"sshghhchhhhhhffhhhhhkhhhhhhhhhhhhhhhhhhhhhhhhhch"
};
