/* XPM */
static char *magick[] = {
/* columns rows colors chars-per-pixel */
"48 48 90 1",
"  c #363a33",
". c #383e33",
"X c #51584c",
"o c #5a6155",
"O c #5f635c",
"+ c #5f6957",
"@ c #646f5b",
"# c #656961",
"$ c #6a7562",
"% c #6f7b66",
"& c #717e66",
"* c #727e68",
"= c #777e71",
"- c #787e74",
"; c #75806c",
": c #7c8576",
"> c #7e8c73",
", c #838a7c",
"< c #829275",
"1 c #86957a",
"2 c #88977c",
"3 c #8a997e",
"4 c #868c80",
"5 c #8b9284",
"6 c #8f9589",
"7 c #8d9c81",
"8 c #8f9888",
"9 c #91978b",
"0 c #909f85",
"q c #939a8c",
"w c #979e90",
"e c #999e94",
"r c #92a087",
"t c #95a38a",
"y c #99a68f",
"u c #9bac8d",
"i c #9ba393",
"p c #9ea599",
"a c #9daa93",
"s c #a1a79c",
"d c #a0ac97",
"f c #a2ad9a",
"g c #a6b29d",
"h c #a8b29f",
"j c #a8ba9a",
"k c #a5aba1",
"l c #a8aea2",
"z c #a7b0a0",
"x c #abb5a2",
"c c #aeb9a5",
"v c #afb8a8",
"b c #b0b7a9",
"n c #b0baa7",
"m c #b1baa9",
"M c #b7beb0",
"N c #b0c0a2",
"B c #b7c1ae",
"V c #bbc3b4",
"C c #bfc7b8",
"Z c #bec9b5",
"A c #c0c7bc",
"S c #c2cabc",
"D c #c2d0b7",
"F c #c6d4bc",
"G c #c8d4be",
"H c #cad9bf",
"J c #c7cec1",
"K c #c8cfc2",
"L c #cbd2c6",
"P c #ced4c9",
"I c #cedac3",
"U c #d0d6cb",
"Y c #d1dcc6",
"T c #d3dacd",
"R c #d5dbd1",
"E c #d5e1ca",
"W c #dbe3d4",
"Q c #dfe7d8",
"! c #dfe9d6",
"~ c #e2eadc",
"^ c #e6ede0",
"/ c #e8eee2",
"( c #ebf2e5",
") c #edf4e8",
"_ c #f1f7ec",
"` c #f4fcef",
"' c #f7fdf1",
"] c #fafff5",
"[ c #fffffe",
"{ c None",
/* pixels */
"X o,99qq89qwqtwwwwqwwwwqwwqwwwq59islllkksiiifBIh",
". #,96899899999990999988883,*&&&,pssiwqewq99qpm%",
"oO9kzxxxzxxzhhhxhhhhxxhhfw1<<0dMVVMmMbvxxxxxvmI3",
"==fxcmnnmnnnnnmnnnnnnncd0<2tnSSSVCCmbmbvmmmmvVYc",
"4,fvmnnnnnnmnmnmnnnnnh011rMSSSVVVmmmmmmmmmmmmVEF",
"4,hmnncnnnmnmmmmnnnca3<0dALAVVVmmmmmmmmmmmmmmmEI",
"4,hnnnnnnmnmmmnnnnhr<2tVSSSAMmmnmmmmmmmnmmmmmBEI",
"5,hnnccnmnmmmmncng3<3nSKSSAmmmmmmmmmmnnmvmccvmHI",
"5,hbccnmmmnmmnnvu21yAKSAABmnmmmnmmmmmnnmcccgrrjI",
"9,hxcnmmmnnmnnxt<2fSSVVVnnmnmmmmmmmmmnnvgr333uD~",
"9,sxnmmnmnnmnx0<3nSSAAmmnnnnmmmmmmnnnvf033rahS)`",
"9:snmBnnmnmnxr<tASSAVnmnnnnnmmmmmmnnh023tgBLLL(`",
"9:zmmmnnmmnca<aSSAAMmmmmmmmmmmmmnnva32rhSPPPSS!]",
"q,vmmmnmmnnd<aSSAVncnmmmmmmmmmmmnf023aSULKSSVmI'",
"w4cmmnnnnnd3dSSCMnnnmmmmmnmmmnmna20xSKKSSVBMmBH!",
"95zmmmnmngyxCCVmnnnnmmnnmmmmmnxt0nAKSVCCBmmmvBEI",
"5,znmnmmgdnVCVmmnnnnmmnmmmmmngdxVSVVVmmmmmmmmBEI",
"5,hmmccxgmVVmmnmnnnnmmnmmmnndfVVVCMmmmmmmnmmmBEI",
"5,hmnnchmmVmmmnmmmnnmmmmmnbhhCABmmnmmnmmnmmmmBEI",
"5,hnnccnmBmmmmmnmmnmmmmmmxzmMBVmnmmmmnnnmmnncBYY",
"5,gcncnmmmmmmmmmmmmmmmmmnxmBmmmmmmmmmnmmmnnmccNI",
"6,hnnnmmmmmmmmmmmmmmmnnncMBMmmnmmmmmmnmmnnmxt7c!",
"9,hbnmmmmmmmmmmmnnmmnnnmmnmmmmmmmmmnmnmmnng03aI'",
"9,hmnmmmmmmmmmmmnmnnnmmnmmmnmmmmnmmmmnmmxt37aZ`]",
"9,zmmmmmnccmnmmmnmmnnbmmmnnnnnmnnmmnnnng03tbAU`]",
"9,zmmmnmvcmmmmmmmmnnmmmmmnnnnnmnmmbnmbd73aMKLU`]",
"9,zmnnnhzmmmmmnmmmnnmmnmnhxmmmmnmmmnnd30fVKLKT`]",
"9,zmnxadVBmmmmmmnnnmmmnnfgVVmmmmmmmnf30hSKLKKT]]",
"q,znvt0MCVnmmmmmmmmmnncddACBmmmmnmbu29hAKLKPKR']",
"q,zxt<nSAmmmmmmmmmmmnnauCSCmnmmmncy20xAKLKKPLT]]",
"q,sr<dLSmmmmmmmmmmmmctrCLVmmmmnnnbhxVSJKLLLLLR]]",
"9:3<rSSAmmmmmmmmmnnvt3VPAmnmmmnmnmnnBVAJJJKLLR]]",
"9$>rVPSVvvmmmmmmnnxt<mTABmmmmmnmnmmmmvcmmmSPLR]]",
"5@7nPKCmvvmmmmmmnh0<gTSVmmmmmmmmmmmmmnncayVPPR]]",
"5&zSPSVmmmmmmmmcf73aUPAmnmmmmmnnmmmmmmnv07mPPR]`",
"94mULCmmmmmmmmna33aLRAmmmmmmnnnnmmmmmnnf2ySPPR]`",
"w6CPJMmmmmmmnnf23dSRKVmmmmmmmnxnmmmnmnnxcDPULP``",
"w9JJVbmmmmmmng33fATRAmmmmmmnnbnVmmmmmmmmbnmBMm~`",
"eeJCMbbmmmmmcr1aASRSVmmmmmmncgmMmmmmmnnmnnnnn3F'",
"eeMVbvbbmmmct<tVJLTAmmmmmmnxrdABmmmnnmmmnnnnj2Z`",
"seMMmmmmmmcg17mJJRUCmmnmmmct2MJCmmmcmmmmmmmng0F'",
"kqmmmmmmnnct<fJSKRKVmmnbnvt<tUKVmncccmmmmmmnxhY'",
"k9xmmmmmnmg10VJJPRSmmmnvhr1tmRAcft3tcmmmmnnngtI[",
"p5zmmmmmnct<fSJJTUSvza0737aMLPCattyVLCmcvzfr3aE[",
"p4kbnnnnnf<tVSKKLCa770rifxCLLPJMcmSRSa7770rtfS][",
"s,fmmMBmcr7xLLLLLJmxxnCKUUUUUTTTTTRRJvgzxcmCE][[",
"b5vASFFDjuNE~~~~~~^^~^^^//(//(//(((())))))_'[[[[",
"i+>fVDSDZSWWQQ~~Q~Q~~~^~~~~~^^~~Q~////)''___[[[["
};
