/* XPM */
static char *magick[] = {
/* columns rows colors chars-per-pixel */
"48 48 83 1",
"  c #020302",
". c #10120e",
"X c #3c4f29",
"o c #3e512a",
"O c #42562d",
"+ c #455a2f",
"@ c #475b30",
"# c #495e31",
"$ c #4c6334",
"% c #516937",
"& c #546d39",
"* c #57713b",
"= c #5a753d",
"- c #5e793f",
"; c #5c7442",
": c #5f7b40",
"> c #607747",
", c #617749",
"< c #617e41",
"1 c #647a4d",
"2 c #687e4f",
"3 c #677b52",
"4 c #69765c",
"5 c #6a7e55",
"6 c #6f7c62",
"7 c #658344",
"8 c #688746",
"9 c #698847",
"0 c #6c8c49",
"q c #6e815a",
"w c #6f904b",
"e c #71835e",
"r c #72944d",
"t c #75984f",
"y c #769950",
"u c #799d52",
"i c #758563",
"p c #778866",
"a c #7b8a6b",
"s c #7c9660",
"d c #7da355",
"f c #809a63",
"g c #80a657",
"h c #81a759",
"j c #84a95c",
"k c #8ab35e",
"l c #87ab60",
"z c #8aac64",
"x c #8daf68",
"c c #8eb06a",
"v c #8eb860",
"b c #93af75",
"n c #91b26e",
"m c #93be64",
"M c #95b473",
"N c #98b677",
"B c #99b778",
"V c #9cb97c",
"C c #96c466",
"Z c #9ecd6c",
"A c #a1d06c",
"S c #a3d172",
"D c #aad67a",
"F c #9fbb80",
"G c #a2bd83",
"H c #a4bf88",
"J c #a6c18b",
"K c #a9c38e",
"L c #adc593",
"P c #aed880",
"I c #b0c897",
"U c #b3ca9c",
"Y c #b2db85",
"T c #b5dd8a",
"R c #b7cca1",
"E c #bacea4",
"W c #bdd1a9",
"Q c #b9e08f",
"! c #bce292",
"~ c #c0e597",
"^ c #c2e69b",
"/ c #c7eaa1",
"( c None",
/* pixels */
"  4ie56ippiiqe555e555555i5qiipipaaape5333qqq5qbs",
" .6ppiaaapq5i55555i53335q35q5qeipppi51;;155353f3",
"46RUUEWWEKHJHHGFFVHGNNJJBBVGGHHHKLLJGMNNMMMVBF!T",
"ppUUEWWELKJHHHGGFFVHBHFFFFGGHLLJKUULJHVVMNMNVB^!",
"paUREWEUKHGHHHHHGFVGNVJHHHHHJLLLLUULJLJGVNNBMM~!",
"paEEEEIKHHHKJGBVFFJVMJVGKILKLLILLLILKLKKGVVVnM~!",
"ipIUULHHLHHJGNNVNNHFFJHRLLLHJLJJJLLLLLLLLVVVMNQ!",
"eeJLJGGGGGHVMBBxNVHFLHLLHHHGGFGHJLLLLUIILGFVMM!!",
"qqJKHFVVVGGnMMMzVVVFJFGFFFHGGFGJKLLLLLIIIKVBVN!!",
"55FFVBVBVVMnnMxzclMMMNBNNNHFFVFFJKKKKKLIILGMMNTT",
"13VBBBBVBnnMMBMnzwdccNVNjMzcFVGFVVHHHJKLLLGVnV~T",
"33VNNNMnxMMMBBNMcdxBVNVNy0900yFJGVGGGGJKLLKGNnTY",
"11VNMnxllnMMMMNMBMJFJIFBc00wdxLRUHGVVVGHKLKGVMTT",
",1MMnnxxznMnxMBBUUKJJJLBzuuulNNVVVGVVVGGHKLGVNTT",
",,nnnnczlxxxxMMVJJGFGFGNldljlMMNNNVVVKULHKJVNnYY",
">,nxxxxlzlzllxMNVFVFFFFGcxjldxNGHVVHHVVGHKKGNnYD",
";;xzzljjjjjjjzxnMNBBBMBMjdhjzcNGGGGHLHVVVGHGVNYD",
";*djlljgjggNMjjxcncxzcnjgdrtuhnVNcMNxxNVVVVVVNY!",
";=hzjyhxxMVnNMNNNMBNxczddgjt*-rdznVxMNJJBNVNMN/^",
";&u0=:ydjjjjjzjxxxczjddduggzhwrdyuMlNMBNMNMnnnTY",
"&&ut<wgjjjjjjjjzzzxjhdzttrhlght0zjjzNNjxnxnnncPY",
"@$rytyuyyyyyugjjzzzjzjjutr97tudwjhwNMGGGNNjnxcD!",
"O&yyuur09<8-<980tdddt0twyur009wr0<=<gnBVVVnNVcDT",
"+&jjggguw7<&**:8www0-*-<&w00890-<77<yNHGVhxnVnYS",
"+&gguuyyr0<=::rr-9w0987:**=7<-8rdgl80xnzhnxjgjYQ",
"+%yyuyyytr0980rtthzhu7=*&<turwruyhlrrhznczjcxjYQ",
"O@rrtttrrrwrwrrrtdjzjju<=tur00wr878uyyjlnxczjjDD",
"OX00wrrr0wr0rrttyudjhud99y09ttrrw08rr9whzjznnxTT",
"OO8900000r000rrtyddjjgt00tddt0tgyr070<-0ghjzxnYT",
"OO888w00990090rryudghjdttdddt0rrygr807808ryhzjDY",
"+O0000009890900rtyydghduuddu0780r0r08770t0880rCA",
"++0<80098889000wrrtuddduuudr97=89700w<<80w077<ug",
"++98909988900000wrtdddddtdtrw7:777807777ryrt97dd",
"#+88900989990980wwrttrtrttyrrw09rw7=*-7:79w997kd",
"++88900099990080wwwrwwrrrrttrtrwrww=%*7790www7dd",
"++8899000999800000ww000ww0rrtdyttrw87777w9wrrdCv",
"O+899980w099900000097700wwwwrttdttrww9wrrrtttwkd",
"OO78008800989908097777909wwrrtttttytrrrrrttttwjj",
"OO7889888888898898779090900wwrttttttrtyrttttttkh",
"+O<7<7<<<887888877890r0098990wrrttytyydtttttttkk",
"OO7777:7<<<8<88<77790097788900wwrrtttrttrttrwrkk",
"OO:7<<7:<<<<<<<<7:7797777788000000wrwrwrwtrrw0hd",
"oo7---7:<<<<<<<<7:77777:::77888877800w0wwrww08ut",
"oo-----7<<<<<-<>=======:::-777777<7700www00087tw",
"oo------>---;---=======-=:::7--7-<<7780000888<uh",
"oo==-=---===*==*=**=*=======--==--<<77788887--jk",
"&$wwrwrrrr000099777700wwrwwwwwwwrttuuuuuddutrtZA",
"+o8000000898<<<<:::7770wwwwwwww0wrtttttutttrwtmC"
};
