/* XPM */
static char *magick[] = {
/* columns rows colors chars-per-pixel */
"48 48 96 2",
"   c #1a2b2b",
".  c #213636",
"X  c #293a38",
"o  c #1f4446",
"O  c #264141",
"+  c #204548",
"@  c #254a4c",
"#  c #294444",
"$  c #294748",
"%  c #2a4c4d",
"&  c #264e50",
"*  c #284f50",
"=  c #265154",
"-  c #2c5254",
";  c #2a5759",
":  c #2c5c5f",
">  c #354d4b",
",  c #32504f",
"<  c #345454",
"1  c #335c5d",
"2  c #385756",
"3  c #3b5c5b",
"4  c #375f60",
"5  c #2e6266",
"6  c #2f6468",
"7  c #31696d",
"8  c #3b6363",
"9  c #377377",
"0  c #387477",
"q  c #3c7579",
"w  c #3f787a",
"e  c #446564",
"r  c #476966",
"t  c #4e6462",
"y  c #457376",
"u  c #437a7c",
"i  c #4a7e7f",
"p  c #458a8e",
"a  c #4e8180",
"s  c #488c8f",
"d  c #4c8e91",
"f  c #4f9092",
"g  c #538483",
"h  c #588784",
"j  c #5c8986",
"k  c #5f8b88",
"l  c #549394",
"z  c #599697",
"x  c #5d9999",
"c  c #628d89",
"v  c #649d9b",
"b  c #689f9d",
"n  c #708e8b",
"m  c #7a9d9b",
"M  c #6ba19e",
"N  c #6fa4a0",
"B  c #72a6a1",
"V  c #76a8a3",
"C  c #7baca5",
"Z  c #8c9d9b",
"A  c #80aea7",
"S  c #81afa8",
"D  c #85b1a9",
"F  c #8bb5ac",
"G  c #8fb8ae",
"H  c #8fb7b2",
"J  c #92aba8",
"K  c #91b9af",
"L  c #95bbb1",
"P  c #94bbb9",
"I  c #9abeb3",
"U  c #99bebb",
"Y  c #aabfbe",
"T  c #9dc0b4",
"R  c #9dc1bb",
"E  c #a3c4bc",
"W  c #a8c7bd",
"Q  c #abc9bf",
"!  c #a5c6c1",
"~  c #a8c7c2",
"^  c #accac3",
"/  c #b3cec6",
"(  c #b5d0c7",
")  c #b7d1c8",
"_  c #b9d2c9",
"`  c #cddfd8",
"'  c #cfe0de",
"]  c #d0e1df",
"[  c #d4e4e2",
"{  c #d9e7e4",
"}  c #dce8e6",
"|  c #deeae8",
" . c #e4edea",
".. c #e7f0ee",
"X. c #e9f1ef",
"o. c #ebf2f0",
/* pixels */
"o. . . . . . . .{ { { { } { { }  . . . .X. .X.o.o.o. . . ... . . .} } } [ } { [ }  . . . . . .Z ",
"X.` Q Q W W W W W W W W W W W T T W W T T T T T T T T T T T T T I L L L L L P L H H H H H H J t ",
" ._ E T T T I I I I I I I L J L K K K K G F F F T F F F D D D D D D A A A A A A C C C C A V n X ",
" ._ T I T I I I I L L L L L L K K K K G J F F F F D F D D D D S D A A A A A C A C C C C V V c > ",
" .Q T I I I I L L L L L L L K K K G G F F F F F F D D D D D D D A A A A A A C C C V V C V V c > ",
"o.Q I T I I L L I L K K G K K G G G F F F F F F D F D D D D D C A A A C C C C C C V C V V V c > ",
" ._ I I L L L L K K K K G G K G G F F F F F D F D D D D D S C D A A A C C C C C V V V V V B c 3 ",
"o.Q I I L L L K L K K G G G F F J F F F F F D D D D D S S S S C A C C C C C C V V V V V B B c e ",
" ._ T T L L K K K K G G F F F F F F F D D D D D D D S S S S S C C C C C C V V V V V V V V N c r ",
" .Q L L L L G K G G G G F F F F F F D D D D D D D C S S C C S C C C C V V V V V V B B B N N j r ",
" .Q L L L G K G K G J F F F F F D D D D D D A A C D C S C C C C C C V V V V V B B B B B N M j r ",
" .Q K K K G G K F F F F F F F D D D D D D D A A S C C S C C C C V V V V V V V B N N B N N M j 3 ",
" .Q K K G G F F F F F F D D D D D D D D A A A A A A C C C C C C C m V V B B V B N N N M M M h , ",
" .Q K K G G F F F F F F D D D D D D D A A A A C C C C C C C V V V V V V B N N N N N N M M M h , ",
"X.Q I G F F F F F F D F D D D D D D A A A A A C C C C V V V V V V B B B B B N N N M M M M M h , ",
" .Q G G F F F F F F D D D D D D A A A A A C C C C C V C V V V V B B B N N N N N M M M M M M h 2 ",
" .^ F F F F F D J D D D S A A A A A A C C C C C C V V V V V B B B B N N N N N M M M M M M v g 3 ",
" .^ F F F F D F S D D D A A A A A C A C C C C V V V V V m V B B N N N N N M M M M v M v M v g , ",
" .^ F F D D D D S D D A A A A A A C C C V C V V V V V V B B B N N N N N M M M M M M v v M v g , ",
" .^ F F D D D D D S A A A A C A C C C V V V V V V V V N B N B M N N M M b M b b v v v v v v g < ",
" .~ D D D D D S S S S S A C C C C C C C V m V V B B m V N N N M M M M M M v v v v v v v v z g 3 ",
" .~ D S S S S S S S S C A C C C C V V V V V V V B B M N N N N M M M M v M v v v v v v v v v a 3 ",
" .~ D S A S A A A A C C C C C C V V V V V V N V B B N N N N M M M M M M v v v v v v v v z v a 3 ",
"} ~ D S A A A A A A C C C C V V V V V V V V N N M B N N M M M b M M v v v v v v v v v v z z i 3 ",
"{ E A A A A A C C C C C C V V V B B B B B B B M M M M M M M M M v v v v v v v v v x x x x x a 8 ",
"} ! A A A A C C C C V V V V V V B B B B B B M M B M M M M M M v v v v v v v v v x v x x x z a 8 ",
"} ! A A A C C C C C V V V V V B B B B B M M M M M M M M M M v M v v v v v v x x x x x x z z i 4 ",
"{ E C C C C C C V V V V V V V B B B N B N N M M M M M M v v v v v v v v x x x x x z z z z z i 3 ",
"[ Y C A C C V V V V V V B B B B B B N N M M M M M M M M v v v v v v x v x x x x z z z z z z i 1 ",
"[ Y V A V V C V V V V V B B B N B N N M M M M M M v v v v v v x v v x z x x x z z z z z z l i - ",
"] Y C V V V V V V B B B B B N N N M M M M M M M v v v v v v x x v x x x x x c z z z l l l l u - ",
"' R C V V V V V B B B B N N N N M M M M v M v M v v v v v v v x x x x x z z x x l z l l l l u - ",
"' R V V V V B B B B N N N N M M b b b b b b v v v v v v v x x v z x x z x z l z z l l l l l u , ",
"' U V V B B B B N N N N N M M M b b b b b b v v v v v v x v z x c z z z z l l l l l l l f f u - ",
"' R V B B B B N N N N M M M M b v v v v v v v v v v z z v z x x z z z z z z l l l l f f f f u - ",
"' U B B B N N N N N N M M b b b v v v v v v v v z v z v x x z z z z z l l l l l l l f f f f u - ",
"] U B B B N N N M M M M M b b b v v v v v v v v v z v z z z c z z l z l l l l f f f f f f f w * ",
"[ U B B N N N M M M b b b b b v v v v v v v z v z z v z z z z z z l l l l l l f f f f d d d w * ",
"[ U B N N M M M M M b b b v v v v v v v z z v z v z z z z z z l l l l l f f f f f f f d d s w % ",
"| P N M M M b M b b b b v v v v v v z v v z z v z z z l l l l l l l l f f f f f d d d d s s q @ ",
"| P M M M M M b b b v v v v v x v z v v z z z z z z l z z l l l l l l l f f s l d d s s s s q $ ",
"] P M M M M b b b v v v v v v v v z z z z z z z z z l l l l l l l f d f d l s s d s s s s s 0 @ ",
"[ P M M b b b v v v v v v v x x z v z x z z z z z l l l l l l f d f f f d s s s s s p p p p 0 & ",
"[ P M b b v v v v v v v x x x x v z z z z z z z l l l l l l f f f s d f d d s s p p p p p p 0 * ",
"{ P v v b v v v v v v v x x x x z z z z z z z z l l l l f f f f f f d d s s s s p p p p p p 9 o ",
"{ P b v v v v v v v z v x x z z z z z z l l l l l l l f f d d d s s d s s s s s p p p p p p 9 o ",
"[ m g g g g a a i i a a i i i i i i i i i i u u u y u u u u u y u q y q q q 0 0 9 9 0 0 9 q 5 o ",
"Y t e 4 > X .                   . O $ $ $ * - ; 4 : 4 4 - - * * % @ * * = = = = ; ; 5 5 5 7 5 & "
};
