/* XPM */
static char *magick[] = {
/* columns rows colors chars-per-pixel */
"64 64 257 2",
"   c Gray0",
".  c #0d0906",
"X  c #131211",
"o  c #231f1a",
"O  c #24211c",
"+  c #29221b",
"@  c #3c2b1e",
"#  c #2c2622",
"$  c #2c2926",
"%  c #2a2826",
"&  c #3d2f24",
"*  c #342d26",
"=  c #3e3126",
"-  c #3d3228",
";  c #393936",
":  c #412f22",
">  c #433123",
",  c #44362b",
"<  c #513928",
"1  c #49463f",
"2  c #52493f",
"3  c #76553d",
"4  c #4a4742",
"5  c #524b41",
"6  c #5c4d40",
"7  c #5e5953",
"8  c #5a5b59",
"9  c #5f6766",
"0  c #62554b",
"q  c #65594d",
"w  c #625b53",
"e  c #685d54",
"r  c #685d58",
"t  c #7b5a41",
"y  c #6b6156",
"u  c #6a645b",
"i  c #7a6a5a",
"p  c #656d6c",
"a  c #6d6b64",
"s  c #6d6e69",
"d  c #646763",
"f  c #64716f",
"g  c #6c726d",
"h  c #6b7571",
"j  c #6d7a75",
"k  c #6d7a79",
"l  c #736e65",
"z  c #716f69",
"x  c #7a6e62",
"c  c #757067",
"v  c #74736b",
"b  c #77786f",
"n  c #7c7266",
"m  c #7b766a",
"M  c #7c796e",
"N  c #727671",
"B  c #747a72",
"V  c #737e7b",
"C  c #7c7d72",
"Z  c #797b79",
"A  c #74837b",
"S  c #7e8176",
"D  c #7c837b",
"F  c #7c887f",
"G  c #7c8b88",
"H  c #8d694f",
"J  c #8a6d54",
"K  c #826c59",
"L  c #8b7259",
"P  c #86715f",
"I  c #946c4e",
"U  c #946d51",
"Y  c #98745a",
"T  c #836f61",
"R  c #837465",
"E  c #827769",
"W  c #847b6d",
"Q  c #897765",
"!  c #88776e",
"~  c #8c7966",
"^  c #8b7d6b",
"/  c #867867",
"(  c #837e71",
")  c #8e7e72",
"_  c #947a64",
"`  c #927e6b",
"'  c #997a62",
"]  c #907f70",
"[  c #a67b5b",
"{  c #8b806e",
"}  c #848274",
"|  c #858579",
" . c #85887c",
".. c #8b8373",
"X. c #8c8679",
"o. c #8c897c",
"O. c #94816d",
"+. c #98826d",
"@. c #938374",
"#. c #938678",
"$. c #928b7d",
"%. c #9a8574",
"&. c #9c8874",
"*. c #9d8a7a",
"=. c #958877",
"-. c #9a917f",
";. c #a28d7d",
":. c #ab957e",
">. c #b68c6b",
",. c #b18f71",
"<. c #b9916f",
"1. c #b99979",
"2. c #b59474",
"3. c #c18f6a",
"4. c #c7926b",
"5. c #c89c79",
"6. c #cca17d",
"7. c #d8a47c",
"8. c #e4a97d",
"9. c #868a83",
"0. c #8b8c82",
"q. c #858b88",
"w. c #8d9285",
"e. c #8d938c",
"r. c #87938c",
"t. c #8b9b97",
"y. c #958b81",
"u. c #949384",
"i. c #999788",
"p. c #959b92",
"a. c #9b9d91",
"s. c #919f9b",
"d. c #8ca39e",
"f. c #9ca194",
"g. c #99a49c",
"h. c #9caaa3",
"j. c #95a8a2",
"k. c #9fb0a8",
"l. c #a18f82",
"z. c #a59888",
"x. c #b79f85",
"c. c #a8a28e",
"v. c #a4a494",
"b. c #a3a99d",
"n. c #aaab9c",
"m. c #a5a597",
"M. c #adb29e",
"N. c #bda98f",
"B. c #b9a48b",
"V. c #b4ab95",
"C. c #bcac93",
"Z. c #b6a895",
"A. c #b4b29d",
"S. c #bdb097",
"D. c #bcb49c",
"F. c #bfb89f",
"G. c #a5ada2",
"H. c #adb3a4",
"J. c #aeb6a8",
"K. c #a2b5ab",
"L. c #a9bdb2",
"P. c #b4baab",
"I. c #bab7a0",
"U. c #bdbba3",
"Y. c #b2b7a6",
"T. c #bdc0a7",
"R. c #bdc3aa",
"E. c #bfc8af",
"W. c #b6c0b0",
"Q. c #c6a283",
"!. c #c4ab8e",
"~. c #caa484",
"^. c #cca986",
"/. c #ccad8c",
"(. c #c5a588",
"). c #c2ad91",
"_. c #c9af90",
"`. c #cfb08f",
"'. c #c5b093",
"]. c #c2b69b",
"[. c #c3b99e",
"{. c #ccb192",
"}. c #cbb79e",
"|. c #d3a781",
" X c #d4aa85",
".X c #d3ad8a",
"XX c #dbac85",
"oX c #daae89",
"OX c #d3b18e",
"+X c #dbb38d",
"@X c #ddb087",
"#X c #d4b492",
"$X c #dcb691",
"%X c #dcba95",
"&X c #debc99",
"*X c #d8b897",
"=X c #c2bda3",
"-X c #dbbca2",
";X c #e3ae84",
":X c #e8ae83",
">X c #e4b187",
",X c #e4b48b",
"<X c #ebb58b",
"1X c #edb487",
"2X c #e3b690",
"3X c #e4ba94",
"4X c #e3bd9a",
"5X c #eab790",
"6X c #ebbb94",
"7X c #eabf9a",
"8X c #f0b68d",
"9X c #e1bfa3",
"0X c #c4c1a6",
"qX c #c4c5ab",
"wX c #c4c8af",
"eX c #c9c6ab",
"rX c #cac8ae",
"tX c #cbc3a6",
"yX c #c5cab3",
"uX c #caccb4",
"iX c #cacfba",
"pX c #c5ccb6",
"aX c #c6d1bc",
"sX c #cbd2bd",
"dX c #c7d0b6",
"fX c #d2ceb4",
"gX c #d1d1b6",
"hX c #d1d4bb",
"jX c #d7d9bd",
"kX c #d0c7aa",
"lX c #e5c09e",
"zX c #ebc19e",
"xX c #ecc4a2",
"cX c #e7c5a6",
"vX c #e2dbbd",
"bX c #ccd6c1",
"nX c #cdd9c4",
"mX c #c4d8c7",
"MX c #d2d7c2",
"NX c #d4dac5",
"BX c #d4ddca",
"VX c #d8decb",
"CX c #d7e2c7",
"ZX c #ddead3",
"AX c #e6e7cb",
"SX c #e7edd5",
"DX c #e5f2dd",
"FX c #edf5d9",
"GX c #faf6d4",
"HX c #ecf6e3",
"JX c #f1fde4",
"KX c #ffffe4",
"LX c #ffffec",
"PX c #f4fde9",
"IX c #fffff4",
"UX c #fffffe",
"YX c None",
/* pixels */
"                                                                                                                          X * 5 ",
"    . o & > , , , , , , , , , , , , , , , , , - * # $ $ # * * $ $ $ # # # # # # + # # % # $ $ $ $ $ $ $ % % % % % $ $ $ ; 1 u E ",
"  . < 3 U Y Y ' Y ' ' ' ' ' ' ' ' _ _ Y Y _ _ _ P 0 e e r e r r e 0 0 0 0 q q q 0 0 0 0 0 w w w w w w w 7 7 7 7 7 w 7 w u E $.i.",
"  + 3 [ 4.4.5.5.5.~.~.~.~.Q.Q.Q.Q.Q.Q.Q.Q.5.Q.(.x.R ! ! ! ! ! ! T Q T T K i R T x x i i i i x m x n m m m m M M m M m n ..$.c.c.",
"  : I 4.8.8.>X,X,X5X,X,X2X2X2X3X3X3X3X4X&XlX%X&X4X;.%.%.] %.] ] ] @.` ` ~ ~ ] ` ` @.@.^ ~ ^ ....) ) ..X.X.X.X.y.o.o.X...$.i.c.n.",
"  > I 4.8.:X,X5X5X5X5X5X5X5X4X4XlXlX4XlXlXlXlXlX9Xx.] %.*.%.;.] @.` ~ _ _ ~ ] ) @.@.@.@.@...@.@.@.....X.$.#.X.0.y.o.X...$.i.v.V.",
"  > I 4.8.:X:X<X<X<X1X,X5X5X7X7X3X3XlXlXlXlX%X%X4X).) %.%.] ] ` _ ~ ~ ~ ~ ~ _ ~ ~ ^ ` @.@.....@.) ) ....X.X.X.X.o.o.....$.i.v.n.",
"  > I 4.8.:X:X8X8X8X8X8X6X7X7X9XzXzXzXlXlXlXlXlX9X*X] %.] ` ` ` ` ` ` _ ` @.O.` ^ ^ O.^ ^ ^ { @.@...@.@.#.$.y.y.y.$.X.X.$.i.v.n.",
"  @ I 4.8.8.:X<X8X:X8X1X6X7X7XxXzXzX,XlX@XlX%XlXlX&X+.O.{ ~ Q ~ ~ / R R R R / / / ^ { { ^ / ^ W W { @.....X.$.$.o.X.} ..$.i.m.f.",
"  @ I 4.8.8.8.1X1X:X1X5X7XxXxX9XlXlX,X,XlX+X%X%X+XOX&.n P / R n R / E E / R / m / / E ^ ^ ^ { ^ } { ..{ ....o.$...X...X.u.c.n.n.",
"  : I 3.8.8.:X<X8X<X<X5X7X9X6X6X2XlXlX$X@X+X+XOX`.`.:.i n n n n n x n n n n n n E E / m W { W ^ { { ......X.X.o...X.| X.y.v.M.M.",
"  > I >.8.8.:X<X8X<X5X5X7X7X6X4X,X2X2XlX$X+XOX`.`.{.B.i l a a a a l l x c c m m n n m m m W { { { ..{ { { ..X.X.X...| | 0.c.H.n.",
"  : H >.7.7.:X1X;X;X,X<X5X6X6X3XlXlX%X%X#X#X#X{.C.N.B.a a a c c z l c c l c c c m m m m m E W { W W { W } ..........} | o.a.n.n.",
"  : H >.7.7.;X;X;XXX,X,X5X5X3X4X&X&X%X#X#X{.'.C.C.C.C.} a a m v v v c s v c s c l c m m m E W W { } } W W } } } | X.| | w.f.n.H.",
"  & H >.7.7.|.;XXX>X,X3X2X3X3X3X&X%X#X`.'.'.N.N.C.S.V.$.u f a a z s s s s s c v c c c c m m m E W { } W M W M } } X. .o.0.a.m.b.",
"  * H >.6.7.|.XXXX>X6X3X2X$X$X%X%X*X_._.C.C.C.V.C.V.V.-.d g g g v g s s s s c c v v c c c c m m W W } } M } M S } o.| o.u.a.b.b.",
"  & K >.5.6.|.>X,X3X2X3X2X$X%X%X`._.N.N.C.C.C.V.V.V.V.V.h N g N g s g g v v b m v m c v v c v v M { } ..} } } M } X. . .w.a.g.M.",
"  & H >.5.6.|.>X,X3X2X3X$X$X%X#X_.N.N.C.S.V.V.V.S.A.A.A.S h g g v g g v b v v M v m m m c c v v m M } } ..} } M } |  .S o.a.b.G.",
"  & J >.6.7.;X>X,X,X+X$X$X$X{._.C.N.C.S.S.D.D.D.A.F.D.D.o.f f f f p p f h b M b M m v m m v c v c v m } { } } } | o.S S  .p.J.Y.",
"  & J >.6.|.XXoX,X+X+X$X$X#X_.).N.S.S.S.D.D.[.U.D.T.U.T.f.f f f f 9 p p g v M S M m v v m m v v v c m W } } } S } o. . .w.a.H.J.",
"  = J <.6. XXX@X@XOX$X$X#X{.!.N.C.S.S.D.D.0X0X0XU.T.T.T.b.f f f f p f p s g v S } W m M v m m c v c m M } S S S  .o. . .w.f.H.J.",
"  = J <.6.^. X@X@X+XOX#X{.!.N.C.C.S.].D.F.0XqXqXR.T.T.T.T.A A j h h h g g s v S } } } W W m m m s v v v M M } }  . . . .w.f.H.W.",
"  = J <.6. X^.OXOXOXOX`.!.).C.C.S.].F.F.0XqXqXqXE.R.R.T.T.r.A A A h N N b S v } } } } W { W m m c c c v M S S S S  . . .w.f.K.W.",
"  = J 2.|.|.|.OXOXOX`.!.!.).C.C.].].F.[.qXrXwXwXE.R.R.R.R.g.A A A A h N } S M M m M { { W W m m v v s v m M M } S  . . .i.g.g.k.",
"  = J <.6.^.^.OX/.`.!.!.N.).C.S.].D.D.0XeXyXyXyXpXyXR.E.T.M.j A h f g S S S m m W W { W m W m c m l v v v M ( ( S b A S a.qXAXGX",
"  = J ,.6.^. XOX/.!.!.!.C.C.C.].D.D.D.U.eXyXuXpXiXiXyXR.T.T.A f f f f S S S m m W W W / m / / n l m l z s g v C  .i.c.[.vXGXKXKX",
"  = J ,.Q.^. X/.!.!.!.!.'.C.C.].D.D.A.T.qXuXiXsXbXbXaXwXR.T.F f d f g v M m { { / / / { / / ^ m a a d v } u.c.C.[.tX0XkXvXGXKXIX",
"  = J ,.Q.^.^.`.!.!.!.!.'.C.S.].D.D.D.0XyXuXsXsXbXiXiXpXqXT.p.9 f a v S S { { n / R Q ~ R x n / ..*.x.C.C.].].].[.tX=XkXvXGXKXIX",
"  = L ,.Q. X^.`.!.!.!.N.C.C.S.].D.D.U.0XyXuXsXhXiXiXiXyXqX=Xv.p v z S { { { x n x P Q &.:.x.B.).N.C.'.C.C.S.=X].].=X=XtXvXGXKXIX",
"  = L ,.^./.`./.!.!.N.N.C.C.S.D.D.D.0XqXuXuXuXsXiXiXiXyXyXeXA.g v c S S x x { &.:.Q.OX%X%X#X`.!.N.).C.C.C.S.=X].D.=X=XtXvXGXKXLX",
"  = J 2.^.(./.`.!.!.B.!.C.S.'.].U.D.0XrXuXuXuXiXiXuXyXeX=X=X=XN d l { -.:.N.$X+XOX+X+XOX+X$X#X/.!.).C.C.C.].=X].D.=X=XtXjXGXKXIX",
"  = K ,.^.^.^.`.!.!.N.!.C.S.].].F.A.0XqXwXqXrXyXyXuXuX=XI.D.Z.y.-.B.)._.`.%X+X+XOXOX@X+X+XOX{./.!.).).C.C.'.[.].S.=X=XtXjXGXKXIX",
"  = L 2.(.^./.`.!.N.N.).C.S.].[.D.A.0X0X0X0X0XT.0X0XA.a.o.S d =.C.C.N.!.OXOX@X+X+X>X+X@X+X.X#X_.!.).).C.C.].[.[.S.D.tXrXvXGXKXIX",
"  = L 1.Q././.`.!.N.N.).C.S.].[.D.F.F.0X0XU.M.a.w.F B g b C m } N.N.OX/.OX.XOX7.oX.XXXoX.XOX.X/.).).C.C.C.].].=XD.U.=XrXvXGXKXIX",
"  = L 1.^.OX/.{.!.N.N.'.C.).'.[.D.V.c.u. .F B B D D | | } } W m !.#X%X$X+X+X@X@XXXXX@X.X.X.X.X!.!.).C.C.C.[.D.].D.=XqXfXAXKXIXIX",
"  - L 1.OX#X/./.!.!.!.'.C.z.u.o.S v v S F  .A S S S } } W } W i 1.%X%XlX,X@X@X7.XX;XXXXX X.X/.!.!.).).C.C.].D.=XD.=XqXfXAXKXIXIX",
"  = L 1.OXOX/./.B.z.&.^ m u d v S S m S  .S S S b | | } ..^ { Q 1.lX,XzXlX8.7.7.|.XXXXXX.X@X^.!.!.!.C.C.S.].D.D.I.U.eXfXAXKXIXUX",
"  = L 1.(.1.&.^ l u u l m c v v S S S S  . .S S | | ..{ ....=.` 1.zXzXzXzXlX,X8.|.|.XXXX@XOXOX!.).).C.C.S.D.D.I.U.=XeXfXAXKXUXUX",
"  @ q K Q K i x n n l l c c c g m S } S | | } X.X.X.=.X.@.@.%.%.-.cXzXzXzXzX1XzX>XXX>X+X+XOX`.`.!.).N.C.[.].D.D.I.=XeXfXAXKXUXUX",
"  + 2 i ~ _ Q R n E l l m c v v c m S } } } } } X.X.X.@.@.O.&.*.-.9XzXzXzXzXzX8.>XXX>X,X,X+XOX_.N.).C.S.[.S.D.D.I.qXqXfXSXKXUXUX",
"  + 2 K _ ~ Q R m / m l c m c c c m S } { S S { ....=.=.O.O.&.*.-.}.zXzXzXxX7X6X8X<X6X3X$X$X#X!.).C.C.].D.A.I.D.I.=XeXgXAXKXUXUX",
"  + 2 i ~ Q ~ / / ^ / c c m v c c c S } { S m { { ..@.=.O.%.*.*.*.C.xXzXxXxX7XxX7X6X2X4X$X#X`.!.C.C.S.].D.D.D.D.=XqXyXgXAXKXUXUX",
"  + 2 i Q Q Q / / / W m l c m c z v m m } { { { { { =.=.O.&.*.*.l.z.cXzXzXxX9XxX6X3X3X$X$X#X!.C.C.C.].].S.D.I.I.=XyXuXhXSXKXUXUX",
"  + 2 i R Q R ^ / / ^ / n m m c c c v S m S { { { W O.=.=.&.*.*.z.y.cXxXxXxX7X4X2X3X4X%X#X{.N.C.C.S.].D.D.D.I.U.=XyXuXhXSXLXUXUX",
"  + 2 y R Q / ^ / m W W m m m m v c c c n m { { { { { O.=.+.+.&.l.#.}.cXxX9X3X2X4X4X&X%X'.N.C.C.S.].].I.I.U.=XqX=XuXiXMXSXIXUXUX",
"  + 2 y P Q Q ^ / m m W { { m n m v c g c m m m / { / { O.O.O.+.&.@.(.cX9X6X$X$X%X%X$X{.).N.C.V.S.].].=X=X=XqXeXqXiXhXNXSXIXUXUX",
"  + 2 y x R E ^ / m m / } { m m m m m c a c m n m m / / { O.O.O.` %.l.9X4X3X$X#X#X#X{.).C.C.C.S.].].I.=X=XeXeXqXuXiXMXNXSXUXUXUX",
"  + 2 y x n m / / / m m { { { S m m m v m c m m m n m R n R Q Q ` ~ ~ $X#X`.#X#X{.{.C.C.C.C.C.S.D.D.I.=XtXeXyXyXuXiXMXNXHXUXUXUX",
"  o 5 e x n E / ^ W W ^ W W W W W m v M v v c l v m c n n n Q Q / / i B.`.{.'._.N.N.C.S.S.V.D.D.=X=X=XeXeXyXeXyXyXsXMXNXHXUXUXUX",
"  o 1 e i n n / W W { { } } W m m m m v m m v v c c c c m n m n c n u *.!.N.N.N.C.C.C.S.S.S.S.F.=X=XtXeXyXyXyXyXuXsXMXVXPXUXUXUX",
"  O 5 e l l m / W { { } W W } } m v v v v v v v v c c c a c a c a a u W V.V.N.C.C.V.V.V.V.D.F.0X0XeXqXeXyXwXwXwXuXbXMXVXDXIXUXUX",
"  O 5 y i n m / W E W W W } } { } m m m M v m m a v v c m v c a a c c v C.C.S.C.V.V.V.S.D.D.0X0XqXeXeXqXqXqXyXyXiXbXnXNXDXIXUXUX",
"  o 1 y n n E / / } W } W { } W } W m M b M b M v g a v g a l a s c c d c.V.V.c.V.V.V.D.D.T.T.0X0XeXqXqXwXyXpXiXbXMXMXnXHXUXUXUX",
"  o 4 y l n m m m m W { m } } } } } } M M M M M M v a g g a s a s s d 9 o.V.V.V.V.V.D.D.F.U.U.0XqXqXqXqXyXyXpXbXbXMXBXBXDXUXUXUX",
"  o 4 e l n c c m m W } W } } { } } } } S b b b m b v g g g a s g g v g o.D.A.D.D.A.I.T.D.I.U.T.T.qXqXyXyXpXaXbXbXbXbXnXDXIXUXUX",
"  o 4 7 l m c c v m M M M W M } } } b m S S b b v v v h g s g g g g v g A D.D.A.A.D.U.F.F.U.T.T.T.R.E.E.yXpXaXaXbXbXbXbXDXIXUXUX",
"  o ; 7 a z l v m m M M M M M b b S b b b b b g v N N h h s p g g v g j g V.A.D.U.F.T.T.T.T.R.T.R.R.E.E.E.pXaXaXpXbXpXbXZXIXUXUX",
"  o 1 7 a c z m m v b M M } S S b b b b g g b b h s g h N h g h b h j h p a.U.I.T.T.0XqX0X0XqXqXwXyXE.E.E.pXsXbXbXbXbXbXDXUXUXUX",
"  O 1 7 a l z v v v v v M S } S C b B b g g g g s s p p p p p h h g f h 9 w.I.U.U.T.T.0XR.qXR.E.E.yXE.E.E.pXpXaXbXbXbXmXZXIXUXUX",
"  O 1 7 a z z z v v b b v S } X. . .S B g g h g g f g g p p f f f g h h h F U.T.T.qXqXqXwXwXwXwXpXyXpXE.pXaXaXmXmXBXBXBXDXUXUXUX",
"  % 4 9 s Z ( ( Z Z C |  .o.w.u.i.u.u.w.9. .D Z V Z V V V k k V k k A G G k R.pXgXhXhXhXhXhXNXNXCXCXCXCXCXZXZXZXZXZXDXHXIXUXUXUX",
"X ; 8 p Z ( 9.9.0.9.9.w.i.i.a.m.m.m.f.f.p.e.e.q.r.r.q.q.G G G r.G G G G r.G E.AXSXFXFXFXFXFXFXFXFXFXFXJXJXJXPXPXPXIXIXUXUXUXUXUX",
"% 4 p k 9.9.q.e.e.e.p.f.f.n.H.M.H.Y.P.J.G.g.s.g.g.g.j.s.s.t.t.d.d.j.j.j.j.d.BXLXLXIXLXLXLXLXLXLXIXIXIXIXIXIXIXUXUXUXUXUXUXUXUXUX",
"; 8 N D 9.e.q.e.e.p.p.g.b.n.H.J.H.P.P.P.G.G.h.h.h.h.h.h.k.j.j.k.K.K.k.L.W.k.mXIXIXUXIXUXUXUXUXUXUXUXUXIXIXUXUXUXUXUXUXUXUXUXUXUX"
};
