/* XPM */
static char *magick[] = {
/* columns rows colors chars-per-pixel */
"64 64 254 2",
"   c Gray0",
".  c #0c0c0c",
"X  c #1c1c1b",
"o  c #1d201f",
"O  c #1e2120",
"+  c #21211f",
"@  c #232421",
"#  c #2a2b28",
"$  c #35352e",
"%  c #38372f",
"&  c #353631",
"*  c #353832",
"=  c #383730",
"-  c #393a34",
";  c #3b3d39",
":  c #363838",
">  c #3e4645",
",  c #4c483f",
"<  c #424643",
"1  c #444a46",
"2  c #4b4b45",
"3  c #4c4d49",
"4  c #434c49",
"5  c #4e514a",
"6  c #514f47",
"7  c #53534a",
"8  c #505047",
"9  c #535b5a",
"0  c #5a5c58",
"q  c #5a625e",
"w  c #5d6565",
"e  c #5e6a68",
"r  c #62645c",
"t  c #6a665c",
"y  c #6b6a5f",
"u  c #646964",
"i  c #656d6a",
"p  c #6c6b63",
"a  c #6c6f69",
"s  c #646663",
"d  c #65716e",
"f  c #6d726c",
"g  c #6b7571",
"h  c #6d7a75",
"j  c #6a7875",
"k  c #726e65",
"l  c #706f69",
"z  c #796e61",
"x  c #747167",
"c  c #74736a",
"v  c #777a6d",
"b  c #7b7266",
"n  c #7b766a",
"m  c #7c7a6d",
"M  c #737b73",
"N  c #7c7d72",
"B  c #737b75",
"V  c #74837b",
"C  c #7c8175",
"Z  c #7d857b",
"A  c #837565",
"S  c #827769",
"D  c #847b6d",
"F  c #8a7967",
"G  c #8b7d6c",
"H  c #877766",
"J  c #837e71",
"K  c #927e6a",
"L  c #8b806e",
"P  c #848274",
"I  c #84857a",
"U  c #84897e",
"Y  c #8b8373",
"T  c #8a8679",
"R  c #8d8a7c",
"E  c #94816d",
"W  c #99826d",
"Q  c #938574",
"!  c #958678",
"~  c #938a7c",
"^  c #9a8673",
"/  c #9d8875",
"(  c #9c8b7b",
")  c #958877",
"_  c #9b907f",
"`  c #a28c7c",
"'  c #a58d77",
"]  c #a2917f",
"[  c #aa947d",
"{  c #a8947b",
"}  c #b2977c",
"|  c #898b82",
" . c #8e9689",
".. c #958e82",
"X. c #9a8c81",
"o. c #928f88",
"O. c #9b9284",
"+. c #9a9c8a",
"@. c #989588",
"#. c #9ca18c",
"$. c #9da491",
"%. c #9ea899",
"&. c #9fa895",
"*. c #a18f82",
"=. c #a49182",
"-. c #a59c8d",
";. c #ad9683",
":. c #ac9985",
">. c #ab9d8c",
",. c #a29389",
"<. c #aa9e90",
"1. c #b59b83",
"2. c #b69c86",
"3. c #a5a18c",
"4. c #ada38e",
"5. c #a2ab9c",
"6. c #aba193",
"7. c #aaaa95",
"8. c #aaad9a",
"9. c #a5a795",
"0. c #adb29e",
"q. c #bda98f",
"w. c #b9a38b",
"e. c #b4a391",
"r. c #b4ab95",
"t. c #bba494",
"y. c #bcac93",
"u. c #b6ad9b",
"i. c #b4b39c",
"p. c #bdb097",
"a. c #bcb49c",
"s. c #beb89f",
"d. c #a9afa0",
"f. c #abb2a3",
"g. c #b4bba3",
"h. c #bcb5a1",
"j. c #bdbca3",
"k. c #b4b9a9",
"l. c #bec0a7",
"z. c #bcc2aa",
"x. c #b6c0aa",
"c. c #bbc5b2",
"v. c #bec9b4",
"b. c #c4aa8e",
"n. c #cbad8d",
"m. c #c5a68a",
"M. c #c2ac91",
"N. c #c9ae90",
"B. c #c4ad9b",
"V. c #cfb08f",
"C. c #c5b093",
"Z. c #c2b69b",
"A. c #c3b99e",
"S. c #ccb192",
"D. c #ccb69d",
"F. c #d7ab86",
"G. c #d4ae8b",
"H. c #dcac85",
"J. c #dbae88",
"K. c #d4a783",
"L. c #d4b18e",
"P. c #dbb38c",
"I. c #ddb087",
"U. c #d4b492",
"Y. c #dbb691",
"T. c #ddba94",
"R. c #debc99",
"E. c #d8b897",
"W. c #c1bda3",
"Q. c #cdbaad",
"!. c #c6b6a7",
"~. c #cebab0",
"^. c #dbbba4",
"/. c #d9bda7",
"(. c #e2ae85",
"). c #e4b087",
"_. c #e3b48b",
"`. c #edb386",
"'. c #ecb68b",
"]. c #e2b790",
"[. c #e4ba94",
"{. c #e3bd99",
"}. c #ebbb95",
"|. c #eabf9a",
" X c #f2b78b",
".X c #f4b98b",
"XX c #f7b787",
"oX c #f4be93",
"OX c #fabe91",
"+X c #e1bfa3",
"@X c #c4c1a6",
"#X c #c4c5ab",
"$X c #c7c8ae",
"%X c #c9c5ac",
"&X c #c8c8ae",
"*X c #c2c6b2",
"=X c #c4cab3",
"-X c #c5ccb9",
";X c #c9cbb4",
":X c #c9ceba",
">X c #cec4b7",
",X c #cbd1bd",
"<X c #c7d0bc",
"1X c #dcc1ac",
"2X c #dcc5b4",
"3X c #d5c9ba",
"4X c #e5c19e",
"5X c #ebc19e",
"6X c #ffc28f",
"7X c #f4c39b",
"8X c #fec394",
"9X c #fbc59b",
"0X c #f9c99a",
"qX c #ffd49e",
"wX c #ffdb9e",
"eX c #ecc4a2",
"rX c #e8c7aa",
"tX c #e5caba",
"yX c #f3c9a6",
"uX c #f3ccaa",
"iX c #fbcca1",
"pX c #f4c7a4",
"aX c #fed2a4",
"sX c #ffdbab",
"dX c #fed7a7",
"fX c #ffdcb4",
"gX c #ffd2b1",
"hX c #ffecad",
"jX c #ffe5a8",
"kX c #ffe4b3",
"lX c #ffebb4",
"zX c #ffeebb",
"xX c #ffe1bc",
"cX c #fff5ad",
"vX c #fff8af",
"bX c #fff3b3",
"nX c #fff3bc",
"mX c #fffdb4",
"MX c #fffdbd",
"NX c #ced4c1",
"BX c #d9cdc1",
"VX c #dad1c4",
"CX c #e6cfc0",
"ZX c #e3d4ca",
"AX c #e2dad2",
"SX c #ffe3c0",
"DX c #fff4c3",
"FX c #fff6c9",
"GX c #fffcc4",
"HX c #fffecb",
"JX c #ffffd4",
"KX c #ffffdb",
"LX c #ffffe3",
"PX c None",
/* pixels */
"HXGXMXmXvXmXKXJXHXHXJXLXLXLXLXKXKXKXLXKXKXJXJXKXgX+XCXCXCXCXCXZXCXtX+X+X+X^.^./.1X2X2XBXCXVXAXAXAXAXVXVXBXBXBX3XVX3X>X%Xj.<.P 7 ",
"HXHXMXmXvXGXJXJXHXHXJXKXKXKXJXJXKXJXJXJXJXJXKXKXSX^.tXtX+X/.tXCXCX+X^.^.^./././.^.^.2X2X2X3XBXBX3XBXBX3XBXBX>X>XBX>X~.!.u...t $ ",
"MXGXmXbXbXnXzXDXzXDXDXFXFXzXzXDXFXDXDXnXDXDXDXFXSXt.D.!.~.~.~.~.~.B.B.B.B.B.~.B.M.t.t.t.t.B.!.!.!.h.!.h.h.h.h.h.u.u.u.6.O.S , . ",
"mXmXbXhXdXdXsXdXsXsXfXfXfXfXfXfXfXfXsXfXfXgXfXfXgX2.t.t.t.t.t.t.2.2.2.;.;.;.2.2.;.;.;.[ [ ;.:.<.<.<.<.<.<.<.6.6.<.-.-...Y t =   ",
"mXvXjXqX6X8X9X9X9XpX9XpX9XpXpXpXuXuXuXuXuXyXyXuXuX2.=.=.=.=.;.=.;.;.` ;.K K ` ` *.( *./ ^ K X.X.~ X.X.X.O.X.O.@.@...~ Y z 7 #   ",
"cXcXwXqX6X8X8XoXOXoXoXoX7X7X7X7XyXyX7XyXyXyXuXuXuXt.*.=.` ` K ` K K K K K K K ` ( X.X.( ( ( ( X.~ ! ! ..O.....o.O.R R D k 6 @   ",
"cXcXjXqX6X6X8XoXOXoX.XoXoX7XpXpXpX5XeXyX5XeXeX4XrXD.K *.K ` K ' K K K K K K K K K K K ! ( ! X.X.! ! ! ~ ..........R Y D k 6 @   ",
"hXhXwX8XXXXX.X X X X`.'.oX|.eX5X5X5X5X5X4X4X[.4X+XE.K K K K K K K K K K K K K K K K K G G G G K K ! Y ! ~ R ..R R T P S t 2 +   ",
"hXhXqX6XXXXXXX X`.`.'.`.}.+X|.pX5X4X}.[._.[.[.4X{.R.^ K F F H F K K H A A A H H F F G G G D G D D Y Q Y Y R ~ ~ R Y J n y 2 +   ",
"hXjXqX6XXX`.XX`.`.`.'.'.+XpX|.|.4X[.].].].].R.T.U.G.' A H A A A F F H H A A S S S S S G G G G G D G G Y Y Y R R Y P J m p 6 +   ",
"cXhXqX6X`.`.`.'.'.'.'.}.|.|.}.}.].].].T.T.Y.U.L.n.U.[ z b z z b z A A A A b b b S S S S D G D D Y G Y Y Y Y R R Y J J m y 7 +   ",
"cXhXqXOXXX`. X'.'.'.'.}.|.|.{.}.].[.[.R.T.L.L.S.S.S.1.z k k k p s p k l l l S S b b b S S D G G G Y Y G Y Y R T T J J m y 6 +   ",
"bXlXqXOX`.`. X`.).(.).'.].}.[.].[.[.R.T.U.U.U.S.M.q.w.p p k x x l l l l k k b b n n b S n n J J D D Y D P Y Y Y P P D v t 2 @   ",
"bXjXqXOX`.(.`.(.(.H.).'.}.[.[.{.R.R.R.Y.U.S.C.q.y.y.y.J p x c c b l l l b l l l l l S S n S D J Y J Y D D J P Y P P J m y 3 +   ",
"bXkX0XOX).H.).(.H.(._.].].[.].[.R.R.Y.S.C.M.q.y.y.y.r.~ r a a a l l l l l l l l l l l b c n S D D D P D m m m P P P P C y 2 +   ",
"bXjXaXoX(.H.(.H.H._.}.[.].].Y.R.T.E.S.C.y.y.y.y.r.r.r.O.w f f c l l l l l l l l n l b l l b c S D P P D D J N J P P P N p 3 +   ",
"bXlXaXoXH.H.(.(._.[.].[.].Y.T.T.V.C.q.q.p.y.y.r.r.r.r.r.f f f f f a f l c c v c c n x x x x c n D P P Y P J J N P P P N s 3 o   ",
"lXlXaXoXH.H.).)._.[.].].Y.Y.T.L.N.q.q.q.y.y.r.r.p.i.i.i.C g f f g f f g M c v v n n n v x x x c v m D Y Y P J N I J N v t 3 @   ",
"lXlXdX7XJ.I._.)._._.Y.Y.Y.Y.U.C.q.q.p.p.p.p.i.s.i.s.s.s. .d d d f i i f a M m v m v n n n c c c x c m P T T P P I I N c r 3 @   ",
"lXlXdX8XI.I._.J._.P.P.Y.Y.Y.N.C.y.y.p.p.a.a.s.j.s.j.j.j.#.d d d i i i i a c N P m v c c n n c c x x m D P P P N P I C v u 3 @   ",
"lXlXdX8XI.I._.P.P.L.P.Y.Y.S.q.q.y.y.p.Z.a.W.@X#Xl.l.l.l.0.e d d d d d d i f c N J J v n n c n x x x c N J J P N I I I v p 5 o   ",
"bXlXsX8X_.I.P.I.P.P.L.L.V.b.q.q.y.p.Z.a.s.#X%X#Xz.z.l.l.x.V V j g d g f f f M J Y J D D D n n n x x c c N N P P I P C C p 3 @   ",
"nXnXdX0X_.I.I.L.L.L.L.V.C.q.y.y.p.Z.s.s.@X#X#X#Xz.z.z.x.x. .V V B g j g N N m J P P P D P S n n x x c c m N J P C P C C p 5 @   ",
"MXlXsX9X].J.P.P.L.V.V.N.b.q.y.y.Z.Z.s.A.#X$X$X$X$Xz.z.z.x.&.V V B B g M C N m m m D L D D D n n c x a c c N N P C C C C a 5 o   ",
"nXbXsX7XP.G.P.P.n.n.n.b.q.C.y.p.Z.a.a.@X&X$X=X=X;X=Xz.v.l.0.j V j g g N I J m J P P L S m L m b c x x x x C C C v f f f c r #   ",
"GXnXsX7XP.G.P.L.n.b.b.b.q.y.y.Z.a.a.a.j.&X;X;X;X<X,X=Xz.z.x.V g d g g B N N n n S L F A b A S b x c x x k k c C R ~ 3.r.3.C %   ",
"MXnXsX7XP.L.P.G.b.b.b.b.C.y.y.Z.a.i.i.l.#X;X,X,X,X,X,Xv.z.z.Z d d i f c m D D J S A H L F A L b y k y c P _ 4.p.A.A.s.a.3.m %   ",
"nXnXsX7XP.L.Y.n.b.b.b.M.C.y.p.Z.a.a.a.@X&X:X,X,X,X,X-X;Xz.x.#.e d i c J J J D S H A F F A z z D L _ 4.y.y.p.Z.A.A.A.s.s.3.m %   ",
"nXnXsX7XP.Y.P.V.b.n.b.p.y.y.p.Z.s.a.j.@X=X;X,X,X,X,X:X$X$X#X9.d f c P P D D S A z A H W { } w.C.q.q.C.q.y.p.A.Z.a.s.a.p.3.n %   ",
"MXnXkX7X].U.Y.n.b.b.q.q.p.y.p.a.s.a.W.%X;X;X;X,X,X:X;X&X&X#Xi.g v c m S k A F ^ } m.G.T.T.L.V.b.q.C.p.y.y.Z.A.Z.a.p.i.a.3.n %   ",
"DXnXsX0XT.L.L.V.b.b.q.q.y.p.C.Z.s.a.@X&X;X;X;X:X:X:X&X#X@Xs.s.v u f P ( ;.m.T.Y.P.L.P.P.T.Y.L.n.q.C.q.p.y.p.A.s.p.i.i.i.3.n %   ",
"DXnXsXpXT.L.U.L.b.b.q.b.y.p.Z.Z.s.i.@X#X&X$X&X;X&X;X;X%Xa.a.r._ O.e.M.N.S.Y.Y.P.L.L.L.P.P.L.L.V.q.C.q.p.y.C.A.Z.p.i.a.p.3.C %   ",
"GXMXkX0XY.P.U.V.b.q.q.C.y.p.Z.A.a.a.W.#X@X@X@X@X@X@Xi.-.| N u ~ y.q.b.b.L.V.P.I.I.P.P.P.P.G.V.n.b.b.p.y.y.p.Z.A.p.r.a.a.3.n %   ",
"GXGXkXaXY.U.U.V.b.q.q.M.y.y.Z.A.a.s.j.@X#Xj.0.$. .Z B f N N n J q.b.L.n.L.G.G.F.J.F.J.J.F.L.L.n.b.b.q.p.y.Z.Z.A.a.i.s.s.3.C %   ",
"DXDXkXiX[.R.Y.V.b.q.M.M.y.y.C.D.a.r.3. .| Z V M V I I I J P D n b.U.T.Y.P.J.F.H.H.H.J.F.G.G.V.b.b.b.q.p.p.Z.p.Z.a.a.s.A.7.C %   ",
"DXDXkXaX4X[.E.N.b.b.M.M.y.>.O.~ P c v M Z I C M N M P P J J D z w.T.[.]._.I.H.F.H.I.H.H.K.G.n.b.b.C.q.q.p.Z.a.s.a.i.l.l.7.P %   ",
"DXGXkXuX4X].U.N.w.;.) D n p p l N C N C I C C N N I P P J G K F } 4X[.[.[.).H.K.K.K.H.F.F.P.n.b.b.q.q.q.p.Z.s.s.s.i.W.l.7.C %   ",
"GXDXkXaXP.m.' G z y t k n l k l m N P P I I N I I T Y Y G K ( K } rXeX5X5X}.).).H.K.H.J.P.L.V.b.N.q.p.r.p.s.s.s.s.i.W.j.7.C -   ",
"kXaXU.[ K H A z A b z k z l l c c N P P I P P T Y R ~ Y ! ! ! ! ] rXeX5X5X}.`.'.).H.).I.I.L.V.V.C.C.q.y.Z.Z.a.a.s.a.@Xl.7.C %   ",
"2.2.1.' W K K A b A k p n n l c c N N P P P P P R R Y ) ! K ^ / ( 1X5X5X5X7X'.`.).H.).].P.P.L.N.q.p.y.p.Z.a.a.a.a.s.j.l.8.P -   ",
"m.m.1.[ W K K A A H n k k n l l c m J P P J D Y T Y ~ Q K ^ ^ / ~ D.eX5X|.eX|.}.}.).}.[.Y.Y.P.N.M.y.y.Z.s.a.a.i.s.s.j.l.9.I -   ",
"m.m.} ' W K K H S G S k n n b l l c D J Y J m P Y ! Q ! K ^ ( ( ( t.eX|.eXeX|.pX|.}.].[.Y.U.S.q.y.y.p.Z.a.a.a.i.j.g.@Xl.9.C -   ",
"m.m.1.' K K K H S H F n k n n l c l n m Y P Y D J G ! ! ^ ^ ( ` ,.;.rXeXeXeX+XeX}.[.].].Y.S.b.q.y.y.Z.Z.a.i.a.h.l.l.#Xz.8.C -   ",
"N.m.1.' K G G H H S G D n n n l c c c n D D D Y G G K ~ ! ^ / ( ,.X.+XeXeXeX|.[.].[.{.T.Y.S.q.y.y.p.Z.a.a.a.a.j.l.j.#Xz.8.P ;   ",
"b.m.[ ^ K K K G H D D D S n n n k n c l n n D G G G G K ^ / K ^ *.X.D.pXeX+X[.].[.{.R.E.V.q.y.y.p.Z.Z.a.a.j.W.%X@X#X*X*X8.I ;   ",
"b.w.` ^ K G K G H S n S D D n n n n l l c n D n S D G K K K K ^ / K 2.rX+X[.].T.R.R.E.S.b.y.y.y.a.Z.Z.s.W.W.%X#X#X#X;X*Xd.I ;   ",
"b.t.*.! G H D G S n n D D G D n n n n l k x n n n n D H K K K K K ^ =.+X{.[.U.U.U.U.S.M.y.y.r.p.a.Z.s.j.@X&X#X#X;X*X;X*Xf.U ;   ",
"M.2.,.K G S D D S S S D J G J D n n v n c x c n n b D S S H H F K K F U.U.L.U.U.S.N.y.y.y.y.y.a.a.a.W.W.%X&X=X;X;X*X:X*Xf.U ;   ",
"M.>.` Y S S G F G D D L D D D D J n n n c l l l n S n b n S H F H H z } V.S.C.N.q.y.q.y.y.p.p.p.A.W.@X%X#X;X$X;X=X=X-X;Xf.| :   ",
"t.>.( Q S S S D D G G Y P D D m n n n c n v c l l k x b z b n z b b y _ C.q.q.q.y.y.y.y.p.p.a.s.W.@X@X%X$X;X$X=X-X=X-X-Xk.| ;   ",
"e.e.=.Y S n S S D G J D D D P P n c c n n c c l n l l k k k k k k p y m e.q.q.y.y.r.r.r.i.i.s.W.@X%X#X#X;X$X$X=X-X;X<X-Xf.I ;   ",
"e.>.=.Q S S D D D D D D P Y D L J v n v n n n l l n l l n c l k p x x x y.p.p.y.r.r.r.p.a.s.@X@X%X%X#X#X#X#X=X=X-X;X-Xv.d.I ;   ",
"e.-...Q D D D D D P D D S D P P J J N N v v v N l l l l l l l l p l x p 3.r.e.7.r.r.r.a.s.W.l.@X#X#X$X#Xv.$X=X,X-XNX-Xv.f.Z ;   ",
"e.-.X.Y D n S S n n D P m P L P P J J N n N n N m c l l a a a a f a u w R 7.r.r.r.i.a.i.s.j.W.@X#X#X#X#X=X=X-X,XNX-XNX-Xf.| ;   ",
">.>.( Y D D n l n n D P D D P P P P J P J N c c v M c c a a a a f f c a R a.i.i.i.i.s.W.s.i.j.l.@X#X#X#X=X-X<X,XNXv.-Xv.f.I ;   ",
"-.-.~ J m D n l n v D m m P m D J J N N N J m M c c c g a a i a f g c f C a.a.i.s.s.s.s.s.j.l.l.l.#Xz.#X=X-X,X<XNXv.v.c.d.Z ;   ",
"<.,.T D b n l n n n m m m m N m v N N v c c c c f c f f f f i a f f f g d 7.a.a.l.W.W.l.j.l.l.l.z.z.z.z.v.=X<X<XNXc.c.c.5.V ;   ",
"-.@.I B l l k k x x c c c m m c v c f f f f f f f i d f f i i f f f f i e @.i.i.i.i.j.j.g.s.g.x.l.z.x.x.x.z.v.v.v.k.c.k.5.V ;   ",
"o.o.J f l k k k p x p x c m N N c f f f i i u i i i u u w w e i d i i i e U 0.i.i.0.i.i.g.g.l.g.x.z.x.x.x.c.z.v.v.c.c.k.%.V ;   ",
"o.o.J l p p p p u p p p a x v m v v v a u s i u w w s e w w w w w e i i e h 7.7.i.0.i.0.0.i.i.g.x.i.g.g.x.x.x.c.c.c.c.k.$.B :   ",
"| N s w 0 0 0 0 0 9 0 r q t y p p p p p r q q 0 9 0 0 9 9 9 9 9 9 9 9 q q 9 U ..+.#.#.#._ #.#.$.$.#.#.$.&.%.5.%.5.%.%.%.| q @   ",
"B l 9 1 < < 2 , , , , 1 2 2 5 5 7 7 7 5 3 1 1 1 1 1 < > > > > > > > > 4 4 > r x v v v v v v C C C C C C C C C C C C C M u < .   ",
"0 3 : @ X X X X X X o + o + + @ @ @ @ @ + + o o o o o o o o o o o o O O O o # $ % % * * $ $ % * * * $ $ * * * * * * * & @ .     ",
": + .                                                                                                                           "
};
