/* XPM */
static char *magick[] = {
/* columns rows colors chars-per-pixel */
"48 48 60 1",
"  c #1e271e",
". c #1f281f",
"X c #212b21",
"o c #263025",
"O c #2b362b",
"+ c #2e3a2d",
"@ c #303c2f",
"# c #323e31",
"$ c #344137",
"% c #354439",
"& c #38473c",
"* c #3c4d3e",
"= c #3d4c41",
"- c #3e5140",
"; c #425544",
": c #455847",
"> c #475a49",
", c #495e4b",
"< c #4d624f",
"1 c #5c765d",
"2 c #5d785d",
"3 c #627d62",
"4 c #658165",
"5 c #67846b",
"6 c #69866d",
"7 c #6b886f",
"8 c #6d8c72",
"9 c #708f74",
"0 c #759375",
"q c #799679",
"w c #7c997c",
"e c #829c85",
"r c #869f88",
"t c #87a089",
"y c #89a28c",
"u c #8fa691",
"i c #90a792",
"p c #93aa95",
"a c #96ad98",
"s c #99af9b",
"d c #9cb19e",
"f c #9eb3a0",
"g c #a2b7a4",
"h c #a4b9a6",
"j c #a9baae",
"k c #acbdb1",
"l c #afc0b4",
"z c #b4c3b5",
"x c #b8c6b7",
"c c #b9c7b8",
"v c #bdcabc",
"b c #c2cfc2",
"n c #c5d1c4",
"m c #c8d4c7",
"M c #cad6ca",
"N c #cdd8cd",
"B c #cfd8d2",
"V c #d2dbd5",
"C c #dee5e0",
"Z c #e5eae6",
/* pixels */
"cvkkkkkjjjjjjjjjkkkkkkkkkkkzkkjgjgggjjzzzxxjgjsd",
"jZCnbbbbnnnnmmnmMMmMmmmVVVVBVBmmmmmNBBBVVVVmNj3;",
"jVzssssapiuuipssssdddddyytrww0977qqertuiurq0er>=",
"hMpwweeewqqqerrrrrrtrrerreewwq990wwetuutw00wuq$=",
"hMswweeeeeewerreeerrreweewewq099qeeruutq7qwru7#=",
"hMdeqeeetreeereeeeeeeqwrreqwwq90wertuue7qerrt7#=",
"hMdrqerrttewerrrrewwweettewew00wweruue00errrt0#=",
"hMdyeeeerreerrttreqqwertyewew0qeeruuuq0qerretq#=",
"dMsueweerewrtyytrwqwrttytewewqweeruur00erertpq#=",
"hMsue0wereertttteewertytrewwqqwewruuw0qeeeridq#$",
"gMaye0werrerttrrreeetyttewqqqqqwrupuq0eeerpdd0+&",
"hMarrwrryrerrreereeeyyyteq0000qerppr00eeruddi3+=",
"hMsrreerrrereeeeeeeruuyrw0q00qwtuptq7qerrupuw3+=",
"hMawerrreeeeeeerreeettteq0qqqeuipue0qerrupire3O=",
"hMpweyrwwwereeeytrwerteqwwqqwtisuq0qerrtpauur3O=",
"jmperurqqweerrtuureetreeeeqqeusie0qrutupaurew1O=",
"jmprupr0qwwerrupureryreeewqqrupuqqeupiuirwq001+=",
"jmptuprqqeeeruuuteerrreeeq0qruue0qrspurrq000q3#;",
"gnprupr0qweruturreeerrewqq0qrurq0wuiuqq070qqt0#;",
"gnpuppr0qqertuuureeerrewwqqeuurqqwrue7000qwrt0#=",
"fnpupuw70qerruuutrerrreeeqqruur0qruuw67q0weer4#=",
"dnpuiuq7qqrruuuuureeeeqqq0qruue0wrutq7qwwreer4+=",
"fnsuur77qerruuuurewwqqqq00wruuw0erir7qeereeer4+=",
"jmuute00errrtuuurwqqqq000qeturqquiiw0wweeeerr7+=",
"zmurreq0errtuuuueq000qqqqeeuue0eupuq7eeeeeeet6+=",
"zNureeeqerrttuuue00070qqeruurq0eupr7qrereeert4+=",
"zNurqeeerrtttuuue0000qeeruurqqerupr0wereerrrt3@=",
"zNrrereqerutuuurq007qerruureqqeruiuewrereertt7@*",
"xNreereeerrttturq000qrtuuueqqertuureeweeeeett7#=",
"xmeeerrerrertturqq00eruuurqqeerrreq0wqweeeert6@=",
"zmeerrrrrrrtuuurq07qetuuueqqeereeq00wwweeertt6@=",
"xNqeerrreertuutq770qeuuurqqeeeeeeeweerwwerrtt7#;",
"xNqeerreewrruprq00qertuteqqeeeeeeeeeeeeerutuu0#=",
"xBeeerreqwrruur00qqrrtuteeeeeeeeerrreeeeruuuu7@=",
"xBeeerreqeeruuuq0qqerttreereereeereeeeeeeeeew3O$",
"xBeeerrrerrruurq70qerttrwrrerrrereeeeeeeeq0701O=",
"xBreeeererruurre70qrrtrreerrrtrreeweeeeeew0003@=",
"xmreeeererurrreqqqrrttreeetrrrwewweeeeeeeeewe4@=",
"zNreeeerrrrrrreq00ruttrrwwrtteqwweeereeeeeewr4@=",
"zmreeeerrerureqqqqqrtrreeeturq0qeweereereeeer7@=",
"xmreewweruuureeqqeewrreeeerurqqweweeereeeweer7@=",
"zmeerrweruuurreqqeeerrqeeerreqqwqweeeweeeeeer4@=",
"zmrerewruuuureqqqeeerteereeweqweeeeewerreeert7#=",
"xNreewetuiiurqqqqqeeruurreqereweeeeeeertrrrtt0#=",
"xBreewrpppurqq00qwerriitqeqeutererrrrrrttuuut7#=",
"vveqwetppureq007qeerrtitqqwq073334644647777741#=",
"zu>oO+###O..    ..XX.XX... .+++++++++++++++++oo=",
"7>=$===;==>:;;;=>>>>><>>>:>>><<>>>>>>>,,>>>>>:=<"
};
