/* XPM */
static char *magick[] = {
/* columns rows colors chars-per-pixel */
"48 48 48 1",
"  c #2b2fbf",
". c #2c2fc0",
"X c #2e32c1",
"o c #3236c4",
"O c #383bc7",
"+ c #3b3eca",
"@ c #3e41cb",
"# c #4144cc",
"$ c #4549cf",
"% c #4b4ed1",
"& c #4e51d3",
"* c #5156d4",
"= c #555ad6",
"- c #585dd7",
"; c #5a5fd8",
": c #5e63d9",
"> c #6267db",
", c #747be1",
"< c #787fe2",
"1 c #7d84e4",
"2 c #838ae6",
"3 c #888fe7",
"4 c #8d94e9",
"5 c #9197e9",
"6 c #949aea",
"7 c #999deb",
"8 c #9ca1ec",
"9 c #a1a5ed",
"0 c #a5a9ee",
"q c #a9aeef",
"w c #abb0ef",
"e c #adb2f0",
"r c #b1b5f1",
"t c #b6bbf2",
"y c #babdf2",
"u c #bec1f3",
"i c #c1c4f4",
"p c #c7c9f5",
"a c #c9ccf5",
"s c #cfd1f7",
"d c #d2d5f7",
"f c #d5d7f8",
"g c #d6daf8",
"h c #dadcf9",
"j c #dee0fa",
"k c #e1e2fa",
"l c #ebebfc",
"z c #f1f1fd",
/* pixels */
"aaiuiuiyuuuuuuuuiiuiiuuuiiippuyyuyyyyuiaaaayyuwt",
"uzlfddddsggdgggggggghhgjkkjjhhgggggggkgkkkgggu1*",
"ukpewreqq0000qwwwwwrrrw998876533355689ww085578:*",
"yhq66776666668888889888888766533566690086355w6#*",
"yhw6678788778888888887677766653366880095356805#%",
"yhr767799887888888887678876665356889w053589883#%",
"yhr8688889868888887666788766645668800855688893#*",
"tfr9778888788898876678889867656788800535888893#*",
"the0866888689998865588898866666778w085588778w6#%",
"tfw0846888788998866889998766656769006358778ww6#%",
"thw9847898899988888889998665556660w9556880wrr3#%",
"yhw976889888988888889998765535568ww8556880rww1#*",
"yhw987898878866887789998655455780w96368789w971O%",
"yfq6898887788778887899985455569qw0655788www871O%",
"yhq679876678888998688976665579qw96566889ww098<O%",
"yfq680956678888008888886766580ww6568098www877<O%",
"ygw80w955678880w08889988865580w9558wwwww85555,O*",
"ygw8qw93667899qq8888998685558008558ww888535351#=",
"ygq80w95667899998888887655568086369w9555355593#*",
"tdq9qw9356789999887898766556909556908353355705#*",
"tdw0wq6346689900988888676558008558005235568882#*",
"edw0w931568900qq988886556558007558w95256688681#%",
"tdw0q83367890000886665555568096568w83568888882O%",
"ygq998337789900986555555557908558ww83588887882O*",
"ig9988557899900075444555568007579w953686888882#%",
"ag097865889890w074444556689086579w835888888882O*",
"ag986876889980w965444568900965680w955888888881O*",
"ag986886899990085544568900965689ww966888888882#%",
"ag887877889999985543689009755889w0886688787883#*",
"ag778988888899085535789q0855788998536566788881O*",
"ag87899888890907533589000755788886556666888881#*",
"ag76799887890096335580008557887866668966888803#-",
"ag77888868890w85355689088658887788888878909003#*",
"ag87888856880w85555889998688888878887868800w02#%",
"aj8788885689909535588998688888888868888877776<O%",
"ag8788888889099535589998688888888888886876535<O%",
"ag98888888999986355889986888808886688866765551O%",
"ag88688988999986557899986808886666678888876661#*",
"ag98688898989865558989887798885667788886887781#%",
"ag88688898998865555898887680865577788888877782#*",
"ag868668990q8866686688886899855667888888867882#*",
"ag888866999q8866668888568888866666687678766782#*",
"ag88886800098866668899888877856667766688867792#*",
"ag888688wwq98655566880088866886778888888800093#*",
"ag87668www085553568889w9576799778888808880w092#*",
"ad85680ww088555356888909566533111211111333121,#%",
"a9:oOO##OO                  O#OO#OOOO##OOO#OOX %",
"3:*%**==**:====*:::::::::-:::>::::::::::::::::%>"
};
