/* XPM */
static char *magick[] = {
/* columns rows colors chars-per-pixel */
"48 48 51 1",
"  c #1e1e1e",
". c #232323",
"X c #272728",
"o c #282827",
"O c Gray17",
"+ c #2f2f30",
"@ c #30302f",
"# c Gray20",
"$ c #373739",
"% c #383837",
"& c #3c3c3b",
"* c #3f3f40",
"= c #40403f",
"- c #444443",
"; c #484847",
": c #4c4c4c",
"> c #4f4f50",
", c Gray33",
"< c Gray36",
"1 c #646464",
"2 c #676769",
"3 c #6c6c6c",
"4 c #71716f",
"5 c #747474",
"6 c #787876",
"7 c #7c7c7c",
"8 c #848484",
"9 c Gray55",
"0 c Gray58",
"q c #989896",
"w c Gray61",
"e c #9f9fa0",
"r c #a4a4a4",
"t c #a8a8a6",
"y c #acacac",
"u c #b3b3b4",
"i c #b7b7b8",
"p c #b9b9b7",
"a c #bcbcbc",
"s c #c1c1bf",
"d c Gray77",
"f c #c7c7c9",
"g c Gray80",
"h c #d0d0cf",
"j c #d3d3d3",
"k c #d7d7d8",
"l c Gray86",
"z c Gray89",
"x c #e7e7e8",
"c c Gray92",
"v c #f3f3f3",
/* pixels */
"vccxccccxzlzzzzzzzcxzzzxcccccczlzllkkzzzzzzzzzzy",
"vzlljkljfauupssspadarrtruadspuyuywwe00ryr000e0y,",
"cljjjjjgdywruuadauaautwwwryyrrr099998779999998<+",
"cljfdddgfaryaddfdyaduttyytytyyr0000988899900095*",
"xjgdpaadauryaaffaryuuuyapyyyyurw99e089999000905*",
"xffdddaayyuuuyuuyryrrrwwrwryyywww00e08989009885*",
"cfdgfdauwyuyuywerryw00990w0wrtrwew9999990e09982*",
"cdufgdurwyyrw000ryrrr000ww00yutre087889ee099772>",
"xdudgatrryytwwwwye0erryeyyrruuyr9777999ee008772,",
"zdadauyrewwrryyw0080eruruuuyuuyr077898899988771:",
"zauurrurw00weyy089eeeyyeyuuauutr09778988877733<;",
"zdyyrwrw99re0yuyeee00eyttyyuuuuue0855998888733<*",
"cdyytw0990ee0udiiur099rrewwwryure08388998877572*",
"cfytrw00wrw9rddiuuuy080e099890ew097589888877771$",
"zfyrrrwwyuweuddauuyyw89989878890975379888885551*",
"zawwrrwryutraaauuuyy09ww99889877758777588875441*",
"lu9wuiuyrrewiauuuuuyw90ww0998888575575578875552;",
"zu0riaurw09eiauuiuuy074789098887773557777755331*",
"zyeyuuurww90yauyuuye984589975878997778987522321*",
"luerryyre00eyuyryr98898790872289009888882222331*",
"lu0eryte000eyree98780989ee09517898988888722235<*",
"luwwwrre9euaau979900988000999338875777777553571*",
"lurwewe07euiaie58ew0989989009517754777532555551*",
"kduytre09euyrye58000999090e0712755378852232223<:",
"jayyyyr97eurere77809988809972<57555577533521221,",
"jr9wrw0937re0e8700998777873<225875333575323221,;",
"gr0re00825998978009885557777778885313577533321,*",
"gy0yyw091<755757998987775278888885213777532211>$",
"fyetuye8<<57587899988788755575577331357851111<>*",
"fywtyy07227e879ee09777875575555772135552221,1<>#",
"guwrrw98770r9789908757875575357772133341131:<<>+",
"gu00098870yu92<799877777557535554221322<<1,:<<-+",
"jaw0e0888wrw91<7987578885572235223531<<<,,:>,,;+",
"jde009878ew991,2775779995552223335552<,,,>,<<,*O",
"gdrw877770r05<<152280e885325512255521<<,,,,><<-#",
"garr0877570812555229ee88722572<133121111<,>-:,>$",
"kdr097777787775552800975223752<122232121<,:&;,>+",
"jaw857758777557755798555557752222132222<>:::;,;O",
"jp975971578877875558755577773233322<<11<>;,,::*X",
"lu9559717988788757785532577532522111,<,,,,:::-$.",
"ku072552787898875557522235533121<121<1:;,,:;,;$X",
"ku0943787888755523237577525321<1<<<<<<,,>>>,>&$X",
"ly9813877899778721<<7777555522<111>,,<<,:>>,:&&X",
"lr7228978847890822255773112511111<::<<<,;->;--&X",
"le31599799519097115888851<221<,<,<,::,<<:-:-*-&.",
"le3259878871887552378877211<,<><,<,:>,,,-:--;&+ ",
"j81<1475752<23342<:<2211<,,;;;;::-**;:;-$$$$#X+.",
"y>:*##+.O.    .O+O.+$****$*$$#+#$++++$$+OX+$+++O"
};
