/* XPM */
static char *magick[] = {
/* columns rows colors chars-per-pixel */
"48 48 62 1",
"  c #242726",
". c #252827",
"X c #272a29",
"o c #292c2b",
"O c #333635",
"+ c #353837",
"@ c #373a39",
"# c #393c3b",
"$ c #3d4040",
"% c #434646",
"& c #464a49",
"* c #494e4d",
"= c #4b504f",
"- c #4d5251",
"; c #525756",
": c #535857",
"> c #555a59",
", c #595e5d",
"< c #6a6f6e",
"1 c #6c7371",
"2 c #727977",
"3 c #767d7b",
"4 c #787f7e",
"5 c #79807f",
"6 c #7c8382",
"7 c #808786",
"8 c #828987",
"9 c #868d8b",
"0 c #888f8d",
"q c #8a918f",
"w c #8d9492",
"e c #919695",
"r c #939897",
"t c #959a99",
"y c #999e9d",
"u c #9ba09f",
"i c #9da2a1",
"p c #a1a6a5",
"a c #a3a8a7",
"s c #a6abaa",
"d c #a9aead",
"f c #abb0af",
"g c #adb2b1",
"h c #b1b6b5",
"j c #b3b8b7",
"k c #b6b9b9",
"l c #babdbd",
"z c #bec1c1",
"x c #c2c5c4",
"c c #c5c8c7",
"v c #c7cac9",
"b c #cacdcc",
"n c #cdd0cf",
"m c #cfd2d1",
"M c #d2d5d4",
"N c #d5d8d7",
"B c #d7dad9",
"V c #dadcdb",
"C c #dfe0e0",
"Z c #e0e1e1",
"A c #e9eaea",
"S c #eff0f0",
/* pixels */
"cvlllllkkkkkklkllllllklllzxxzljhjhhjklzzzxxlhksd",
"lSAMmmmnbMMMMNMNNNNNNNNVZZVVVBNNNNNNVVVCCCVNNk3-",
"kVxdssssappppssdsssdfddyytrew97679qeryipirq9ee:*",
"jNaweeewqq0weetrrrtyytrrteewq9779qeryiitw99wi0$&",
"hNswwrrrreeertrrrrttteweeeewq978qeeriiy089wri8$%",
"hNfeqettytrertrerrrrewerteqww989eeryiie89ryyy7@%",
"hNgtwtttyyrerttrtrewweetyeqew99weryipr98eyrry7$*",
"hNdyeerrtteetyyttewqeetyyrqew0qerryiiq8qrtrry8$*",
"gBdirwertteeyyyteeqqrtyyyrweqqwreripr99rrrrypq$&",
"gNsir9wrttettyytreeettyyrewwq0weeyiie8qrreyps9@$",
"hNsye9erytryyyttrrrryyyyrwq099qweiaiq9erryafs7+%",
"hNsyrqrtytrtyttrrreryyyye009990eypar99eerissp5+*",
"hNsrtrtytrrtreeereetyuutw9999qetppyq8qrryiaie2+&",
"hNaeryrtreetreertrrryyyeq9000eyaaie89rrrippye2O%",
"hNaweytewwettrtyyrerttrqwwqqwtasiw9qerriaaiir2O%",
"jNaetpt0qwetttypptrrytreeeqqrpsae9qriiiaaprrw<O&",
"kNaruay99eertypairryyyreee00tpay09rpapppywq98<@*",
"jNaypay9qeeryyppyrrrtyree090ypie99ysayyr989893#;",
"jMatpay8qqetyyuytrrryteqw99wtiyq9qyaiqq9790wt7$=",
"hmpyppr79qetyyuytrrrtteew09eypt09eyir79780wry7$*",
"fmauapw79qetyuppyrrttreee0qruit9qriiw5799wrrr6@&",
"dmapay969wryuuppytrrrewwq9qtipr9wrii969eerrrr4@&",
"hMsupr77qrryupppyrewq09099qtpyw9eypy89errrrrr5@%",
"jNpyyr88ertyuuyytwq0909990eypyqqrppe8wrrrrrrr6@&",
"zNyytrq9rryyyppyr0999990qetipe9eiai98errrrrrr5+&",
"xNiyereertytyuape99999qqetyitq0riar7qrrrrrryr5+&",
"xNutwrewryyyyppye99890eetyitw0etiay9wrrrrrrrr5@&",
"zNyterewryyyyuutq9889eryppye0qrypayeerrrrrrry5@&",
"xVteetrertyyyyytq989wtyipur9qrtyppreeererrryy5#&",
"xNreettetrrtyuutq999eyupitq9erttye99q0werrrrt5+&",
"xNeeryyttrtyuuur9789eyppyr0wrrtteq89weqeerryt5#*",
"xVeeryttrrryppyq8890ruiitw0errrreeeeerewryryy6#-",
"xNeerttreeryiay999qeyyuyrqqerrrrrrrrrrrryuuuu8#=",
"cVretttrweryupy99qqrtyyyrerrrrrrrrrtrreryuuup7#&",
"cVrerttrweetypy989qrtyyrerrrrrrrttrrrrrrrrreq1O%",
"xVtertttertyyyyw88qryyyreryrryretrrrrrerrq988<O%",
"xVyrrrryttyyuyte88wrttyyertryyrrrrerrrreew0902+&",
"xNyrerryttyyyyreq9rtyyyterytyreeeeeerrrreeewe4#&",
"xVtreeetytyttrw999ruyytreeyyyeqwweerrrrrrreee4#%",
"xNtreeetttyytre0qqqryrtreetyrq9qeeeerrrrteeee6#&",
"xVrreeerytyptreeweeeerrreryyr90wwwetrrrreeert6#*",
"xNrrrrqryipptreqqerryrwrrrrrrqqqweereeeeeeeet6#&",
"xNrrrrwrippytee0werryyrrtreereqeeeeeeeeteeety6#&",
"xVtrreeyaaptre99qwrrruurrrqetrweeerrrrrttyyyu6#*",
"xVteeqrpaaurw9989qrttuprweweyteeerrrttttyuuyy6#*",
"vbrqqeyaaute99999wrrtyuyqqeq76335654454666666<@&",
"ly>OOO###O.     ...XXX...  .O+OO++OO+@+@+O+++oX&",
"7;*%%**=**;;==;=;>>>>,>>;;;>>,,>:::::::>::>::-%,"
};
