/* XPM */
static char *magick[] = {
/* columns rows colors chars-per-pixel */
"48 48 62 1",
"  c #242726",
". c #252827",
"X c #272a29",
"o c #292c2b",
"O c #333635",
"+ c #353837",
"@ c #373a39",
"# c #393c3b",
"$ c #3d4040",
"% c #434646",
"& c #464a49",
"* c #494e4d",
"= c #4b504f",
"- c #4d5251",
"; c #525756",
": c #535857",
"> c #555a59",
", c #595e5d",
"< c #6a6f6e",
"1 c #6c7371",
"2 c #727977",
"3 c #767d7b",
"4 c #787f7e",
"5 c #79807f",
"6 c #7c8382",
"7 c #808786",
"8 c #828987",
"9 c #868d8b",
"0 c #888f8d",
"q c #8a918f",
"w c #8d9492",
"e c #919695",
"r c #939897",
"t c #959a99",
"y c #999e9d",
"u c #9ba09f",
"i c #9da2a1",
"p c #a1a6a5",
"a c #a3a8a7",
"s c #a6abaa",
"d c #a9aead",
"f c #abb0af",
"g c #adb2b1",
"h c #b1b6b5",
"j c #b3b8b7",
"k c #b6b9b9",
"l c #babdbd",
"z c #bec1c1",
"x c #c2c5c4",
"c c #c5c8c7",
"v c #c7cac9",
"b c #cacdcc",
"n c #cdd0cf",
"m c #cfd2d1",
"M c #d2d5d4",
"N c #d5d8d7",
"B c #d7dad9",
"V c #dadcdb",
"C c #dfe0e0",
"Z c #e0e1e1",
"A c #e9eaea",
"S c #eff0f0",
/* pixels */
",%;;>>>>>>>>::>>>,,>:;;;;>>>>>>;==---;**=**%%*;7",
"&ooOOOO@+O+OOO+OOO++X...XXXXXX..     .O###OOO>yz",
"&@<446666444456443670ew0tuyterw09990etippyew0env",
"*#6yyiiyttttttreeetyeweetpitrrw0990wtipspeweetVx",
"*#6yyyyttrerrreeewetewrttiiteee090weypppyeeeeyBx",
"*#6ttrrrtreeeeeewweeerrteeyterewwwetiipitwetteBx",
"&#6trewreeerree0w00erterewttrrrwweeyiiiyeweteeBx",
"*#6rrewreeeeereww00ryteeeeerweewweeyiityeeeeetBx",
"&#6rrwrrrrrrrewww9qtyteetttyte0q0wetyyttteeeetBx",
"&@4rerrrrrrrreeww0rtyteetttyie990ettyytyyeeeetBx",
"&@4wwwrrrrrrreereweyyyretytyte00eetyyyttyeeetyBx",
"&@2989wrrrrrrwrrreyyrtretyytrw88etyiyyttyttetyVx",
"%O1789wrrerrrrrtetytrtrrryyyeq88wyyiyteettteetVx",
"%O1wrrrrrrrrrrttertertertyytrw980yiyteewtttteeVx",
"%@6iiiiyrerrrrtrrrterrreyyytee099ypiyeeweytteeVx",
"=$8iiyuyrrrrrrrrreterqweyyytrq080ypiyteeetteeeBx",
";#7tytttweereewrrrrre0qtppueq888qypiytertyyeeeBx",
"&#4tyteeeqww88wrtttew0eupiyr9880euuuyytttyyreeBx",
"&+6tteteeq0w99rtyyre9qtuuuye089wtuyytrrteyyeeeBx",
"&#6ttteeeeeretppyteq9eypiytw989qyuyyyyrreereerBx",
"&+5ttteteteeryppyrw9eypiyre0880wyuiyyyyreereryBx",
"&+4tttteteee9ypite0wtiiteeq9899eupiyyyyteerwtuBx",
"&+4ttetttteq8tpir0qtpytew098899ripuytyteqeeeyuBx",
"&#5ttteeeer80ysye0eiuteq0099090euiiyyyre0qetyyBz",
"&+6rrrrrerw8rpptq0tpye0999000qwtuuiuyyee98eyypNk",
"%+5rrrrrrr88tptr9wyptw99090wwerypiiiyreq77riusMg",
"&+3rrrree969yptw9eiutq9qwqeetrryppiiyew069yaisMd",
"&#6trrw0886eiirq0tpurq0ereetteryipuuteq96wpsipng",
"*#8yew08898eptr90ypye90werttreryuuyyteq07rppypMh",
"=$8yw0888qqipyw9qyptw90wwetyeretyuyyteqq9yaiypMh",
"=#308080rtyssy98ript080eeetytetyppuyrewq9ysitpNk",
"=+<80qwypppspe90yppt09ereryyyerppiytree09ypiepNk",
"&O<wrtpaauuurq9easieqweeeeyttrtipyttteeq0ypteaBk",
"&O2rypsayrte00wuspywqqwqweytretuytrttewwetyewpNk",
"%O2eypaitrr08euapye00000eyyytertreerteeettyeepNk",
"&+2wuaiyrrq8quapte09009qtuuyteereeetteryttetrsNh",
"*+5idduree99tapye00900qeyyyyreetrttytetytewttsNk",
"%+7ddpyrre9quauewq000qweyyyyrerttyyyyrtyre0eysNg",
"$+0dptrrrq8eiiyeew0qwqetyytteeeetyyytettew9eidNg",
"&$0pyerrr99rpuyeewqweweyyytewqeetyyyeettrewridBg",
"*$8yrrtrq8quiuteeq0weqeyyreeqqetyyyteetttreeyfNh",
"*$8yttte89rpuyreq90weqeyyeeqeertrtteeeyyttewtgNh",
"%#7yyte08eupyree080qwqetreeeerrreeyeeetyttewefNh",
"%$8ure070yiuteeq870qweeeeqettrreettreeeeeerwwsNh",
"&$0ie08etiuyeeq0770qqeerrrtyytertteeq0qweeeewpNk",
"&:ee80ripiyre007670qeeyyudffddsdddspiippasssdxVl",
"-2kBBVCCCVVVBNNNNNBVVCZZCMNNNMMNMMMMMMMnnMnnMASl",
"dslhlxxxzzljhhhjhklzxzlllllllllzllllkklkllllllcx"
};
