/* XPM */
static char *magick[] = {
/* columns rows colors chars-per-pixel */
"48 48 60 1",
"  c #1e271e",
". c #1f281f",
"X c #212b21",
"o c #263025",
"O c #2b362b",
"+ c #2e3a2d",
"@ c #303c2f",
"# c #323e31",
"$ c #344137",
"% c #354439",
"& c #38473c",
"* c #3c4d3e",
"= c #3d4c41",
"- c #3e5140",
"; c #425544",
": c #455847",
"> c #475a49",
", c #495e4b",
"< c #4d624f",
"1 c #5c765d",
"2 c #5d785d",
"3 c #627d62",
"4 c #658165",
"5 c #67846b",
"6 c #69866d",
"7 c #6b886f",
"8 c #6d8c72",
"9 c #708f74",
"0 c #759375",
"q c #799679",
"w c #7c997c",
"e c #829c85",
"r c #869f88",
"t c #87a089",
"y c #89a28c",
"u c #8fa691",
"i c #90a792",
"p c #93aa95",
"a c #96ad98",
"s c #99af9b",
"d c #9cb19e",
"f c #9eb3a0",
"g c #a2b7a4",
"h c #a4b9a6",
"j c #a9baae",
"k c #acbdb1",
"l c #afc0b4",
"z c #b4c3b5",
"x c #b8c6b7",
"c c #b9c7b8",
"v c #bdcabc",
"b c #c2cfc2",
"n c #c5d1c4",
"m c #c8d4c7",
"M c #cad6ca",
"N c #cdd8cd",
"B c #cfd8d2",
"V c #d2dbd5",
"C c #dee5e0",
"Z c #e5eae6",
/* pixels */
"<&:,,<,,<<,>>>><,<<,>>:>>,,,,>>>==;;:>==;===$=>7",
"=XoOOOOO##@+++@#++@@X   XXXXXXX.    ..O###OOo>ux",
"=@167778333333733339qeqqrurreewq000qerupatewqevc",
"*$8tyyuyrrretttrreyuewewruurreqq00qwruipirweerNx",
"*$9yyytteeeeeeeererreqeeruureeqqqqqeuipitewerrNx",
"*@7tteeeeeeeeeeweqqeeeeeeetreeewqweruuiurweeermx",
"*@7reeweeeweeeewqqqerreeeqrreeeqweeruuurewreeemz",
"-$7eeeweeeeeeeweqqqryreeeeeeweewqeeruutreweeerNz",
"*@7eeweereereewww0wryrewerrtrwqqqwerttrrreweermz",
"*@5eeeeeeeeeewewwqettrwerrttur00qwrrttrrreewerBz",
"*@5wwweeeeeeeeeeweetrteeerttreqqwetttureteeeermz",
"=@4q0qweeeeeeweeerttereerrtrew07ettuutretreertBx",
"*O2990wreeeeeeeeeerreteerttteq07qtutrreerrreerBx",
"&O2wweeeeeeeeereeereereettttew09quuureewrrreweBx",
"*@8uiuureeeerereeeeeeeeetyttewqq0ruurrwqerrreeBx",
";$9uuyyyeeeereeeeeeeeqwetutreq00qrpurrewerreeemx",
"=#7trrrewereeeeeeeeeeqqruuueq077qriurreeertewwBx",
"=#6trreewqww00qeereew0euuuye000qeuuurrerrttreemx",
"=#4treeeeqqw00etrree0qruuure000qeuurrrrrerteeemz",
"=#4rreeeerweeriiyreq0eyuutrw000qeurrtrreeereerBx",
"=@7rreeereeeetpiyeqqeruuree0070wruuurureeereetNz",
"=@4rrreeeeeqqtpureqqruureeq0000euiurrrrreeeqrtmz",
"=@6reeeereeq7riueqqruyreqqq0000euputrtreqeeetuNz",
"=@6rrreeerw00upueqeuureqqq00000ruuuuttee0qeetumz",
"=@7rreeeeew0euurqqruteq000qqqqqeuuutrrew00etuimj",
"=@4rreeeew07rureqquurq0qq0qqweeruuuureeq77ruusnf",
"=+4reeeeeq7quurw0euurqqqwqeeeeruuuuureeq7qupupnd",
"=+7reew0q77wuueqqruueqqeeeerreetuuuureq07eipupnf",
"=#0tewq0007eute0qruteqqqeerreeeruuttrwqq7rpiupng",
";#7rqq070qquptq0qrutq0qqqerreeertuurreeq0tpirpng",
":#3q0q00rttpstq0euutqqqweerrreetuuurrwwqqtpirpnj",
"=@100qwtppisueqqupurqqeeeerureruputreeeqqtpurpmj",
"=O1werupputueq0epsueqqeewerreeruurrreeqqqrurepmj",
"=O3ruusptreeqqqusprwqqqqwetreeeturereeqwerreqpmj",
"&O3etiiurre00etputwqqqqqeeurreereeeerewrrrreepmg",
"=+3wupurreq0qupireq0qq0qeuuureeeeewererrrrerrsNg",
"=@4udduree00rpiteqq0qqqeruureeeeerrtterrreqerpmg",
"&@0ddireee0quiueqqqqqqwerrureeeerrtuterree0eupNg",
"##wditeeeq0euureweqqqqerrrrreeeertttrerrew0eusmg",
"=#witerre00ruureeeqwweerurreqqwerttteeereeweudNg",
"=#qteereq7quuureeqqweqettrewqqerrureeerreeretdmg",
"=#0trrre00ruureeq00weqerteeqqeererreertrerrqrdmh",
"=#7trrrq0wuureewq0qwwqeerwqeereeeereeerrreeqedmh",
"=#7urwq7qruureeq07qqweeeewerrreeeeeeewereeeqwsmh",
"=#wuw00qruureww0070qqeeerertrreeerrwwwwweeeewpmh",
"=>re0qruiutreqq770qqeerttdddddssdpppupupppdpdxBj",
";3jNNBVBVBBBNNmmmmNNBBVVBmmmmmmmmnnnnnnvvnnnnCZj",
"dsjgjxxxzzjjggghgjkzzzzkzjjzjjzzzjjzjjjjjzjjjzvx"
};
