/* XPM */
static char *magick[] = {
/* columns rows colors chars-per-pixel */
"48 48 48 1",
"  c #2b2fbf",
". c #2c2fc0",
"X c #2e32c1",
"o c #3236c4",
"O c #383bc7",
"+ c #3b3eca",
"@ c #3e41cb",
"# c #4144cc",
"$ c #4549cf",
"% c #4b4ed1",
"& c #4e51d3",
"* c #5156d4",
"= c #555ad6",
"- c #585dd7",
"; c #5a5fd8",
": c #5e63d9",
"> c #6267db",
", c #747be1",
"< c #787fe2",
"1 c #7d84e4",
"2 c #838ae6",
"3 c #888fe7",
"4 c #8d94e9",
"5 c #9197e9",
"6 c #949aea",
"7 c #999deb",
"8 c #9ca1ec",
"9 c #a1a5ed",
"0 c #a5a9ee",
"q c #a9aeef",
"w c #abb0ef",
"e c #adb2f0",
"r c #b1b5f1",
"t c #b6bbf2",
"y c #babdf2",
"u c #bec1f3",
"i c #c1c4f4",
"p c #c7c9f5",
"a c #c9ccf5",
"s c #cfd1f7",
"d c #d2d5f7",
"f c #d5d7f8",
"g c #d6daf8",
"h c #dadcf9",
"j c #dee0fa",
"k c #e1e2fa",
"l c #ebebfc",
"z c #f1f1fd",
/* pixels */
">%-:::::>::::-:::>>:>:-:::>>::::***---******%*:3",
"&oo+++++O@@O@O@OO@@@                  XO##OOX:wa",
"&@,22223222122221122666580988765555588wwww8657dd",
"*#29909988887887779976668q08876535568wwww86868ga",
"*#39998887888887768866888008776555688www866889ga",
"&@3887788866686666587788879988666668000w868978ga",
"*#2887777767877666688888768887766688w008668888ga",
"*#28877888878876655898868787777666880989866668ga",
"*#28868887888767656899768889865556889989977788ga",
"&@18668888788776667898778889084456898989977778ga",
"&@18668888887666668989868989875568999988987789ga",
"&@15456867868678888988878998864368999988988889ga",
"&O,3346887878888888888868998864259999887888878ka",
"%O16688888788688888888868998765359w99776888868ga",
"&@30090877888888888888689998865558w99766798877ga",
"=$49999987878888888886689998754458ww9866788777ga",
"=#39888867876686688866680008533459009878899857ga",
"*#18988766665566888665790008533570009888899778ka",
"%#19888676565588888655800096555689998788889877ga",
"*#18887888668800988557000986335689999988688678ga",
"*#198888888669wq986569009865335690099998688689ga",
"%O188868878558w0865690097664455690089998578580ga",
"%O288888888538w085680987664334560w089988668790ga",
"*#288878886359w0756008665555555700099987558899ga",
"%#28888888636ww8559096534455566999w9988633799wgy",
"*#28888886539q9656909655545667790099987533700wdy",
"%O188866851590865809855666777889w0w09865339w0wdw",
"*#3888655316006658008556667997799w99866537ww0wdw",
"*#3876533538096558096556678877899999876538ww9wdy",
"*#3855533550w95559096556678987889998876659w08wgy",
"-#153555889ww95560q95566788988799w99876538w08wgy",
"=O135558qqqw08559w08656868999880ww98877558w08wgu",
"*O15880ww9998556ww985577689988800988876559w86wgy",
"*O1890ww98865560ww955555588886899888876678966wgy",
"%O169qwq8885569ww9655555699987888778877788986wgy",
"%O169w98885359wq96555555809987778668878998889wgy",
"*#2qwe0888558w0865555567999887888889988987689wgy",
"%O3eew8888350w9866555567990888888899888986589wgy",
"%#5ew888653800987656667899987678899988887658wwgy",
"%$6q88888558008676666689988855688998878886689wgt",
"*#5988885360098666566679988766788988778888769wgy",
"*#3988863580098665566679976667888888789988868tgy",
"%#3888853600988653566678866688877888788887866tgy",
"%#5086535900886633566677766888878888767888766wgy",
"*#6065368099666533556667888998888887555578776wgy",
"*:873580w0986653335578899rrrwrwrwwww00wwwwwwwaku",
"-1uggkkkkkkggggggggkkkkkkggggggggggdgggdddgdglzu",
"rwuyuaaaiuuuyyyuyyuaaiauuuuiiuiiuuuuyuuuuuuuuuaa"
};
